<svg xmlns="http://www.w3.org/2000/svg" viewBox="0 0 1102 422"><defs><style>.a{fill:#eb9316;}.b{fill:#008c8c;}</style></defs><title>Artboard 1</title><circle class="a" cx="209.35" cy="211.15" r="207.35"/><path class="b" d="M396.88,124.78q18.12,38,19.69,71.71t-11.21,62.34q-12.76,28.64-38.42,52T305.4,351.33q-17.73,8.44-39.76,17.14a255,255,0,0,1-41.35,12.72L89,97.47a257,257,0,0,1,35.92-24.12q20.61-11.64,38.35-20.1,35.88-17.11,70.19-22.33t64.59,2.88q30.3,8.1,55.5,30.54T396.88,124.78Zm-105.21,189q58.26-27.78,72.78-71.24T353.4,145.51Q327.83,91.9,284.92,75.82T183.76,87.53q-17.32,8.25-26.61,13.2t-12.9,7.19L251,331.69q4-1.4,13.71-5.5T291.67,313.83Z"/><path class="b" d="M452,362.22V38.07H649.84V76.89H497.35v96.36H633v37.88H497.35V323.39H661.53v38.83Z"/><path class="b" d="M896.34,142.37q-19.64,62.69-39.76,116T816.36,362.22H771q-24.79-71.57-43.74-151.09T691.94,38.07h47.71q6.54,36.48,13.56,73t14.5,70.87q7.49,34.38,15,65.72t15.44,58q18.69-49.11,39.76-107.82T877.17,76.42h39.29Q934.7,139.1,956.21,197.8t40.23,107.82q7.48-26.19,15-57.54t14.73-65.71q7.24-34.38,14.27-71.1T1054,38.07h46.31q-16.83,93.56-35.78,173.06t-43.27,151.09H975.86q-20.6-50.52-40.23-103.84T896.34,142.37Z"/></svg>