<?xml version="1.0" encoding="UTF-8" standalone="no"?>
<!-- Created with Inkscape (http://www.inkscape.org/) -->

<svg
   xmlns:dc="http://purl.org/dc/elements/1.1/"
   xmlns:cc="http://creativecommons.org/ns#"
   xmlns:rdf="http://www.w3.org/1999/02/22-rdf-syntax-ns#"
   xmlns:svg="http://www.w3.org/2000/svg"
   xmlns="http://www.w3.org/2000/svg"
   xmlns:sodipodi="http://sodipodi.sourceforge.net/DTD/sodipodi-0.dtd"
   xmlns:inkscape="http://www.inkscape.org/namespaces/inkscape"
   version="1.1"
   id="svg2"
   xml:space="preserve"
   width="474.45334"
   height="199.77333"
   viewBox="0 0 474.45334 199.77333"
   sodipodi:docname="fapse_pant.svg"
   inkscape:version="0.92.3 (2405546, 2018-03-11)"><metadata
     id="metadata8"><rdf:RDF><cc:Work
         rdf:about=""><dc:format>image/svg+xml</dc:format><dc:type
           rdf:resource="http://purl.org/dc/dcmitype/StillImage" /><dc:title></dc:title></cc:Work></rdf:RDF></metadata><defs
     id="defs6" /><sodipodi:namedview
     pagecolor="#ffffff"
     bordercolor="#666666"
     borderopacity="1"
     objecttolerance="10"
     gridtolerance="10"
     guidetolerance="10"
     inkscape:pageopacity="0"
     inkscape:pageshadow="2"
     inkscape:window-width="640"
     inkscape:window-height="480"
     id="namedview4"
     showgrid="false"
     inkscape:zoom="0.75033722"
     inkscape:cx="237.22667"
     inkscape:cy="99.886665"
     inkscape:window-x="0"
     inkscape:window-y="0"
     inkscape:window-maximized="0"
     inkscape:current-layer="g10" /><g
     id="g10"
     inkscape:groupmode="layer"
     inkscape:label="ink_ext_XXXXXX"
     transform="matrix(1.3333333,0,0,-1.3333333,0,199.77333)"><g
       id="g12"
       transform="scale(0.1)"><path
         d="m 1038.68,986.813 c -60.278,0 -73.871,34.547 -73.871,72.987 v 131.39 h 36.801 v -129.01 c 0,-25.32 7.93,-43.2 39.63,-43.2 28.3,0 40.17,12.52 40.17,46.78 v 125.43 h 36.52 v -123.05 c 0,-54.82 -28.86,-81.327 -79.25,-81.327"
         style="fill:#231f20;fill-opacity:1;fill-rule:nonzero;stroke:none"
         id="path14"
         inkscape:connector-curvature="0" /><path
         d="m 1264.83,990.082 c 0,0 -71.04,131.688 -76.7,144.798 1.13,-17.29 1.7,-48.87 1.7,-72.99 v -71.808 h -35.66 V 1191.19 H 1202 c 0,0 69.62,-128.11 76.69,-143.3 -1.4,20.25 -1.97,56 -1.97,80.74 v 62.56 h 35.64 V 990.082 h -47.53"
         style="fill:#231f20;fill-opacity:1;fill-rule:nonzero;stroke:none"
         id="path16"
         inkscape:connector-curvature="0" /><path
         d="m 1355.68,990.082 v 201.108 h 36.78 V 990.082 h -36.78"
         style="fill:#231f20;fill-opacity:1;fill-rule:nonzero;stroke:none"
         id="path18"
         inkscape:connector-curvature="0" /><path
         d="m 1524.88,990.082 h -42.46 l -66.5,201.108 h 40.19 l 37.07,-117.68 c 3.68,-11.33 7.93,-24.74 11.33,-39.33 h 0.57 c 2.83,13.71 5.94,24.72 11.31,41.71 l 37.65,115.3 h 37.64 l -66.8,-201.108"
         style="fill:#231f20;fill-opacity:1;fill-rule:nonzero;stroke:none"
         id="path20"
         inkscape:connector-curvature="0" /><path
         d="m 1616.8,990.082 v 201.108 h 104.98 v -32.48 h -67.8 v -49.46 h 64.36 v -31.58 h -64.36 v -54.51 h 67.8 V 990.082 H 1616.8"
         style="fill:#231f20;fill-opacity:1;fill-rule:nonzero;stroke:none"
         id="path22"
         inkscape:connector-curvature="0" /><path
         d="m 1812.83,1160.8 c -5.37,0 -10.74,-0.3 -14.43,-0.9 v -58.09 c 2.56,-0.3 7.65,-0.6 13.3,-0.6 22.09,0 35.66,11.92 35.66,30.69 0,19.37 -11.31,28.9 -34.53,28.9 z m 40.2,-170.718 -53.21,83.128 h -1.42 v -83.128 h -36.8 v 201.108 c 15,0.9 32.83,1.19 54.92,1.19 42.17,0 69.34,-15.49 69.34,-56.6 0,-29.81 -19.81,-51.25 -48.67,-56.02 5.37,-7.44 10.74,-15.19 15.56,-22.05 l 45.84,-67.628 h -45.56"
         style="fill:#231f20;fill-opacity:1;fill-rule:nonzero;stroke:none"
         id="path24"
         inkscape:connector-curvature="0" /><path
         d="m 1960.8,986.813 c -13.57,0 -27.17,1.484 -39.06,4.765 l 2.26,36.042 c 10.77,-3.87 26.06,-7.15 39.93,-7.15 18.67,0 33.1,8.04 33.1,26.52 0,38.44 -80.1,20.86 -80.1,86.99 0,35.76 26.9,60.49 72.74,60.49 10.76,0 23.22,-1.5 34.53,-3.58 l -1.97,-33.96 c -10.77,3.27 -22.64,5.36 -34.26,5.36 -21.21,0 -31.97,-10.13 -31.97,-24.43 0,-36.05 80.39,-22.65 80.39,-85.51 0,-37.84 -28.6,-65.537 -75.59,-65.537"
         style="fill:#231f20;fill-opacity:1;fill-rule:nonzero;stroke:none"
         id="path26"
         inkscape:connector-curvature="0" /><path
         d="m 2066.09,990.082 v 201.108 h 36.8 V 990.082 h -36.8"
         style="fill:#231f20;fill-opacity:1;fill-rule:nonzero;stroke:none"
         id="path28"
         inkscape:connector-curvature="0" /><path
         d="M 2214.39,1158.12 V 990.082 h -36.79 v 168.038 h -49.53 v 33.07 h 135.86 v -33.07 h -49.54"
         style="fill:#231f20;fill-opacity:1;fill-rule:nonzero;stroke:none"
         id="path30"
         inkscape:connector-curvature="0" /><path
         d="m 2333.81,1204.29 -13.11,21.76 52.13,32.77 15.8,-26.22 z m -40.82,-214.208 v 201.108 h 109.33 v -32.48 h -70.6 v -49.46 h 67.03 v -31.58 h -67.03 v -54.51 h 70.6 v -33.078 h -109.33"
         style="fill:#231f20;fill-opacity:1;fill-rule:nonzero;stroke:none"
         id="path32"
         inkscape:connector-curvature="0" /><path
         d="m 1028.13,839.059 c -8.95,0 -17.29,-0.305 -23.55,-0.899 V 702.602 c 5.37,-0.887 13.41,-1.493 21.15,-1.493 37.85,0 65.25,21.454 65.25,69.121 0,43.204 -16.97,68.829 -62.85,68.829 z m -6.27,-171.016 c -20.86,0 -39.024,0.898 -56.016,1.484 v 200.508 c 15.801,0.606 40.236,1.492 64.966,1.492 62.26,0 101.89,-27.703 101.89,-98.308 0,-69.121 -45.29,-105.176 -110.84,-105.176"
         style="fill:#231f20;fill-opacity:1;fill-rule:nonzero;stroke:none"
         id="path34"
         inkscape:connector-curvature="0" /><path
         d="m 1158.91,669.234 v 201.102 h 109.34 v -32.469 h -70.61 v -49.453 h 67.03 v -31.582 h -67.03 v -54.531 h 70.61 v -33.067 h -109.34"
         style="fill:#231f20;fill-opacity:1;fill-rule:nonzero;stroke:none"
         id="path36"
         inkscape:connector-curvature="0" /><path
         d="m 1545.63,828.629 c -16.1,6.25 -34.58,10.125 -53.34,10.125 -39.63,0 -68.23,-25.027 -68.23,-70.008 0,-42.609 23.24,-67.637 64.07,-67.637 9.53,0 17.87,1.192 25.6,3.575 v 70.019 h 38.73 v -95.937 c -19.96,-8.047 -44.69,-12.512 -68.81,-12.512 -63.77,0 -101.6,37.539 -101.6,98.918 0,63.164 42.91,108.144 112.62,108.144 19.96,0 39.63,-3.574 56.91,-8.632 l -5.95,-36.055"
         style="fill:#231f20;fill-opacity:1;fill-rule:nonzero;stroke:none"
         id="path38"
         inkscape:connector-curvature="0" /><path
         d="m 1593.57,669.234 v 201.102 h 109.36 v -32.469 h -70.63 v -49.453 h 67.06 v -31.582 h -67.06 v -54.531 h 70.63 v -33.067 h -109.36"
         style="fill:#231f20;fill-opacity:1;fill-rule:nonzero;stroke:none"
         id="path40"
         inkscape:connector-curvature="0" /><path
         d="m 1862.48,669.234 c 0,0 -77.62,131.68 -83.57,144.793 1.19,-17.273 1.79,-48.855 1.79,-72.996 v -71.797 h -37.54 v 201.102 h 47.52 c 0,0 76.12,-128.113 83.56,-143.309 -1.49,20.262 -2.07,56.016 -2.07,80.743 v 62.566 h 37.54 V 669.234 h -47.23"
         style="fill:#231f20;fill-opacity:1;fill-rule:nonzero;stroke:none"
         id="path42"
         inkscape:connector-curvature="0" /><path
         d="m 2016.37,883.148 -54.83,28.301 16.39,26.516 51.84,-32.774 z m -66.45,-213.914 v 201.102 h 109.34 v -32.469 h -70.61 v -49.453 h 67.03 v -31.582 h -67.03 v -54.531 h 70.61 v -33.067 h -109.34"
         style="fill:#231f20;fill-opacity:1;fill-rule:nonzero;stroke:none"
         id="path44"
         inkscape:connector-curvature="0" /><path
         d="m 2197.79,669.234 h -44.68 l -70.02,201.102 h 42.3 l 39.04,-117.684 c 3.87,-11.32 8.34,-24.726 11.92,-39.328 h 0.58 c 2.99,13.703 6.27,24.739 11.94,41.711 l 39.61,115.301 h 39.63 l -70.32,-201.102"
         style="fill:#231f20;fill-opacity:1;fill-rule:nonzero;stroke:none"
         id="path46"
         inkscape:connector-curvature="0" /><path
         d="m 2293.44,669.234 v 201.102 h 109.33 v -32.469 h -70.6 v -49.453 h 67.03 v -31.582 h -67.03 v -54.531 h 70.6 v -33.067 h -109.33"
         style="fill:#231f20;fill-opacity:1;fill-rule:nonzero;stroke:none"
         id="path48"
         inkscape:connector-curvature="0" /><path
         d="m 276.957,1172.11 17.063,-22.06 12.523,9.69 -27.789,35.92 -9.809,-7.58 c 3.899,-6.05 -1.695,-13.34 -8.593,-18.51 l 4.984,-6.45 11.621,8.99"
         style="fill:#9c9a9b;fill-opacity:1;fill-rule:nonzero;stroke:none"
         id="path50"
         inkscape:connector-curvature="0" /><path
         d="m 322.25,1192.84 c 0.863,3.51 3.355,5.59 7.109,7.53 5.481,2.81 10.004,1.7 12.032,-2.25 2.023,-3.94 -0.578,-8.49 -5.743,-11.15 -3.992,-2.05 -9.636,-2.61 -11.355,0.55 l -13.301,-6.84 c 5.75,-9.28 16.867,-7.81 28.766,-1.71 12.676,6.51 19.816,16.48 14.699,26.44 -4.316,8.41 -13.875,9.51 -25.066,3.77 -4.153,-2.13 -7.426,-5 -9.157,-8.38 l -0.156,-0.07 -1.75,8.41 24.188,12.41 -4.289,8.35 -34.434,-17.68 6.406,-25.58 12.051,6.2"
         style="fill:#9c9a9b;fill-opacity:1;fill-rule:nonzero;stroke:none"
         id="path52"
         inkscape:connector-curvature="0" /><path
         d="m 610.707,1206.8 c -4.16,2.1 -8.398,3.08 -12.148,2.49 l -0.157,0.08 5.778,6.35 24.258,-12.25 4.234,8.37 -34.547,17.45 -16.918,-20.21 12.094,-6.12 c 3.347,1.38 6.504,0.59 10.269,-1.3 5.496,-2.79 7.254,-7.11 5.258,-11.06 -1.996,-3.96 -7.219,-4.53 -12.398,-1.91 -4.004,2.02 -7.778,6.27 -6.239,9.5 l -13.343,6.75 c -4.121,-10.12 3.59,-18.24 15.523,-24.28 12.723,-6.43 24.984,-6.35 30.039,3.65 4.262,8.44 -0.472,16.82 -11.703,22.49"
         style="fill:#9c9a9b;fill-opacity:1;fill-rule:nonzero;stroke:none"
         id="path54"
         inkscape:connector-curvature="0" /><path
         d="m 664.141,1170.13 c -2.508,-3.24 -7.602,-3.5 -12.618,0.37 -4.867,3.77 -5.761,8.66 -3.168,12 2.309,3 7.614,3.1 12.067,-0.35 5.082,-3.92 6.187,-8.81 3.719,-12.02 z m 1.574,19.3 c -10.094,7.8 -22.652,9.1 -28.59,1.43 -5.414,-7.02 -2.828,-17.33 6.777,-24.76 4.172,-3.23 9.536,-5.64 13.84,-4.52 l 0.145,-0.11 c -3.946,-4.53 -9.629,-7.14 -16.032,-2.19 -1.464,1.13 -2.792,2.57 -3.539,4.06 -0.789,1.42 -1.011,3 -0.418,4.35 l -11.062,8.56 c -3.473,-7.95 0.504,-16.04 9.34,-22.87 15.457,-11.94 28.121,-7.49 36.133,2.87 7.453,9.64 7.531,22.26 -6.594,33.18"
         style="fill:#9c9a9b;fill-opacity:1;fill-rule:nonzero;stroke:none"
         id="path56"
         inkscape:connector-curvature="0" /><path
         d="m 164.102,1003.19 c 7.968,-2.64 13.824,5.05 18.464,13.06 4.676,8.09 8.149,16.49 11.551,15.37 2.899,-0.96 2.387,-5.43 1.281,-8.77 -1.585,-4.77 -4.574,-9.44 -8.507,-7.85 l -5.149,-15.523 c 9.992,-3.223 18.215,7.293 22.141,19.163 3.715,11.2 4.281,25.54 -5.363,28.74 -8.106,2.68 -13.915,-5.31 -18.532,-13.22 -4.644,-8 -8.195,-16.28 -12.101,-14.98 -3.278,1.09 -2.907,6.34 -1.356,11.02 2.176,6.58 5.289,10.37 10.594,8.98 l 5.148,15.54 c -11.351,3.66 -19.808,-6.97 -24.351,-20.65 -4.336,-13.11 -5.016,-27.17 6.18,-30.88"
         style="fill:#9c9a9b;fill-opacity:1;fill-rule:nonzero;stroke:none"
         id="path58"
         inkscape:connector-curvature="0" /><path
         d="m 158.984,924.918 1.25,16.309 c -5.289,1.023 -8.199,5.664 -7.613,13.3 0.82,10.516 8.02,14.024 14.906,13.485 6.887,-0.535 13.457,-5.098 12.649,-15.614 -0.524,-6.847 -3.375,-11.574 -8.121,-12.082 l -1.258,-16.308 c 11.211,-0.438 18.711,13.722 19.738,27.246 1.473,18.926 -8.305,32.031 -21.75,33.066 -13.449,1.035 -25.117,-10.41 -26.582,-29.355 -1.219,-15.879 4.887,-28.27 16.781,-30.047"
         style="fill:#9c9a9b;fill-opacity:1;fill-rule:nonzero;stroke:none"
         id="path60"
         inkscape:connector-curvature="0" /><path
         d="m 194.797,872.387 -16.707,-2.86 -3.656,21.231 16.699,2.871 -2.778,16.133 -45.851,-7.903 2.777,-16.132 18.883,3.261 3.656,-21.238 -18.879,-3.262 2.782,-16.125 45.843,7.903 -2.769,16.121"
         style="fill:#9c9a9b;fill-opacity:1;fill-rule:nonzero;stroke:none"
         id="path62"
         inkscape:connector-curvature="0" /><path
         d="m 198.004,793.648 c -6.305,-2.824 -14.254,-1.964 -18.578,7.676 -4.321,9.629 0.336,16.153 6.633,18.973 6.304,2.812 14.257,1.953 18.582,-7.676 4.32,-9.629 -0.325,-16.152 -6.637,-18.973 z m 16.152,23.243 c -8.101,18.054 -22.476,23.855 -34.793,18.339 -12.3,-5.527 -17.539,-20.117 -9.441,-38.183 8.098,-18.059 22.465,-23.84 34.773,-18.332 12.317,5.519 17.551,20.109 9.461,38.176"
         style="fill:#9c9a9b;fill-opacity:1;fill-rule:nonzero;stroke:none"
         id="path64"
         inkscape:connector-curvature="0" /><path
         d="m 243.027,765.426 -9.914,13.027 -37.008,-28.183 27.649,-36.329 8.293,6.309 -17.734,23.309 28.714,21.867"
         style="fill:#9c9a9b;fill-opacity:1;fill-rule:nonzero;stroke:none"
         id="path66"
         inkscape:connector-curvature="0" /><path
         d="m 273.02,691.773 -10.809,9.286 16.016,7.714 0.136,-0.105 z m -40.723,12.129 12.754,-10.949 8.429,3.75 16.618,-14.277 -2.496,-8.836 12.945,-11.125 12.488,50.598 -12.605,10.828 -48.133,-19.989"
         style="fill:#9c9a9b;fill-opacity:1;fill-rule:nonzero;stroke:none"
         id="path68"
         inkscape:connector-curvature="0" /><path
         d="m 410.059,647.535 c 6.461,-1.34 11.14,-4.765 10.847,-8.769 l 16.024,-3.321 c 0.902,11.727 -11.66,19.59 -24.41,22.235 -18.602,3.859 -32.848,-4.18 -35.586,-17.383 -2.735,-13.203 7.136,-26.231 25.742,-30.086 5.687,-1.184 13.242,-1.152 18.375,2.371 l -0.082,-5.164 10.332,-2.148 5.176,24.949 -25.84,5.351 -1.828,-8.797 11.203,-2.324 c -1.727,-3.965 -7.641,-5.605 -15.563,-3.957 -10.332,2.141 -12.894,9.727 -11.496,16.485 1.406,6.757 6.77,12.707 17.106,10.558"
         style="fill:#9c9a9b;fill-opacity:1;fill-rule:nonzero;stroke:none"
         id="path70"
         inkscape:connector-curvature="0" /><path
         d="m 477.512,614.84 -0.449,8.848 30.746,1.562 -0.481,9.375 -30.746,-1.574 -0.41,8.137 33.641,1.718 -0.493,9.696 -49.984,-2.539 2.363,-46.465 50.864,2.578 -0.528,10.41 -34.523,-1.746"
         style="fill:#9c9a9b;fill-opacity:1;fill-rule:nonzero;stroke:none"
         id="path72"
         inkscape:connector-curvature="0" /><path
         d="m 563.848,667.016 8.523,-27.371 -0.164,-0.051 -29.352,20.89 -16.042,-5 13.832,-44.425 14.699,4.582 -8.625,27.683 0.172,0.059 29.449,-21.199 16.043,5 -13.836,44.414 -14.699,-4.582"
         style="fill:#9c9a9b;fill-opacity:1;fill-rule:nonzero;stroke:none"
         id="path74"
         inkscape:connector-curvature="0" /><path
         d="m 628.461,657.613 -4.656,7.539 26.183,16.18 -4.925,7.981 -26.196,-16.184 -4.281,6.934 28.668,17.707 -5.106,8.261 -42.582,-26.308 24.454,-39.582 43.324,26.769 -5.473,8.867 -29.41,-18.164"
         style="fill:#9c9a9b;fill-opacity:1;fill-rule:nonzero;stroke:none"
         id="path76"
         inkscape:connector-curvature="0" /><path
         d="m 677.078,742.68 15.891,-33.114 -0.121,-0.128 -33.239,15.636 -12.015,-12.121 46.969,-18.711 13.253,13.36 -18.711,47.187 -12.027,-12.109"
         style="fill:#9c9a9b;fill-opacity:1;fill-rule:nonzero;stroke:none"
         id="path78"
         inkscape:connector-curvature="0" /><path
         d="m 735.891,760.512 -7.578,4.601 15.964,26.317 -8.027,4.863 -15.961,-26.316 -6.965,4.226 17.469,28.801 -8.305,5.039 -25.949,-42.805 39.777,-24.121 26.414,43.555 -8.917,5.402 -17.922,-29.562"
         style="fill:#9c9a9b;fill-opacity:1;fill-rule:nonzero;stroke:none"
         id="path80"
         inkscape:connector-curvature="0" /><path
         d="m 741.145,861.441 27.449,-8.273 -0.043,-0.164 -33.75,-12.617 -4.852,-16.086 44.555,-13.426 4.441,14.734 -27.769,8.371 0.054,0.165 34.059,12.531 4.844,16.082 -44.547,13.418 -4.441,-14.735"
         style="fill:#9c9a9b;fill-opacity:1;fill-rule:nonzero;stroke:none"
         id="path82"
         inkscape:connector-curvature="0" /><path
         d="m 782.5,944.633 c -8.398,0.371 -11.93,-8.621 -14.219,-17.598 -2.289,-9.051 -3.34,-18.074 -6.926,-17.918 -3.058,0.137 -3.773,4.571 -3.617,8.086 0.223,5.008 1.825,10.313 6.047,9.852 l 0.727,16.347 c -10.489,0.383 -15.532,-11.992 -16.094,-24.472 -0.523,-11.778 2.844,-25.742 12.992,-26.192 8.531,-0.379 11.942,8.887 14.231,17.766 2.289,8.973 3.464,17.898 7.566,17.723 3.453,-0.157 4.523,-5.313 4.309,-10.235 -0.309,-6.941 -2.274,-11.433 -7.754,-11.543 l -0.723,-16.347 c 11.914,-0.438 17.168,12.101 17.809,26.503 0.613,13.809 -2.567,27.5 -14.348,28.028"
         style="fill:#9c9a9b;fill-opacity:1;fill-rule:nonzero;stroke:none"
         id="path84"
         inkscape:connector-curvature="0" /><path
         d="m 747.969,963.598 46.051,6.64 -2.336,16.192 -46.047,-6.629 2.332,-16.203"
         style="fill:#9c9a9b;fill-opacity:1;fill-rule:nonzero;stroke:none"
         id="path86"
         inkscape:connector-curvature="0" /><path
         d="m 755.309,1002.54 c 8.07,2.77 7.843,12.64 6.726,21.74 -1.156,9.18 -3.328,17.92 0.559,19.26 3.261,1.12 6.152,-3.28 7.75,-7.94 2.254,-6.58 2.074,-11.47 -2.985,-13.58 l 5.309,-15.48 c 11.25,3.95 11.551,17.54 6.863,31.19 -4.476,13.06 -12.453,24.64 -23.601,20.82 -7.95,-2.73 -7.942,-12.39 -6.793,-21.58 1.179,-9.27 3.504,-18.05 0.117,-19.21 -2.899,-0.99 -5.191,2.87 -6.328,6.19 -1.625,4.75 -2.074,10.26 2.019,11.4 l -5.316,15.47 c -9.887,-3.48 -10.059,-16.84 -6.008,-28.66 3.824,-11.15 12.067,-22.926 21.688,-19.62"
         style="fill:#9c9a9b;fill-opacity:1;fill-rule:nonzero;stroke:none"
         id="path88"
         inkscape:connector-curvature="0" /><path
         d="m 322.355,663.051 c -3.695,-4.891 -2.707,-11.856 2.188,-15.547 4.895,-3.699 11.852,-2.715 15.535,2.18 3.699,4.902 2.727,11.855 -2.168,15.546 -4.906,3.692 -11.863,2.715 -15.555,-2.179"
         style="fill:#9c9a9b;fill-opacity:1;fill-rule:nonzero;stroke:none"
         id="path90"
         inkscape:connector-curvature="0" /><path
         d="m 231.531,1106.32 c 3.614,4.97 2.532,11.9 -2.422,15.51 -4.961,3.62 -11.89,2.54 -15.515,-2.42 -3.614,-4.96 -2.531,-11.89 2.422,-15.51 4.961,-3.61 11.906,-2.53 15.515,2.42"
         style="fill:#9c9a9b;fill-opacity:1;fill-rule:nonzero;stroke:none"
         id="path92"
         inkscape:connector-curvature="0" /><path
         d="m 703.652,1119.41 c -3.613,-4.96 -2.531,-11.89 2.434,-15.51 4.949,-3.61 11.894,-2.53 15.508,2.42 3.609,4.97 2.527,11.9 -2.422,15.51 -4.961,3.62 -11.899,2.54 -15.52,-2.42"
         style="fill:#9c9a9b;fill-opacity:1;fill-rule:nonzero;stroke:none"
         id="path94"
         inkscape:connector-curvature="0" /><path
         d="m 495.906,1240.46 -9.011,-14.12 h 22.058 v 6.84 l -8.687,-0.04 4.812,7.19 -4.812,7.42 8.535,0.05 v 6.75 h -21.906 l 9.011,-14.09"
         style="fill:#9c9a9b;fill-opacity:1;fill-rule:nonzero;stroke:none"
         id="path96"
         inkscape:connector-curvature="0" /><path
         d="m 448.23,1233.14 -5.437,-0.06 v 14.72 l 5.059,-0.05 v 6.8 h -18.145 v -6.8 l 5.039,0.05 v -14.72 l -5.371,0.06 v -6.8 h 18.855 v 6.8"
         style="fill:#9c9a9b;fill-opacity:1;fill-rule:nonzero;stroke:none"
         id="path98"
         inkscape:connector-curvature="0" /><path
         d="m 473.918,1244.61 h -11.484 l 0.046,10.03 h -8.417 v -28.3 h 8.417 l -0.046,11.25 h 11.484 v -11.25 h 8.395 v 28.3 h -8.395 v -10.03"
         style="fill:#9c9a9b;fill-opacity:1;fill-rule:nonzero;stroke:none"
         id="path100"
         inkscape:connector-curvature="0" /><path
         d="m 464.641,1271.38 c 0,2.13 1.531,3.48 3.757,3.48 2,0 3.497,-1.52 3.497,-3.48 l 0.109,-10 h 15.691 v 8.4 h -9.621 l -0.039,2.15 c -0.055,6.02 -2.84,10.88 -9.695,10.88 -5.266,0 -8.906,-2.95 -9.551,-8.01 -0.117,-1.07 -0.117,-2.21 -0.117,-3.31 v -1.71 h -9.609 l -0.008,-8.4 h 15.562 l 0.024,10"
         style="fill:#9c9a9b;fill-opacity:1;fill-rule:nonzero;stroke:none"
         id="path102"
         inkscape:connector-curvature="0" /><path
         d="m 468.398,1219.7 c -2.785,0 -5.046,-2.26 -5.046,-5.06 0,-2.78 2.261,-5.05 5.046,-5.05 2.793,0 5.059,2.27 5.059,5.05 0,2.8 -2.266,5.06 -5.059,5.06"
         style="fill:#9c9a9b;fill-opacity:1;fill-rule:nonzero;stroke:none"
         id="path104"
         inkscape:connector-curvature="0" /><path
         d="m 467.727,588.852 c -188.86,0 -342.5,153.652 -342.5,342.511 0,167.067 120.269,306.507 278.773,336.467 l 4.77,-5.88 -41.153,-15.7 41.133,-15.73 -27.781,-34.18 43.484,6.94 -1.441,-8.98 C 297.148,1172.96 200.969,1063.21 200.969,931.363 c 0,-147.09 119.668,-266.769 266.758,-266.769 147.086,0 266.753,119.679 266.753,266.769 0,131.777 -96.062,241.477 -221.824,262.907 l -1.187,8.81 42.359,-6.79 -26.648,34.61 40.039,15.3 -40.5,16.51 4.238,5.22 c 158.731,-29.77 279.27,-169.32 279.27,-336.567 0,-188.859 -153.649,-342.511 -342.5,-342.511 z m -50.247,538.118 6.165,10.47 h -25.461 l 2.976,10.88 c 0,5.25 -4.246,9.51 -9.5,9.51 -1.273,0 -2.484,-0.27 -3.594,-0.72 0.211,0.95 0.352,1.86 0.352,2.55 0,3.46 -2.805,6.27 -6.262,6.27 -3.457,0 -6.265,-2.81 -6.265,-6.27 0,-0.69 0.14,-1.6 0.347,-2.55 -1.105,0.45 -2.312,0.72 -3.582,0.72 -5.254,0 -9.504,-4.26 -9.504,-9.51 l 2.969,-10.88 h -6.707 c -4.609,0 -8.445,-3.28 -9.316,-7.62 -1.399,0.39 -2.864,0.63 -4.375,0.63 -8.633,0 -15.625,-7 -15.625,-15.63 0,-2.69 0.695,-5.23 1.882,-7.44 2.649,4.88 7.805,8.19 13.735,8.19 5.32,0 10.008,-2.66 12.832,-6.73 0.332,-0.46 0.633,-0.95 0.906,-1.46 0.813,-1.5 1.27,-3.18 1.555,-4.92 h -31.606 c -8.632,0 -15.625,7.01 -15.625,15.62 v -3.26 -3.53 -3.27 c 0,-8.63 6.993,-15.62 15.625,-15.62 h 29.953 c -2.667,-4.79 -7.761,-8.03 -13.64,-8.03 -0.305,0 -0.61,0.02 -0.918,0.04 2.82,-4.08 7.527,-6.76 12.871,-6.76 6.668,0 12.352,4.19 14.59,10.08 h 42.312 c 8.621,0 15.625,-6.99 15.625,-15.62 0,-4.01 0.02,-9.66 -3.984,-13.95 l -3.898,-5.85 -26.653,-41.13 c -4.863,-7.14 -14.582,-8.98 -21.719,-4.11 -7.121,4.86 -8.996,14.88 -4.132,22.01 6.203,3.44 8.632,10.58 7.476,18.01 -1.433,9.18 -9.824,15.49 -18.965,14.57 l -5.254,0.11 c -33.418,0 -58.375,22.6 -61.828,54.63 35.27,33.65 80.102,57.33 129.95,66.53 l -3.708,-23.13 33.969,27.58 11.461,-29.47 v -45.62 z M 280.293,763.512 c 0.336,1.414 1.195,2.617 2.434,3.398 l 32.671,18.457 9.149,-9.406 -0.133,-0.106 2.25,-2.07 1.68,-1.719 0.101,0.079 11.672,-10.723 c 2.035,-2.051 2.035,-5.527 -0.097,-7.656 -1.032,-1.028 -2.407,-1.602 -3.868,-1.602 h -6.562 l 8.308,-8.293 h 1.125 c 5.786,-0.008 11.227,2.258 15.325,6.34 4.09,4.102 6.343,9.531 6.343,15.332 0,11.523 -9.058,20.879 -20.418,21.543 -2.546,2.559 -6.195,6.191 -8.007,8.008 5.199,3.301 95.754,60.761 104.183,66.101 -2.836,-31.668 -30.16,-68.836 -55.941,-91.113 -11.797,-11.797 -16.328,-24.961 -16.328,-36.367 0,-10.067 3.531,-18.758 8.707,-23.934 4.535,-4.531 11.445,-5.898 17.191,-3.371 l 3.633,1.594 -2.809,2.812 c -4.57,4.571 -6.195,12.539 -6.195,18.477 0,11.914 3.074,17.969 8.832,24.219 1.223,-1.211 3.785,-3.782 7.383,-7.383 -2.438,-6.582 -3.609,-13.223 -3.609,-19.59 0,-12.734 4.5,-24.277 11.941,-31.719 1.551,-1.554 18.047,-15.234 24.98,-12.91 l 4.965,1.68 -4.226,3.086 c -2.422,1.777 -10.227,10.867 -12.871,16.414 -2.122,4.433 -3.379,9.758 -3.379,15.383 0,9.062 3.703,19.558 11.902,27.754 0.434,0.644 18.508,45.234 27.727,66.718 0.003,-0.488 0.011,-4.218 0.011,-4.218 0.059,-5.059 0.114,-10.059 0.114,-14.961 0,-25.95 -1.575,-48.985 -12.985,-60.403 -7.09,-7.09 -20.273,-10.84 -20.273,-10.84 l 3.418,-4.023 c 0.332,-0.379 5.816,-8.828 14.683,-9.109 2.114,-0.078 3.782,1.347 5.621,2.214 0.461,-20.32 4.289,-28.289 11.122,-35.945 -68.168,2.012 -129.727,30.77 -174.489,76.18 l -4.597,7.551 c -0.547,0.867 -0.825,1.855 -0.825,2.871 0,0.41 0.047,0.828 0.141,1.25 z m -19.848,22.734 c 0,1.602 0.641,3.301 1.84,4.57 1.246,1.387 2.949,2.168 4.809,2.247 l 15.586,-0.04 c -7.785,-1.777 -14.5,-6.894 -18.192,-14.199 -1.91,2.774 -3.843,5.899 -4.043,7.207 0,0.078 0,0.157 0,0.215 z m -29.504,201.856 c 0,0 31.664,5.906 66.129,12.328 -0.261,-1.782 -0.25,-3.617 0.45,-5.414 0.46,-1.192 1.179,-2.168 1.96,-3.067 l -65.132,-25.363 c -9.11,-5.555 -11.743,-16.746 -6.489,-25.234 2.539,-4.11 6.536,-6.981 11.243,-8.094 4.707,-1.113 9.57,-0.313 13.679,2.226 l 57.231,35.371 c 0.394,-1.757 1.066,-3.457 2.371,-4.882 0.847,-0.938 1.879,-1.602 2.933,-2.16 l -51.589,-47.157 c -6.481,-8.476 -4.903,-19.855 3.05,-25.879 7.965,-6.027 19.352,-4.445 25.375,3.516 l 41.063,54.258 c 0.945,-1.485 2.14,-2.824 3.836,-3.672 0.902,-0.449 1.855,-0.586 2.797,-0.754 0.207,-0.145 0.39,-0.301 0.59,-0.437 L 311.832,886.07 c -2.91,-9.953 2.5,-19.687 11.813,-22.363 9.308,-2.648 19.046,2.762 21.707,12.07 l 16.511,57.754 c 7.106,-2.129 14.621,-3.301 22.414,-3.301 6.336,0 10.504,0.528 16.407,1.954 -0.055,-10.43 -0.11,-20.332 -0.114,-21.25 -1.386,-1.504 -52.468,-57.012 -52.468,-57.012 -9,-7.383 -12.262,-7.774 -18.106,-1.934 l -1.699,1.7 -15.961,-12.52 2.16,-2.168 c 6.012,-6.016 11.676,-10.156 19.328,-10.898 -11.105,-5.84 -20.57,-10.832 -22.23,-11.7 -1.727,1.778 -9.996,10.352 -14.364,14.871 -0.652,11.368 -10.023,20.442 -21.554,20.442 -11.949,0 -21.672,-9.719 -21.672,-21.66 v -1.133 l 8.301,-8.301 v 6.563 c 0,1.464 0.566,2.832 1.597,3.867 2.133,2.129 5.61,2.129 7.743,0 0,0 6.39,-6.953 10.644,-11.582 l -0.043,-0.051 1.715,-1.766 c 1.203,-1.308 2.039,-2.207 2.039,-2.207 l 0.055,0.059 4.812,-4.941 -6.226,0.007 c -4.114,3.41 -9.227,5.227 -14.602,5.012 -5.793,-0.234 -11.144,-2.695 -15.074,-6.953 -2.848,-3.086 -4.66,-6.856 -5.375,-10.899 -23.93,38.926 -37.766,84.688 -37.766,133.633 0,20.528 2.5,40.477 7.09,59.629 3.191,-2.734 7.313,-3.769 12.027,-2.89 z M 254.734,1073 c 7.496,11.23 15.864,21.84 24.989,31.74 4.597,-16.23 14.672,-30.82 27.91,-41.29 -1.82,-1.1 -3.395,-2.65 -4.227,-4.8 -0.523,-1.37 -0.695,-2.77 -0.629,-4.14 z m 41.77,-38.08 c -1.352,-1.8 -2.305,-3.93 -2.305,-6.35 0,-1.7 0.473,-3.24 1.172,-4.67 l -66.207,-0.13 c 2.91,7.5 6.152,14.8 9.731,21.93 z M 489.855,845.191 c 0,9.325 6.739,17.032 15.59,18.614 0.746,-11.067 9.868,-19.844 21.125,-19.844 h 42.539 c 11.25,0 20.379,8.769 21.125,19.844 8.825,-1.621 15.528,-9.317 15.528,-18.614 0,-35.82 -24.676,-57.461 -57.949,-65.695 -33.27,8.234 -57.958,29.875 -57.958,65.695 z m 38.219,-81.894 c -7.41,-2.902 -12.683,-10.07 -12.683,-18.496 0,-10.977 8.906,-19.883 19.89,-19.883 h 25.051 c 10.984,0 19.895,8.906 19.895,19.883 0,8.426 -5.27,15.594 -12.684,18.496 33.898,11.805 58.27,43.965 58.27,81.894 0,19.629 -14.547,35.723 -33.418,38.446 v 14.465 l -29.719,27.382 v 57.032 h 17.129 v -24.102 h 28.984 v 18.223 h 21.301 v -18.223 h 28.98 v 64.436 h -28.98 v -15.59 h -21.301 v 15.59 h -24.043 v 19.76 h 24.043 v 15.58 h 21.301 v -15.58 h 28.98 v 58.42 c 40.141,-45.17 64.551,-104.608 64.551,-169.667 0,-139.082 -111.535,-252.519 -249.851,-255.754 v 143.743 c 8.187,-26.192 28.453,-47.051 54.304,-56.055 z m -13.886,419.553 c 54.359,-10.02 102.753,-37.22 139.296,-75.8 H 630.09 v -17.46 h -21.301 v 17.46 h -28.984 v -24.12 h -17.129 c 0,0 0.117,36.71 0.117,37.09 0,8.26 -6.723,14.98 -14.984,14.98 -8.262,0 -14.989,-6.72 -14.989,-14.98 0,-0.38 0.118,-194.536 0.118,-194.536 L 503.223,898.102 V 883.637 C 490.156,881.754 479.297,873.375 473.77,861.949 V 1158.3 l 9.941,28.77 33.586,-27.31 z m -45.997,113.01 c 27.547,0 49.954,-22.41 49.954,-49.95 0,-27.53 -22.407,-49.94 -49.954,-49.94 -27.543,0 -49.949,22.41 -49.949,49.94 0,27.54 22.406,49.95 49.949,49.95 z m 78.204,-8.93 7.453,9.18 -43.403,-6.39 6.868,42.91 -34.2,-27.71 -15.711,41.09 -15.703,-41.11 -34.133,27.77 6.946,-43.49 -43.504,6.97 7.562,-9.32 C 225.684,1250.58 103.508,1105 103.508,931.363 c 0,-200.84 163.387,-364.23 364.219,-364.23 200.828,0 364.214,163.39 364.214,364.23 0,173.807 -122.414,319.497 -285.546,355.567"
         style="fill:#9c9a9b;fill-opacity:1;fill-rule:nonzero;stroke:none"
         id="path106"
         inkscape:connector-curvature="0" /><path
         d="M 3409.26,584.996 H 833.07"
         style="fill:none;stroke:#231f20;stroke-width:11;stroke-linecap:butt;stroke-linejoin:miter;stroke-miterlimit:4;stroke-dasharray:none;stroke-opacity:1"
         id="path108"
         inkscape:connector-curvature="0" /><path
         d="M 985.098,449.02 V 422.922 H 1017.8 V 406.871 H 985.098 V 364.27 h -19.5 v 101.25 h 54.152 v -16.5 h -34.652"
         style="fill:#27b6af;fill-opacity:1;fill-rule:nonzero;stroke:none"
         id="path110"
         inkscape:connector-curvature="0" /><path
         d="m 1084.4,426.969 c -1.95,5.543 -3.45,10.5 -4.65,16.203 h -0.15 c -1.2,-5.25 -2.85,-11.102 -4.81,-16.953 l -9.14,-25.797 h 28.2 z m 21.6,-62.699 -7.05,20.699 h -38.25 l -7.05,-20.699 H 1034 l 35.4,101.25 h 22.05 L 1127.6,364.27 H 1106"
         style="fill:#27b6af;fill-opacity:1;fill-rule:nonzero;stroke:none"
         id="path112"
         inkscape:connector-curvature="0" /><path
         d="m 1189.25,362.922 c -35.4,0 -46.8,23.547 -46.8,48.75 0,32.09 16.8,54.59 50.69,54.59 7.21,0 14.86,-0.891 21.45,-2.692 l -2.09,-17.699 c -6.6,1.949 -13.51,2.988 -20.41,2.988 -18.89,0 -28.19,-14.238 -28.19,-33.89 0,-22.047 9.15,-34.348 29.55,-34.348 6.14,0 14.4,1.801 19.65,4.199 l 2.25,-17.398 c -7.5,-2.703 -16.65,-4.5 -26.1,-4.5"
         style="fill:#27b6af;fill-opacity:1;fill-rule:nonzero;stroke:none"
         id="path114"
         inkscape:connector-curvature="0" /><path
         d="m 1280.29,362.609 c -31.95,0 -39.15,17.403 -39.15,36.762 v 66.149 h 19.5 v -64.961 c 0,-12.739 4.2,-21.739 21.01,-21.739 15,0 21.29,6.289 21.29,23.551 v 63.149 h 19.35 v -61.95 c 0,-27.75 -15.29,-40.961 -42,-40.961"
         style="fill:#27b6af;fill-opacity:1;fill-rule:nonzero;stroke:none"
         id="path116"
         inkscape:connector-curvature="0" /><path
         d="m 1352.29,364.27 v 101.25 h 19.51 v -84.161 h 32.84 V 364.27 h -52.35"
         style="fill:#27b6af;fill-opacity:1;fill-rule:nonzero;stroke:none"
         id="path118"
         inkscape:connector-curvature="0" /><path
         d="M 1463.14,448.859 V 364.27 h -19.5 v 84.589 h -26.25 v 16.661 h 72 v -16.661 h -26.25"
         style="fill:#27b6af;fill-opacity:1;fill-rule:nonzero;stroke:none"
         id="path120"
         inkscape:connector-curvature="0" /><path
         d="m 1531.69,472.121 -6.6,10.938 26.25,16.507 7.95,-13.207 z M 1511.14,364.27 v 101.25 h 55.05 v -16.348 h -35.55 V 424.27 h 33.75 v -15.899 h -33.75 V 380.91 h 35.55 v -16.64 h -55.05"
         style="fill:#27b6af;fill-opacity:1;fill-rule:nonzero;stroke:none"
         id="path122"
         inkscape:connector-curvature="0" /><path
         d="m 1667.14,449.77 c -4.49,0 -8.7,-0.149 -11.86,-0.461 V 381.07 c 2.71,-0.449 6.76,-0.75 10.66,-0.75 19.05,0 32.85,10.801 32.85,34.789 0,21.762 -8.55,34.661 -31.65,34.661 z m -3.15,-86.098 c -10.5,0 -19.64,0.449 -28.2,0.75 v 100.949 c 7.95,0.301 20.25,0.75 32.7,0.75 31.34,0 51.3,-13.961 51.3,-49.5 0,-34.812 -22.8,-52.949 -55.8,-52.949"
         style="fill:#27b6af;fill-opacity:1;fill-rule:nonzero;stroke:none"
         id="path124"
         inkscape:connector-curvature="0" /><path
         d="m 1744.83,364.27 v 101.25 h 55.06 v -16.348 h -35.54 V 424.27 h 33.75 v -15.899 h -33.75 V 380.91 h 35.54 v -16.64 h -55.06"
         style="fill:#27b6af;fill-opacity:1;fill-rule:nonzero;stroke:none"
         id="path126"
         inkscape:connector-curvature="0" /><path
         d="m 1895.89,450.219 c -2.4,0 -4.65,0 -6.91,-0.149 v -33.75 c 1.96,-0.3 3.9,-0.449 5.71,-0.449 12,0.149 20.24,6.738 20.24,17.699 0,10.192 -5.84,16.649 -19.04,16.649 z m -0.3,-50.559 c -1.81,0 -4.2,0 -6.61,0.309 V 364.27 h -19.5 v 101.25 c 8.25,0.449 17.26,0.601 27.15,0.601 24.9,0 38.56,-11.551 38.56,-31.351 0,-19.661 -15,-35.11 -39.6,-35.11"
         style="fill:#27b6af;fill-opacity:1;fill-rule:nonzero;stroke:none"
         id="path128"
         inkscape:connector-curvature="0" /><path
         d="m 1976.88,362.609 c -7.19,0 -14.4,0.762 -20.7,2.403 l 1.2,18.16 c 5.71,-1.953 13.8,-3.602 21.16,-3.602 9.9,0 17.54,4.051 17.54,13.352 0,19.34 -42.45,10.488 -42.45,43.789 0,18.008 14.25,30.449 38.56,30.449 5.69,0 12.29,-0.738 18.3,-1.789 l -1.06,-17.101 c -5.7,1.652 -12,2.699 -18.14,2.699 -11.25,0 -16.95,-5.098 -16.95,-12.297 0,-18.152 42.59,-11.402 42.59,-43.051 0,-19.051 -15.14,-33.012 -40.05,-33.012"
         style="fill:#27b6af;fill-opacity:1;fill-rule:nonzero;stroke:none"
         id="path130"
         inkscape:connector-curvature="0" /><path
         d="M 2083.68,400.109 V 364.27 h -19.5 v 35.699 l -31.65,65.551 h 21.31 l 13.35,-29.098 c 2.69,-6 4.94,-11.551 6.89,-16.801 h 0.3 c 2.1,5.84 5.1,12.301 8.1,18.75 l 12.75,27.149 h 20.71 l -32.26,-65.411"
         style="fill:#27b6af;fill-opacity:1;fill-rule:nonzero;stroke:none"
         id="path132"
         inkscape:connector-curvature="0" /><path
         d="m 2177.73,362.922 c -35.4,0 -46.8,23.547 -46.8,48.75 0,32.09 16.8,54.59 50.7,54.59 7.2,0 14.85,-0.891 21.46,-2.692 l -2.1,-17.699 c -6.61,1.949 -13.51,2.988 -20.4,2.988 -18.91,0 -28.21,-14.238 -28.21,-33.89 0,-22.047 9.15,-34.348 29.55,-34.348 6.16,0 14.4,1.801 19.65,4.199 l 2.25,-17.398 c -7.5,-2.703 -16.65,-4.5 -26.1,-4.5"
         style="fill:#27b6af;fill-opacity:1;fill-rule:nonzero;stroke:none"
         id="path134"
         inkscape:connector-curvature="0" /><path
         d="m 2292.03,364.27 v 43.949 h -42.9 V 364.27 h -19.5 v 101.25 h 19.5 v -40.508 h 42.9 v 40.508 h 19.5 V 364.27 h -19.5"
         style="fill:#27b6af;fill-opacity:1;fill-rule:nonzero;stroke:none"
         id="path136"
         inkscape:connector-curvature="0" /><path
         d="m 2383.83,449.621 c -13.95,0 -26.85,-11.101 -26.85,-33.902 0,-21.449 8.4,-35.399 26.56,-35.399 13.19,0 27.29,10.2 27.29,34.5 0,22.5 -9.6,34.801 -27,34.801 z m -1.65,-87.012 c -30.9,0 -46.05,19.653 -46.05,51.012 0,33.449 22.35,53.539 49.5,53.539 27,0 46.05,-16.191 46.05,-50.84 0,-33.449 -22.05,-53.711 -49.5,-53.711"
         style="fill:#27b6af;fill-opacity:1;fill-rule:nonzero;stroke:none"
         id="path138"
         inkscape:connector-curvature="0" /><path
         d="m 2456.13,364.27 v 101.25 h 19.5 v -84.161 h 32.85 V 364.27 h -52.35"
         style="fill:#27b6af;fill-opacity:1;fill-rule:nonzero;stroke:none"
         id="path140"
         inkscape:connector-curvature="0" /><path
         d="m 2571.63,449.621 c -13.95,0 -26.85,-11.101 -26.85,-33.902 0,-21.449 8.39,-35.399 26.55,-35.399 13.19,0 27.29,10.2 27.29,34.5 0,22.5 -9.6,34.801 -26.99,34.801 z m -1.65,-87.012 c -30.91,0 -46.05,19.653 -46.05,51.012 0,33.449 22.35,53.539 49.5,53.539 27,0 46.04,-16.191 46.04,-50.84 0,-33.449 -22.05,-53.711 -49.49,-53.711"
         style="fill:#27b6af;fill-opacity:1;fill-rule:nonzero;stroke:none"
         id="path142"
         inkscape:connector-curvature="0" /><path
         d="m 2721.17,444.52 c -8.09,3.152 -17.39,5.101 -26.84,5.101 -19.95,0 -34.36,-12.601 -34.36,-35.25 0,-21.449 11.7,-34.051 32.26,-34.051 4.79,0 8.99,0.59 12.9,1.801 v 35.25 h 19.5 V 369.07 c -10.06,-4.058 -22.5,-6.3 -34.66,-6.3 -32.1,0 -51.14,18.902 -51.14,49.8 0,31.801 21.59,54.45 56.7,54.45 10.05,0 19.95,-1.801 28.64,-4.348 l -3,-18.152"
         style="fill:#27b6af;fill-opacity:1;fill-rule:nonzero;stroke:none"
         id="path144"
         inkscape:connector-curvature="0" /><path
         d="m 2754.17,364.27 v 101.25 h 19.5 V 364.27 h -19.5"
         style="fill:#27b6af;fill-opacity:1;fill-rule:nonzero;stroke:none"
         id="path146"
         inkscape:connector-curvature="0" /><path
         d="m 2803.67,364.27 v 101.25 h 55.05 v -16.348 h -35.55 V 424.27 h 33.75 v -15.899 h -33.75 V 380.91 h 35.55 v -16.64 h -55.05"
         style="fill:#27b6af;fill-opacity:1;fill-rule:nonzero;stroke:none"
         id="path148"
         inkscape:connector-curvature="0" /><path
         d="m 965.598,194.27 v 101.25 h 55.052 V 279.172 H 985.098 V 254.27 h 33.752 V 238.371 H 985.098 V 210.91 h 35.552 v -16.64 h -55.052"
         style="fill:#27b6af;fill-opacity:1;fill-rule:nonzero;stroke:none"
         id="path150"
         inkscape:connector-curvature="0" /><path
         d="M 1086.04,278.859 V 194.27 h -19.49 v 84.589 h -26.25 v 16.661 h 72 v -16.661 h -26.26"
         style="fill:#27b6af;fill-opacity:1;fill-rule:nonzero;stroke:none"
         id="path152"
         inkscape:connector-curvature="0" /><path
         d="m 1207.09,279.77 c -4.5,0 -8.7,-0.149 -11.85,-0.461 V 211.07 c 2.7,-0.449 6.75,-0.75 10.65,-0.75 19.06,0 32.86,10.801 32.86,34.789 0,21.762 -8.55,34.661 -31.66,34.661 z m -3.14,-86.11 c -10.51,0 -19.66,0.449 -28.21,0.762 v 100.949 c 7.96,0.301 20.26,0.75 32.7,0.75 31.35,0 51.31,-13.961 51.31,-49.5 0,-34.812 -22.81,-52.961 -55.8,-52.961"
         style="fill:#27b6af;fill-opacity:1;fill-rule:nonzero;stroke:none"
         id="path154"
         inkscape:connector-curvature="0" /><path
         d="m 1284.79,194.27 v 101.25 h 55.05 v -16.348 h -35.55 V 254.27 h 33.75 v -15.899 h -33.75 V 210.91 h 35.55 v -16.64 h -55.05"
         style="fill:#27b6af;fill-opacity:1;fill-rule:nonzero;stroke:none"
         id="path156"
         inkscape:connector-curvature="0" /><path
         d="m 1386.49,192.629 c -7.2,0 -14.4,0.742 -20.7,2.383 l 1.2,18.16 c 5.7,-1.953 13.8,-3.602 21.15,-3.602 9.9,0 17.55,4.051 17.55,13.352 0,19.34 -42.45,10.488 -42.45,43.789 0,18.008 14.25,30.449 38.55,30.449 5.71,0 12.3,-0.738 18.3,-1.789 l -1.05,-17.101 c -5.7,1.652 -12,2.699 -18.15,2.699 -11.25,0 -16.95,-5.098 -16.95,-12.297 0,-18.152 42.6,-11.402 42.6,-43.051 0,-19.051 -15.15,-32.992 -40.05,-32.992"
         style="fill:#27b6af;fill-opacity:1;fill-rule:nonzero;stroke:none"
         id="path158"
         inkscape:connector-curvature="0" /><path
         d="m 1512.65,192.629 c -7.21,0 -14.42,0.742 -20.71,2.383 l 1.19,18.16 c 5.71,-1.953 13.81,-3.602 21.16,-3.602 9.9,0 17.56,4.051 17.56,13.352 0,19.34 -42.47,10.488 -42.47,43.789 0,18.008 14.26,30.449 38.56,30.449 5.7,0 12.3,-0.738 18.3,-1.789 l -1.05,-17.101 c -5.71,1.652 -12,2.699 -18.15,2.699 -11.25,0 -16.95,-5.098 -16.95,-12.297 0,-18.152 42.6,-11.402 42.6,-43.051 0,-19.051 -15.15,-32.992 -40.04,-32.992"
         style="fill:#27b6af;fill-opacity:1;fill-rule:nonzero;stroke:none"
         id="path160"
         inkscape:connector-curvature="0" /><path
         d="m 1620.34,192.922 c -35.41,0 -46.8,23.547 -46.8,48.75 0,32.09 16.8,54.59 50.7,54.59 7.2,0 14.85,-0.891 21.45,-2.692 l -2.11,-17.699 c -6.6,1.949 -13.49,2.988 -20.39,2.988 -18.9,0 -28.2,-14.238 -28.2,-33.89 0,-22.047 9.14,-34.348 29.55,-34.348 6.15,0 14.4,1.801 19.65,4.199 l 2.25,-17.41 c -7.5,-2.691 -16.65,-4.488 -26.1,-4.488"
         style="fill:#27b6af;fill-opacity:1;fill-rule:nonzero;stroke:none"
         id="path162"
         inkscape:connector-curvature="0" /><path
         d="m 1672.24,194.27 v 101.25 h 19.5 V 194.27 h -19.5"
         style="fill:#27b6af;fill-opacity:1;fill-rule:nonzero;stroke:none"
         id="path164"
         inkscape:connector-curvature="0" /><path
         d="m 1721.73,194.27 v 101.25 h 55.06 v -16.348 h -35.55 V 254.27 h 33.75 v -15.899 h -33.75 V 210.91 h 35.55 v -16.64 h -55.06"
         style="fill:#27b6af;fill-opacity:1;fill-rule:nonzero;stroke:none"
         id="path166"
         inkscape:connector-curvature="0" /><path
         d="m 1863.33,194.27 -29.7,51.152 c -4.5,7.637 -7.95,15.137 -10.94,21.738 0.6,-8.691 0.89,-24.59 0.89,-36.738 V 194.27 h -18.9 v 101.25 h 25.35 l 28.2,-48.301 c 4.65,-7.797 8.7,-16.207 12.45,-23.848 -0.75,10.199 -1.04,28.199 -1.04,40.649 v 31.5 h 18.9 V 194.27 h -25.21"
         style="fill:#27b6af;fill-opacity:1;fill-rule:nonzero;stroke:none"
         id="path168"
         inkscape:connector-curvature="0" /><path
         d="m 1960.54,192.922 c -35.4,0 -46.81,23.547 -46.81,48.75 0,32.09 16.81,54.59 50.7,54.59 7.2,0 14.86,-0.891 21.46,-2.692 l -2.11,-17.699 c -6.59,1.949 -13.5,2.988 -20.4,2.988 -18.9,0 -28.19,-14.238 -28.19,-33.89 0,-22.047 9.15,-34.348 29.55,-34.348 6.14,0 14.39,1.801 19.64,4.199 l 2.25,-17.41 c -7.5,-2.691 -16.65,-4.488 -26.09,-4.488"
         style="fill:#27b6af;fill-opacity:1;fill-rule:nonzero;stroke:none"
         id="path170"
         inkscape:connector-curvature="0" /><path
         d="m 2012.43,194.27 v 101.25 h 55.05 v -16.348 h -35.55 V 254.27 h 33.75 v -15.899 h -33.75 V 210.91 h 35.55 v -16.64 h -55.05"
         style="fill:#27b6af;fill-opacity:1;fill-rule:nonzero;stroke:none"
         id="path172"
         inkscape:connector-curvature="0" /><path
         d="m 2114.13,192.629 c -7.2,0 -14.39,0.742 -20.7,2.383 l 1.2,18.16 c 5.7,-1.953 13.8,-3.602 21.15,-3.602 9.9,0 17.55,4.051 17.55,13.352 0,19.34 -42.45,10.488 -42.45,43.789 0,18.008 14.26,30.449 38.55,30.449 5.71,0 12.3,-0.738 18.3,-1.789 l -1.05,-17.101 c -5.69,1.652 -12,2.699 -18.14,2.699 -11.25,0 -16.96,-5.098 -16.96,-12.297 0,-18.152 42.6,-11.402 42.6,-43.051 0,-19.051 -15.15,-32.992 -40.05,-32.992"
         style="fill:#27b6af;fill-opacity:1;fill-rule:nonzero;stroke:none"
         id="path174"
         inkscape:connector-curvature="0" /><path
         d="m 2252.88,279.77 c -4.5,0 -8.7,-0.149 -11.85,-0.461 V 211.07 c 2.7,-0.449 6.75,-0.75 10.65,-0.75 19.05,0 32.85,10.801 32.85,34.789 0,21.762 -8.55,34.661 -31.65,34.661 z m -3.15,-86.11 c -10.5,0 -19.65,0.449 -28.2,0.762 v 100.949 c 7.95,0.301 20.25,0.75 32.7,0.75 31.35,0 51.3,-13.961 51.3,-49.5 0,-34.812 -22.81,-52.961 -55.8,-52.961"
         style="fill:#27b6af;fill-opacity:1;fill-rule:nonzero;stroke:none"
         id="path176"
         inkscape:connector-curvature="0" /><path
         d="m 2330.58,194.27 v 101.25 h 55.05 v -16.348 h -35.55 V 254.27 h 33.75 v -15.899 h -33.75 V 210.91 h 35.55 v -16.64 h -55.05"
         style="fill:#27b6af;fill-opacity:1;fill-rule:nonzero;stroke:none"
         id="path178"
         inkscape:connector-curvature="0" /><path
         d="m 2455.22,194.27 v 101.25 h 19.51 v -84.161 h 32.85 V 194.27 h -52.36"
         style="fill:#27b6af;fill-opacity:1;fill-rule:nonzero;stroke:none"
         id="path180"
         inkscape:connector-curvature="0" /><path
         d="m 2522.12,265.371 c 10.35,10.949 10.96,17.399 6.15,22.949 -5.55,6.75 -1.49,18.301 9.01,18.301 14.1,0 20.69,-23.851 -7.21,-48.301 l -7.95,7.051"
         style="fill:#27b6af;fill-opacity:1;fill-rule:nonzero;stroke:none"
         id="path182"
         inkscape:connector-curvature="0" /><path
         d="m 2596.83,302.121 -6.61,10.938 26.25,16.511 7.95,-13.211 z M 2576.27,194.27 v 101.25 h 55.05 v -16.348 h -35.55 V 254.27 h 33.75 v -15.899 h -33.75 V 210.91 h 35.55 v -16.64 h -55.05"
         style="fill:#27b6af;fill-opacity:1;fill-rule:nonzero;stroke:none"
         id="path184"
         inkscape:connector-curvature="0" /><path
         d="m 2690.58,279.77 c -4.51,0 -8.7,-0.149 -11.86,-0.461 V 211.07 c 2.71,-0.449 6.75,-0.75 10.66,-0.75 19.04,0 32.84,10.801 32.84,34.789 0,21.762 -8.55,34.661 -31.64,34.661 z m -3.16,-86.11 c -10.5,0 -19.65,0.449 -28.2,0.762 v 100.949 c 7.95,0.301 20.25,0.75 32.7,0.75 31.35,0 51.3,-13.961 51.3,-49.5 0,-34.812 -22.8,-52.961 -55.8,-52.961"
         style="fill:#27b6af;fill-opacity:1;fill-rule:nonzero;stroke:none"
         id="path186"
         inkscape:connector-curvature="0" /><path
         d="m 2807.42,192.629 c -31.95,0 -39.15,17.383 -39.15,36.742 v 66.149 h 19.5 v -64.961 c 0,-12.739 4.2,-21.739 21,-21.739 15,0 21.3,6.289 21.3,23.551 v 63.149 h 19.35 v -61.95 c 0,-27.75 -15.3,-40.941 -42,-40.941"
         style="fill:#27b6af;fill-opacity:1;fill-rule:nonzero;stroke:none"
         id="path188"
         inkscape:connector-curvature="0" /><path
         d="m 2921.42,192.922 c -35.4,0 -46.8,23.547 -46.8,48.75 0,32.09 16.8,54.59 50.7,54.59 7.2,0 14.85,-0.891 21.45,-2.692 l -2.1,-17.699 c -6.6,1.949 -13.5,2.988 -20.4,2.988 -18.9,0 -28.2,-14.238 -28.2,-33.89 0,-22.047 9.15,-34.348 29.56,-34.348 6.14,0 14.39,1.801 19.64,4.199 l 2.25,-17.41 c -7.5,-2.691 -16.65,-4.488 -26.1,-4.488"
         style="fill:#27b6af;fill-opacity:1;fill-rule:nonzero;stroke:none"
         id="path190"
         inkscape:connector-curvature="0" /><path
         d="m 3013.37,256.969 c -1.95,5.543 -3.45,10.5 -4.65,16.203 h -0.16 c -1.19,-5.25 -2.84,-11.102 -4.79,-16.953 l -9.15,-25.797 h 28.2 z m 21.6,-62.699 -7.05,20.699 h -38.25 l -7.05,-20.699 h -19.65 l 35.4,101.25 h 22.05 l 36.15,-101.25 h -21.6"
         style="fill:#27b6af;fill-opacity:1;fill-rule:nonzero;stroke:none"
         id="path192"
         inkscape:connector-curvature="0" /><path
         d="M 3113.72,278.859 V 194.27 h -19.5 v 84.589 h -26.25 v 16.661 h 72 v -16.661 h -26.25"
         style="fill:#27b6af;fill-opacity:1;fill-rule:nonzero;stroke:none"
         id="path194"
         inkscape:connector-curvature="0" /><path
         d="m 3161.72,194.27 v 101.25 h 19.5 V 194.27 h -19.5"
         style="fill:#27b6af;fill-opacity:1;fill-rule:nonzero;stroke:none"
         id="path196"
         inkscape:connector-curvature="0" /><path
         d="m 3253.37,279.621 c -13.96,0 -26.86,-11.101 -26.86,-33.902 0,-21.449 8.4,-35.399 26.56,-35.399 13.2,0 27.29,10.2 27.29,34.5 0,22.5 -9.6,34.801 -26.99,34.801 z m -1.65,-86.992 c -30.91,0 -46.06,19.633 -46.06,50.992 0,33.449 22.36,53.539 49.51,53.539 27,0 46.05,-16.191 46.05,-50.84 0,-33.449 -22.05,-53.691 -49.5,-53.691"
         style="fill:#27b6af;fill-opacity:1;fill-rule:nonzero;stroke:none"
         id="path198"
         inkscape:connector-curvature="0" /><path
         d="m 3384.32,194.27 -29.71,51.152 c -4.49,7.637 -7.95,15.137 -10.95,21.738 0.61,-8.691 0.9,-24.59 0.9,-36.738 V 194.27 h -18.9 v 101.25 h 25.36 l 28.19,-48.301 c 4.66,-7.797 8.7,-16.207 12.45,-23.848 -0.74,10.199 -1.04,28.199 -1.04,40.649 v 31.5 h 18.89 V 194.27 h -25.19"
         style="fill:#27b6af;fill-opacity:1;fill-rule:nonzero;stroke:none"
         id="path200"
         inkscape:connector-curvature="0" /></g></g></svg>