<?xml version="1.0" encoding="UTF-8" standalone="no"?>
<!-- Created with Inkscape (http://www.inkscape.org/) -->

<svg
   xmlns:dc="http://purl.org/dc/elements/1.1/"
   xmlns:cc="http://creativecommons.org/ns#"
   xmlns:rdf="http://www.w3.org/1999/02/22-rdf-syntax-ns#"
   xmlns:svg="http://www.w3.org/2000/svg"
   xmlns="http://www.w3.org/2000/svg"
   xmlns:sodipodi="http://sodipodi.sourceforge.net/DTD/sodipodi-0.dtd"
   xmlns:inkscape="http://www.inkscape.org/namespaces/inkscape"
   version="1.1"
   id="svg2"
   xml:space="preserve"
   width="913.54669"
   height="414.84"
   viewBox="0 0 913.54669 414.84"
   sodipodi:docname="logo_tecfa_trace.svg"
   inkscape:version="0.92.3 (2405546, 2018-03-11)"><metadata
     id="metadata8"><rdf:RDF><cc:Work
         rdf:about=""><dc:format>image/svg+xml</dc:format><dc:type
           rdf:resource="http://purl.org/dc/dcmitype/StillImage" /><dc:title></dc:title></cc:Work></rdf:RDF></metadata><defs
     id="defs6" /><sodipodi:namedview
     pagecolor="#ffffff"
     bordercolor="#666666"
     borderopacity="1"
     objecttolerance="10"
     gridtolerance="10"
     guidetolerance="10"
     inkscape:pageopacity="0"
     inkscape:pageshadow="2"
     inkscape:window-width="640"
     inkscape:window-height="480"
     id="namedview4"
     showgrid="false"
     inkscape:zoom="0.38968999"
     inkscape:cx="456.77335"
     inkscape:cy="207.42"
     inkscape:window-x="0"
     inkscape:window-y="0"
     inkscape:window-maximized="0"
     inkscape:current-layer="g10" /><g
     id="g10"
     inkscape:groupmode="layer"
     inkscape:label="ink_ext_XXXXXX"
     transform="matrix(1.3333333,0,0,-1.3333333,0,414.84)"><g
       id="g12"
       transform="scale(0.1)"><path
         d="m 2803.03,2953.52 h 278.43 v -420.43 h 172.02 v -218.36 h -172.02 v -767.19 c 0,-32.74 3.17,-58.24 9.56,-76.41 6.38,-18.2 16.4,-31.87 30.05,-40.93 13.66,-9.15 31.41,-14.61 53.23,-16.41 21.83,-1.84 48.2,-2.7 79.18,-2.7 v -262.11 h -114.65 c -63.75,0 -116.99,9.97 -159.73,30 -42.77,20.04 -76.91,45.47 -102.36,76.49 -25.53,30.94 -44.18,65.9 -55.96,105.12 -11.89,39.06 -17.75,76.79 -17.75,113.24 v 840.9 h -139.22 v 218.36 h 139.22 z"
         style="fill:none;stroke:#000000;stroke-width:10;stroke-linecap:butt;stroke-linejoin:miter;stroke-miterlimit:10;stroke-dasharray:none;stroke-opacity:1"
         id="path14"
         inkscape:connector-curvature="0" /><path
         d="m 3641.13,1954.3 h 272.97 v 158.4 c 0,52.73 -12.26,92.34 -36.81,118.71 -24.61,26.36 -57.84,39.61 -99.67,39.61 -41.9,0 -75.06,-13.25 -99.65,-39.61 -24.57,-26.37 -36.84,-65.98 -36.84,-118.71 z m 0,-218.36 v -188.4 c 0,-43.63 12.27,-77.34 36.84,-101.02 24.59,-23.67 57.75,-35.43 99.65,-35.43 52.77,0 87.77,15.39 105.11,46.41 17.29,30.86 27.72,61.8 31.37,92.81 h 278.48 c 0,-58.32 -9.55,-112.93 -28.65,-163.83 -19.11,-50.97 -46.88,-94.64 -83.27,-131.01 -36.44,-38.2 -80.11,-68.28 -131.07,-90.12 -50.98,-21.8 -108.28,-32.77 -171.97,-32.77 -85.55,0 -159.26,18.16 -221.14,54.61 -61.87,36.4 -109.18,84.61 -141.97,144.68 -20.04,36.37 -33.69,78.29 -40.92,125.63 -7.3,47.27 -10.93,99.14 -10.93,155.55 v 455.93 c 0,56.41 3.63,108.29 10.93,155.63 7.23,47.27 20.88,89.18 40.92,125.55 32.79,60.07 80.1,108.28 141.97,144.72 61.88,36.41 135.59,54.57 221.14,54.57 63.69,0 121.46,-10.9 173.36,-32.77 51.87,-21.8 95.52,-52.3 131.03,-91.41 35.51,-39.18 62.81,-85.11 81.92,-137.85 19.1,-52.85 28.65,-109.22 28.65,-169.29 v -382.19 z"
         style="fill:none;stroke:#000000;stroke-width:10;stroke-linecap:butt;stroke-linejoin:miter;stroke-miterlimit:10;stroke-dasharray:none;stroke-opacity:1"
         id="path16"
         inkscape:connector-curvature="0" /><path
         d="m 4610.23,1547.54 c 0,-43.63 12.31,-77.34 36.86,-101.02 24.59,-23.67 57.77,-35.43 99.67,-35.43 52.77,0 87.77,15.39 105.12,46.41 17.26,30.86 27.71,61.8 31.36,92.81 h 278.48 c 0,-58.32 -9.55,-112.93 -28.65,-163.83 -19.12,-50.97 -46.9,-94.64 -83.3,-131.01 -36.41,-38.2 -80.08,-68.28 -131.04,-90.12 -50.98,-21.8 -108.28,-32.77 -171.97,-32.77 -85.59,0 -159.3,18.16 -221.13,54.61 -61.92,36.4 -109.22,84.61 -141.98,144.68 -20.04,36.37 -33.69,78.29 -40.95,125.63 -7.27,47.27 -10.9,99.14 -10.9,155.55 v 455.93 c 0,56.41 3.63,108.29 10.9,155.63 7.26,47.27 20.91,89.18 40.95,125.55 32.76,60.07 80.06,108.28 141.98,144.72 61.83,36.41 135.54,54.57 221.13,54.57 63.69,0 121.46,-10.9 173.36,-32.77 51.87,-21.8 95.52,-52.3 131.03,-91.41 35.49,-39.18 62.8,-86.01 81.92,-140.62 19.1,-54.61 28.65,-113.79 28.65,-177.42 h -278.48 c 0,56.36 -12.26,97.81 -36.83,124.18 -24.59,26.36 -57.82,39.61 -99.65,39.61 -41.9,0 -75.08,-13.25 -99.67,-39.61 -24.55,-26.37 -36.86,-65.98 -36.86,-118.71 z"
         style="fill:none;stroke:#000000;stroke-width:10;stroke-linecap:butt;stroke-linejoin:miter;stroke-miterlimit:10;stroke-dasharray:none;stroke-opacity:1"
         id="path18"
         inkscape:connector-curvature="0" /><path
         d="m 5391,2314.73 h -136.47 v 218.36 H 5391 v 188.39 c 0,67.31 10.02,124.22 30.05,170.63 19.99,46.41 46.82,84.61 80.51,114.65 33.69,30 71.9,51.87 114.67,65.51 42.75,13.67 86.9,20.46 132.42,20.46 h 128.32 v -262.1 h -125.6 c -54.61,0 -81.88,-31.8 -81.88,-95.51 v -202.03 h 207.48 V 2314.73 H 5669.49 V 1148.98 H 5391 Z"
         style="fill:none;stroke:#000000;stroke-width:10;stroke-linecap:butt;stroke-linejoin:miter;stroke-miterlimit:10;stroke-dasharray:none;stroke-opacity:1"
         id="path20"
         inkscape:connector-curvature="0" /><path
         d="m 6515.7,1744.14 c -30.93,5.43 -56.42,8.2 -76.4,8.2 -60.06,0 -111.51,-14.14 -154.28,-42.38 -42.77,-28.24 -64.12,-79.61 -64.12,-154.22 0,-52.77 12.69,-95.54 38.22,-128.32 25.43,-32.73 60.94,-49.14 106.47,-49.14 47.28,0 84.14,15.47 110.56,46.45 26.37,30.89 39.55,74.61 39.55,131.01 z m 0,-453.16 h -5.45 c -36.42,-50.98 -73.26,-90.12 -110.56,-117.43 -37.33,-27.3 -89.65,-40.97 -156.98,-40.97 -32.75,0 -66.44,5.04 -101.01,15 -34.57,10.04 -66.86,28.24 -96.91,54.61 -30,26.36 -54.59,63.71 -73.72,111.99 -19.1,48.16 -28.65,110.55 -28.65,186.95 0,78.24 6.37,146.96 19.1,206.14 12.72,59.14 35.92,108.24 69.61,147.42 33.69,39.1 78.71,68.28 135.16,87.38 56.39,19.1 128.32,28.63 215.64,28.63 20.04,0 40.02,-0.93 60.1,-2.73 20,-1.84 44.55,-3.63 73.67,-5.47 v 144.73 c 0,47.3 -10.02,86.36 -30,117.38 -20.04,30.94 -56.42,46.41 -109.22,46.41 -36.4,0 -69.6,-11.84 -99.64,-35.51 -30.02,-23.67 -49.59,-58.24 -58.68,-103.71 h -270.29 c 9.08,125.54 50.96,225.62 125.61,300.27 36.36,36.41 80.06,65.04 131.03,86.02 50.92,20.86 108.26,31.36 171.97,31.36 58.25,0 112.86,-9.1 163.83,-27.26 50.92,-18.21 95.08,-45.51 132.39,-81.92 37.3,-36.44 66.89,-81.91 88.75,-136.52 21.83,-54.61 32.75,-118.28 32.75,-191.05 v -963.72 h -278.5 z"
         style="fill:none;stroke:#000000;stroke-width:10;stroke-linecap:butt;stroke-linejoin:miter;stroke-miterlimit:10;stroke-dasharray:none;stroke-opacity:1"
         id="path22"
         inkscape:connector-curvature="0" /><path
         d="m 2853.89,906.762 h -60.18 v 48.957 h 172.38 v -48.957 h -60.17 v -314.18 h -52.03 z"
         style="fill:none;stroke:#000000;stroke-width:10;stroke-linecap:butt;stroke-linejoin:miter;stroke-miterlimit:10;stroke-dasharray:none;stroke-opacity:1"
         id="path24"
         inkscape:connector-curvature="0" /><path
         d="m 3001.78,743.051 h 51.03 v 29.609 c 0,9.84 -2.3,17.219 -6.91,22.16 -4.57,4.93 -10.78,7.391 -18.6,7.391 -7.83,0 -14.04,-2.461 -18.61,-7.391 -4.59,-4.941 -6.91,-12.32 -6.91,-22.16 z m 0,-40.801 v -35.18 c 0,-8.16 2.32,-14.488 6.91,-18.871 4.57,-4.429 10.78,-6.64 18.61,-6.64 9.87,0 16.41,2.89 19.61,8.671 3.27,5.79 5.2,11.571 5.9,17.352 h 51.99 c 0,-10.902 -1.77,-21.102 -5.35,-30.613 -3.57,-9.508 -8.73,-17.668 -15.52,-24.469 -6.82,-7.148 -15,-12.77 -24.5,-16.84 -9.55,-4.058 -20.25,-6.129 -32.13,-6.129 -15.97,0 -29.74,3.399 -41.32,10.199 -11.57,6.79 -20.41,15.821 -26.51,27.051 -3.75,6.789 -6.31,14.629 -7.67,23.449 -1.35,8.872 -2.03,18.52 -2.03,29.071 v 85.168 c 0,10.531 0.68,20.261 2.03,29.082 1.36,8.828 3.92,16.648 7.67,23.437 6.1,11.231 14.94,20.242 26.51,27.032 11.58,6.8 25.35,10.218 41.32,10.218 11.88,0 22.7,-2.047 32.37,-6.117 9.71,-4.101 17.87,-9.801 24.49,-17.101 6.62,-7.309 11.72,-15.899 15.29,-25.75 3.58,-9.86 5.35,-20.391 5.35,-31.641 V 702.25 Z"
         style="fill:none;stroke:#000000;stroke-width:10;stroke-linecap:butt;stroke-linejoin:miter;stroke-miterlimit:10;stroke-dasharray:none;stroke-opacity:1"
         id="path26"
         inkscape:connector-curvature="0" /><path
         d="m 3190.51,667.07 c 0,-8.16 2.28,-14.488 6.85,-18.871 4.63,-4.429 10.8,-6.64 18.64,-6.64 9.84,0 16.4,2.89 19.63,8.671 3.22,5.79 5.19,11.571 5.85,17.352 h 52.04 c 0,-10.902 -1.8,-21.102 -5.34,-30.613 -3.57,-9.508 -8.79,-17.668 -15.58,-24.469 -6.8,-7.148 -14.94,-12.77 -24.47,-16.84 -9.52,-4.058 -20.24,-6.129 -32.13,-6.129 -16,0 -29.77,3.399 -41.31,10.199 -11.55,6.79 -20.39,15.821 -26.53,27.051 -3.75,6.789 -6.28,14.629 -7.63,23.449 -1.39,8.872 -2.05,18.52 -2.05,29.071 v 85.168 c 0,10.531 0.66,20.261 2.05,29.082 1.35,8.828 3.88,16.648 7.63,23.437 6.14,11.231 14.98,20.242 26.53,27.032 11.54,6.8 25.31,10.218 41.31,10.218 11.89,0 22.71,-2.047 32.4,-6.117 9.67,-4.101 17.85,-9.801 24.45,-17.101 6.66,-7.309 11.76,-16.059 15.33,-26.25 3.54,-10.2 5.34,-21.25 5.34,-33.168 h -52.04 c 0,10.546 -2.28,18.277 -6.85,23.218 -4.59,4.93 -10.8,7.391 -18.63,7.391 -7.84,0 -14.01,-2.461 -18.64,-7.391 -4.57,-4.941 -6.85,-12.32 -6.85,-22.16 z"
         style="fill:none;stroke:#000000;stroke-width:10;stroke-linecap:butt;stroke-linejoin:miter;stroke-miterlimit:10;stroke-dasharray:none;stroke-opacity:1"
         id="path28"
         inkscape:connector-curvature="0" /><path
         d="m 3318.01,955.719 h 52.03 V 826.211 h 1 c 5.44,8.129 11.97,14.84 19.62,20.121 7.68,5.27 17.43,7.906 29.34,7.906 6.46,0 12.91,-1.117 19.36,-3.297 6.46,-2.23 12.24,-5.859 17.34,-10.98 5.1,-5.082 9.2,-11.641 12.25,-19.652 3.08,-8.008 4.6,-17.77 4.6,-29.329 V 592.582 h -52.01 v 179.02 c 0,9.527 -2.22,17.007 -6.66,22.418 -4.41,5.468 -10.68,8.191 -18.86,8.191 -9.87,0 -16.66,-3.07 -20.41,-9.16 -3.73,-6.141 -5.57,-14.981 -5.57,-26.571 V 592.582 h -52.03 z"
         style="fill:none;stroke:#000000;stroke-width:10;stroke-linecap:butt;stroke-linejoin:miter;stroke-miterlimit:10;stroke-dasharray:none;stroke-opacity:1"
         id="path30"
         inkscape:connector-curvature="0" /><path
         d="m 3513.83,851.172 h 52.03 v -24.961 h 1 c 5.44,8.129 12.01,14.84 19.66,20.121 7.64,5.27 17.43,7.906 29.32,7.906 6.45,0 12.89,-1.117 19.36,-3.297 6.48,-2.23 12.26,-5.859 17.34,-10.98 5.12,-5.082 9.18,-11.641 12.26,-19.652 3.07,-8.008 4.59,-17.77 4.59,-29.329 V 592.582 h -52.03 v 179.02 c 0,9.527 -2.22,17.007 -6.62,22.418 -4.45,5.468 -10.72,8.191 -18.86,8.191 -9.89,0 -16.68,-3.07 -20.43,-9.16 -3.72,-6.141 -5.59,-14.981 -5.59,-26.571 V 592.582 h -52.03 z"
         style="fill:none;stroke:#000000;stroke-width:10;stroke-linecap:butt;stroke-linejoin:miter;stroke-miterlimit:10;stroke-dasharray:none;stroke-opacity:1"
         id="path32"
         inkscape:connector-curvature="0" /><path
         d="m 3757.11,671.172 c 0,-9.922 2.28,-17.301 6.85,-22.223 4.63,-4.929 10.81,-7.39 18.64,-7.39 7.83,0 14,2.461 18.63,7.39 4.57,4.922 6.86,12.301 6.86,22.223 V 772.66 c 0,9.84 -2.29,17.219 -6.86,22.16 -4.63,4.93 -10.8,7.391 -18.63,7.391 -7.83,0 -14.01,-2.461 -18.64,-7.391 -4.57,-4.941 -6.85,-12.32 -6.85,-22.16 z m -52.03,93.297 c 0,10.531 0.66,20.261 2.05,29.082 1.35,8.828 3.89,16.648 7.62,23.437 6.15,11.231 15,20.242 26.54,27.032 11.54,6.8 25.31,10.218 41.31,10.218 15.99,0 29.76,-3.418 41.31,-10.218 11.54,-6.79 20.39,-15.801 26.52,-27.032 3.75,-6.789 6.29,-14.609 7.64,-23.437 1.34,-8.821 2.05,-18.551 2.05,-29.082 v -85.168 c 0,-10.551 -0.71,-20.199 -2.05,-29.071 -1.35,-8.82 -3.89,-16.66 -7.64,-23.449 -6.13,-11.23 -14.98,-20.261 -26.52,-27.051 -11.55,-6.8 -25.32,-10.199 -41.31,-10.199 -16,0 -29.77,3.399 -41.31,10.199 -11.54,6.79 -20.39,15.821 -26.54,27.051 -3.73,6.789 -6.27,14.629 -7.62,23.449 -1.39,8.872 -2.05,18.52 -2.05,29.071 z"
         style="fill:none;stroke:#000000;stroke-width:10;stroke-linecap:butt;stroke-linejoin:miter;stroke-miterlimit:10;stroke-dasharray:none;stroke-opacity:1"
         id="path34"
         inkscape:connector-curvature="0" /><path
         d="m 3892.75,955.719 h 52.04 V 665.551 c 0,-9.891 1.75,-16.602 5.33,-20.16 3.57,-3.59 10.31,-5.86 20.15,-6.891 v -48.969 c -11.89,0 -22.67,0.938 -32.38,2.809 -9.69,1.879 -17.83,5.469 -24.49,10.75 -6.6,5.23 -11.72,12.648 -15.27,22.14 -3.6,9.54 -5.38,21.758 -5.38,36.719 z"
         style="fill:none;stroke:#000000;stroke-width:10;stroke-linecap:butt;stroke-linejoin:miter;stroke-miterlimit:10;stroke-dasharray:none;stroke-opacity:1"
         id="path36"
         inkscape:connector-curvature="0" /><path
         d="m 4038.09,671.172 c 0,-9.922 2.32,-17.301 6.89,-22.223 4.59,-4.929 10.78,-7.39 18.63,-7.39 7.8,0 14.01,2.461 18.62,7.39 4.59,4.922 6.87,12.301 6.87,22.223 V 772.66 c 0,9.84 -2.28,17.219 -6.87,22.16 -4.61,4.93 -10.82,7.391 -18.62,7.391 -7.85,0 -14.04,-2.461 -18.63,-7.391 -4.57,-4.941 -6.89,-12.32 -6.89,-22.16 z m -52,93.297 c 0,10.531 0.65,20.261 2.04,29.082 1.36,8.828 3.88,16.648 7.63,23.437 6.12,11.231 14.98,20.242 26.54,27.032 11.55,6.8 25.32,10.218 41.31,10.218 15.96,0 29.75,-3.418 41.31,-10.218 11.54,-6.79 20.39,-15.801 26.49,-27.032 3.75,-6.789 6.32,-14.609 7.67,-23.437 1.35,-8.821 2.05,-18.551 2.05,-29.082 v -85.168 c 0,-10.551 -0.7,-20.199 -2.05,-29.071 -1.35,-8.82 -3.92,-16.66 -7.67,-23.449 -6.1,-11.23 -14.95,-20.261 -26.49,-27.051 -11.56,-6.8 -25.35,-10.199 -41.31,-10.199 -15.99,0 -29.76,3.399 -41.31,10.199 -11.56,6.79 -20.42,15.821 -26.54,27.051 -3.75,6.789 -6.27,14.629 -7.63,23.449 -1.39,8.872 -2.04,18.52 -2.04,29.071 z"
         style="fill:none;stroke:#000000;stroke-width:10;stroke-linecap:butt;stroke-linejoin:miter;stroke-miterlimit:10;stroke-dasharray:none;stroke-opacity:1"
         id="path38"
         inkscape:connector-curvature="0" /><path
         d="m 4231.41,672.148 c 0,-8.128 1.77,-15.277 5.35,-21.41 3.57,-6.129 10.25,-9.179 20.12,-9.179 7.48,0 13.69,2.66 18.61,7.929 4.92,5.282 7.4,11.961 7.4,20.121 v 100.473 c 0,9.527 -2.36,17.258 -7.15,23.199 -4.76,5.981 -11.03,8.93 -18.86,8.93 -8.83,0 -15.28,-3.231 -19.36,-9.711 -4.1,-6.449 -6.11,-14.918 -6.11,-25.469 z m 0,-109.609 c 0.31,-6.168 2.77,-11.918 7.38,-17.34 4.59,-5.469 11.29,-8.187 20.16,-8.187 8.45,0 14.6,2.636 18.35,7.91 3.72,5.277 5.59,11.988 5.59,20.117 v 51.051 h -1.01 c -5.81,-8.531 -12.66,-15.07 -20.67,-19.66 -7.99,-4.59 -17.25,-6.899 -27.79,-6.899 -21.43,0 -36.56,8.168 -45.37,24.489 -3.09,5.781 -5.28,12.89 -6.64,21.429 -1.37,8.461 -2.03,19.903 -2.03,34.16 v 98.442 c 0,18.687 0.48,32.461 1.54,41.308 0.99,8.801 3.22,15.95 6.62,21.422 4.39,6.801 10.12,12.418 17.07,16.801 6.95,4.43 16.74,6.656 29.34,6.656 6.44,0 11.99,-0.687 16.58,-2.047 4.57,-1.371 8.73,-3.242 12.48,-5.589 3.75,-2.422 7.15,-5.231 10.19,-8.442 3.05,-3.238 6.29,-6.711 9.69,-10.43 v 23.442 h 52.01 V 560.98 c 0,-8.832 -1.42,-17.761 -4.33,-26.761 -2.87,-9.02 -7.56,-17.149 -14.01,-24.489 -6.44,-7.308 -14.61,-13.269 -24.49,-17.859 -9.84,-4.57 -21.6,-6.871 -35.19,-6.871 -7.82,0 -15.96,1.27 -24.46,3.832 -8.49,2.539 -16.4,6.789 -23.73,12.727 -7.32,5.941 -13.59,13.871 -18.87,23.711 -5.27,9.89 -8.77,22.289 -10.44,37.269 z"
         style="fill:none;stroke:#000000;stroke-width:10;stroke-linecap:butt;stroke-linejoin:miter;stroke-miterlimit:10;stroke-dasharray:none;stroke-opacity:1"
         id="path40"
         inkscape:connector-curvature="0" /><path
         d="m 4377.73,851.172 h 52.04 v -258.59 h -52.04 z m 0,104.547 h 52.04 v -52.008 h -52.04 z"
         style="fill:none;stroke:#000000;stroke-width:10;stroke-linecap:butt;stroke-linejoin:miter;stroke-miterlimit:10;stroke-dasharray:none;stroke-opacity:1"
         id="path42"
         inkscape:connector-curvature="0" /><path
         d="m 4517.48,743.051 h 50.98 v 29.609 c 0,9.84 -2.29,17.219 -6.86,22.16 -4.63,4.93 -10.82,7.391 -18.63,7.391 -7.81,0 -14.01,-2.461 -18.63,-7.391 -4.57,-4.941 -6.86,-12.32 -6.86,-22.16 z m 0,-40.801 v -35.18 c 0,-8.16 2.29,-14.488 6.86,-18.871 4.62,-4.429 10.82,-6.64 18.63,-6.64 9.84,0 16.41,2.89 19.63,8.671 3.22,5.79 5.17,11.571 5.86,17.352 h 52.03 c 0,-10.902 -1.78,-21.102 -5.37,-30.613 -3.54,-9.508 -8.75,-17.668 -15.55,-24.469 -6.8,-7.148 -14.94,-12.77 -24.49,-16.84 -9.49,-4.058 -20.22,-6.129 -32.11,-6.129 -16,0 -29.77,3.399 -41.31,10.199 -11.54,6.79 -20.39,15.821 -26.54,27.051 -3.71,6.789 -6.27,14.629 -7.62,23.449 -1.37,8.872 -2.05,18.52 -2.05,29.071 v 85.168 c 0,10.531 0.68,20.261 2.05,29.082 1.35,8.828 3.91,16.648 7.62,23.437 6.15,11.231 15,20.242 26.54,27.032 11.54,6.8 25.31,10.218 41.31,10.218 11.89,0 22.67,-2.047 32.4,-6.117 9.67,-4.101 17.81,-9.801 24.47,-17.101 6.64,-7.309 11.74,-15.899 15.28,-25.75 3.59,-9.86 5.37,-20.391 5.37,-31.641 V 702.25 Z"
         style="fill:none;stroke:#000000;stroke-width:10;stroke-linecap:butt;stroke-linejoin:miter;stroke-miterlimit:10;stroke-dasharray:none;stroke-opacity:1"
         id="path44"
         inkscape:connector-curvature="0" /><path
         d="m 4745.43,778.75 c -0.31,8.832 -3.13,15.469 -8.4,19.922 -5.27,4.379 -11.31,6.598 -18.1,6.598 -8.15,0 -14.48,-2.61 -18.87,-7.891 -4.43,-5.27 -6.62,-11.328 -6.62,-18.117 0,-4.774 1.17,-9.422 3.57,-14.032 2.35,-4.609 8.5,-8.75 18.34,-12.5 l 30.59,-12.218 c 19.39,-7.461 32.75,-17.66 40.04,-30.633 7.3,-12.91 10.99,-26.988 10.99,-42.297 0,-10.902 -1.99,-21 -5.88,-30.352 -3.9,-9.378 -9.25,-17.601 -16.05,-24.73 -6.84,-7.148 -14.98,-12.77 -24.49,-16.84 -9.53,-4.058 -19.91,-6.129 -31.1,-6.129 -10.23,0 -19.92,1.719 -29.1,5.117 -9.16,3.403 -17.24,8.321 -24.22,14.782 -6.97,6.468 -12.65,14.531 -17.07,24.242 -4.43,9.648 -6.83,20.976 -7.13,33.91 h 48.93 c 1.05,-7.152 3.52,-13.75 7.42,-19.922 3.89,-6.101 10.78,-9.16 20.65,-9.16 7.48,0 14.18,2.48 20.15,7.398 5.92,4.922 8.91,11.801 8.91,20.622 0,7.152 -1.88,13.32 -5.63,18.402 -3.73,5.117 -10.52,9.488 -20.39,13.238 l -24.96,9.219 c -16.35,6.101 -29.18,15.16 -38.53,27.23 -9.34,12.071 -14.03,26.801 -14.03,44.141 0,10.898 2.05,21 6.14,30.352 4.06,9.378 9.61,17.347 16.56,23.949 6.95,6.64 15.04,11.828 24.24,15.578 9.16,3.73 19.04,5.609 29.59,5.609 10.5,0 20.31,-1.968 29.29,-5.879 9.03,-3.91 16.76,-9.14 23.21,-15.8 6.48,-6.661 11.56,-14.629 15.31,-23.969 3.73,-9.328 5.6,-19.289 5.6,-29.84 z"
         style="fill:none;stroke:#000000;stroke-width:10;stroke-linecap:butt;stroke-linejoin:miter;stroke-miterlimit:10;stroke-dasharray:none;stroke-opacity:1"
         id="path46"
         inkscape:connector-curvature="0" /><path
         d="m 4967.3,676.762 c 0,-10.551 2.04,-19.063 6.1,-25.512 4.1,-6.449 10.55,-9.691 19.39,-9.691 7.8,0 14.09,2.972 18.87,8.91 4.75,5.961 7.15,13.711 7.15,23.203 V 774.18 c 0,8.121 -2.48,14.879 -7.4,20.16 -4.96,5.23 -11.14,7.871 -18.62,7.871 -9.86,0 -16.58,-3.07 -20.15,-9.16 -3.58,-6.141 -5.34,-13.281 -5.34,-21.449 z m 51.51,-60.672 c -3.4,-3.75 -6.66,-7.258 -9.73,-10.5 -3.04,-3.211 -6.44,-6.02 -10.19,-8.399 -3.75,-2.39 -7.97,-4.261 -12.72,-5.589 -4.8,-1.372 -10.39,-2.071 -16.83,-2.071 -21.43,0 -36.57,8.168 -45.39,24.489 -3.09,5.781 -5.28,12.89 -6.63,21.429 -1.38,8.461 -2.05,19.903 -2.05,34.16 v 98.442 c 0,18.687 0.51,32.461 1.53,41.308 0.99,8.801 3.22,15.95 6.62,21.422 4.43,6.801 10.13,12.418 17.11,16.801 6.93,4.43 16.74,6.656 29.29,6.656 10.2,0 19.32,-2.328 27.31,-6.898 7.97,-4.59 14.86,-11.129 20.62,-19.61 h 1.06 v 127.989 h 52.01 V 592.582 h -52.01 z"
         style="fill:none;stroke:#000000;stroke-width:10;stroke-linecap:butt;stroke-linejoin:miter;stroke-miterlimit:10;stroke-dasharray:none;stroke-opacity:1"
         id="path48"
         inkscape:connector-curvature="0" /><path
         d="m 5158.52,743.051 h 51.01 v 29.609 c 0,9.84 -2.28,17.219 -6.87,22.16 -4.61,4.93 -10.82,7.391 -18.62,7.391 -7.85,0 -14.04,-2.461 -18.63,-7.391 -4.57,-4.941 -6.89,-12.32 -6.89,-22.16 z m 0,-40.801 v -35.18 c 0,-8.16 2.32,-14.488 6.89,-18.871 4.59,-4.429 10.78,-6.64 18.63,-6.64 9.85,0 16.41,2.89 19.63,8.671 3.22,5.79 5.16,11.571 5.86,17.352 h 52.03 c 0,-10.902 -1.81,-21.102 -5.39,-30.613 -3.55,-9.508 -8.73,-17.668 -15.53,-24.469 -6.79,-7.148 -14.98,-12.77 -24.49,-16.84 -9.51,-4.058 -20.21,-6.129 -32.11,-6.129 -15.99,0 -29.76,3.399 -41.31,10.199 -11.56,6.79 -20.43,15.821 -26.54,27.051 -3.75,6.789 -6.27,14.629 -7.64,23.449 -1.38,8.872 -2.03,18.52 -2.03,29.071 v 85.168 c 0,10.531 0.65,20.261 2.03,29.082 1.37,8.828 3.89,16.648 7.64,23.437 6.11,11.231 14.98,20.242 26.54,27.032 11.55,6.8 25.32,10.218 41.31,10.218 11.9,0 22.68,-2.047 32.37,-6.117 9.7,-4.101 17.85,-9.801 24.47,-17.101 6.66,-7.309 11.74,-15.899 15.29,-25.75 3.58,-9.86 5.39,-20.391 5.39,-31.641 V 702.25 Z"
         style="fill:none;stroke:#000000;stroke-width:10;stroke-linecap:butt;stroke-linejoin:miter;stroke-miterlimit:10;stroke-dasharray:none;stroke-opacity:1"
         id="path50"
         inkscape:connector-curvature="0" /><path
         d="m 5385.96,810.391 h -25.49 v 40.781 h 25.49 v 35.199 c 0,12.539 1.87,23.199 5.62,31.867 3.75,8.672 8.73,15.801 15.06,21.41 6.27,5.622 13.42,9.723 21.39,12.223 7.99,2.578 16.23,3.848 24.74,3.848 h 23.99 v -48.957 h -23.48 c -10.19,0 -15.29,-5.981 -15.29,-17.852 v -37.738 h 38.77 v -40.781 h -38.77 V 592.582 h -52.03 z"
         style="fill:none;stroke:#000000;stroke-width:10;stroke-linecap:butt;stroke-linejoin:miter;stroke-miterlimit:10;stroke-dasharray:none;stroke-opacity:1"
         id="path52"
         inkscape:connector-curvature="0" /><path
         d="m 5537.42,671.172 c 0,-9.922 2.31,-17.301 6.92,-22.223 4.57,-4.929 10.78,-7.39 18.59,-7.39 7.83,0 14.04,2.461 18.61,7.39 4.59,4.922 6.92,12.301 6.92,22.223 V 772.66 c 0,9.84 -2.33,17.219 -6.92,22.16 -4.57,4.93 -10.78,7.391 -18.61,7.391 -7.81,0 -14.02,-2.461 -18.59,-7.391 -4.61,-4.941 -6.92,-12.32 -6.92,-22.16 z m -51.99,93.297 c 0,10.531 0.66,20.261 2.01,29.082 1.39,8.828 3.93,16.648 7.68,23.437 6.09,11.231 14.94,20.242 26.52,27.032 11.56,6.8 25.33,10.218 41.29,10.218 15.98,0 29.75,-3.418 41.33,-10.218 11.56,-6.79 20.41,-15.801 26.5,-27.032 3.75,-6.789 6.31,-14.609 7.68,-23.437 1.35,-8.821 2.03,-18.551 2.03,-29.082 v -85.168 c 0,-10.551 -0.68,-20.199 -2.03,-29.071 -1.37,-8.82 -3.93,-16.66 -7.68,-23.449 -6.09,-11.23 -14.94,-20.261 -26.5,-27.051 -11.58,-6.8 -25.35,-10.199 -41.33,-10.199 -15.96,0 -29.73,3.399 -41.29,10.199 -11.58,6.79 -20.43,15.821 -26.52,27.051 -3.75,6.789 -6.29,14.629 -7.68,23.449 -1.35,8.872 -2.01,18.52 -2.01,29.071 z"
         style="fill:none;stroke:#000000;stroke-width:10;stroke-linecap:butt;stroke-linejoin:miter;stroke-miterlimit:10;stroke-dasharray:none;stroke-opacity:1"
         id="path54"
         inkscape:connector-curvature="0" /><path
         d="m 5673.59,851.172 h 52.04 v -27.543 c 10.54,9.512 20.91,16.992 31.11,22.422 10.19,5.469 22.79,8.187 37.73,8.187 v -55.097 c -5.09,2.031 -10.37,3.07 -15.82,3.07 -5.41,0 -11.31,-0.941 -17.58,-2.801 -6.3,-1.871 -12.07,-5.039 -17.34,-9.41 -5.27,-4.449 -9.61,-10.23 -13.01,-17.34 -3.4,-7.148 -5.09,-16.019 -5.09,-26.57 V 592.582 h -52.04 z"
         style="fill:none;stroke:#000000;stroke-width:10;stroke-linecap:butt;stroke-linejoin:miter;stroke-miterlimit:10;stroke-dasharray:none;stroke-opacity:1"
         id="path56"
         inkscape:connector-curvature="0" /><path
         d="m 5815.39,851.172 h 52.03 v -24.961 h 1 c 5.45,8.129 12.01,14.84 19.67,20.121 7.63,5.27 17.42,7.906 29.31,7.906 11.19,0 20.57,-2.718 28.03,-8.187 7.48,-5.43 13.59,-11.36 18.38,-17.832 6.44,7.133 13.59,13.261 21.42,18.383 7.82,5.078 18.68,7.636 32.62,7.636 6.49,0 13.11,-1.117 19.9,-3.297 6.8,-2.23 12.91,-5.859 18.34,-10.98 5.45,-5.082 9.89,-11.641 13.3,-19.652 3.38,-8.008 5.1,-17.77 5.1,-29.329 V 592.582 h -52.03 v 179.02 c 0,9.527 -2.23,17.007 -6.62,22.418 -4.45,5.468 -10.72,8.191 -18.87,8.191 -9.9,0 -16.7,-3.07 -20.41,-9.16 -3.75,-6.141 -5.6,-14.981 -5.6,-26.571 V 592.582 h -52.03 v 179.02 c 0,9.527 -2.23,17.007 -6.63,22.418 -4.45,5.468 -10.72,8.191 -18.86,8.191 -9.89,0 -16.68,-3.07 -20.43,-9.16 -3.71,-6.141 -5.59,-14.981 -5.59,-26.571 V 592.582 h -52.03 z"
         style="fill:none;stroke:#000000;stroke-width:10;stroke-linecap:butt;stroke-linejoin:miter;stroke-miterlimit:10;stroke-dasharray:none;stroke-opacity:1"
         id="path58"
         inkscape:connector-curvature="0" /><path
         d="m 6215.76,703.789 c -5.8,1.012 -10.55,1.52 -14.3,1.52 -11.23,0 -20.83,-2.61 -28.82,-7.887 -7.97,-5.274 -11.96,-14.883 -11.96,-28.832 0,-9.84 2.35,-17.852 7.13,-23.981 4.77,-6.109 11.39,-9.16 19.89,-9.16 8.84,0 15.7,2.871 20.66,8.653 4.92,5.777 7.4,13.949 7.4,24.488 z m 0,-84.648 h -1.05 c -6.8,-9.571 -13.66,-16.84 -20.63,-21.95 -6.97,-5.101 -16.76,-7.66 -29.35,-7.66 -6.1,0 -12.39,0.938 -18.87,2.809 -6.45,1.879 -12.48,5.281 -18.11,10.199 -5.6,4.922 -10.19,11.91 -13.77,20.941 -3.57,8.981 -5.33,20.622 -5.33,34.918 0,14.614 1.17,27.442 3.58,38.473 2.34,11.098 6.68,20.258 13,27.539 6.27,7.352 14.71,12.781 25.24,16.371 10.51,3.559 23.98,5.309 40.27,5.309 3.75,0 7.5,-0.149 11.25,-0.481 3.71,-0.359 8.32,-0.687 13.77,-1.039 v 27.032 c 0,8.828 -1.87,16.168 -5.62,21.949 -3.75,5.75 -10.55,8.66 -20.39,8.66 -6.8,0 -13.01,-2.211 -18.64,-6.621 -5.62,-4.418 -9.25,-10.86 -10.95,-19.379 h -50.51 c 1.7,23.437 9.55,42.148 23.49,56.09 6.8,6.801 14.95,12.148 24.48,16.058 9.51,3.911 20.19,5.879 32.13,5.879 10.88,0 21.07,-1.738 30.58,-5.136 9.51,-3.403 17.76,-8.481 24.73,-15.27 6.97,-6.801 12.52,-15.312 16.58,-25.512 4.1,-10.199 6.13,-22.07 6.13,-35.66 V 592.582 h -52.01 z"
         style="fill:none;stroke:#000000;stroke-width:10;stroke-linecap:butt;stroke-linejoin:miter;stroke-miterlimit:10;stroke-dasharray:none;stroke-opacity:1"
         id="path60"
         inkscape:connector-curvature="0" /><path
         d="m 6306,929.711 h 52.03 v -78.539 h 32.13 v -40.781 h -32.13 V 667.07 c 0,-6.129 0.58,-10.898 1.77,-14.3 1.22,-3.399 3.09,-5.93 5.61,-7.61 2.58,-1.719 5.88,-2.781 9.96,-3.09 4.1,-0.308 9.02,-0.511 14.79,-0.511 v -48.977 h -21.41 c -11.89,0 -21.86,1.867 -29.82,5.617 -8.03,3.75 -14.4,8.52 -19.16,14.301 -4.75,5.738 -8.25,12.301 -10.43,19.648 -2.23,7.282 -3.34,14.332 -3.34,21.133 v 157.11 h -26 v 40.781 h 26 z"
         style="fill:none;stroke:#000000;stroke-width:10;stroke-linecap:butt;stroke-linejoin:miter;stroke-miterlimit:10;stroke-dasharray:none;stroke-opacity:1"
         id="path62"
         inkscape:connector-curvature="0" /><path
         d="m 6412.58,851.172 h 52.03 v -258.59 h -52.03 z m 0,104.547 h 52.03 v -52.008 h -52.03 z"
         style="fill:none;stroke:#000000;stroke-width:10;stroke-linecap:butt;stroke-linejoin:miter;stroke-miterlimit:10;stroke-dasharray:none;stroke-opacity:1"
         id="path64"
         inkscape:connector-curvature="0" /><path
         d="m 6549.77,671.172 c 0,-9.922 2.32,-17.301 6.89,-22.223 4.59,-4.929 10.78,-7.39 18.63,-7.39 7.8,0 14.01,2.461 18.62,7.39 4.59,4.922 6.87,12.301 6.87,22.223 V 772.66 c 0,9.84 -2.28,17.219 -6.87,22.16 -4.61,4.93 -10.82,7.391 -18.62,7.391 -7.85,0 -14.04,-2.461 -18.63,-7.391 -4.57,-4.941 -6.89,-12.32 -6.89,-22.16 z m -52,93.297 c 0,10.531 0.65,20.261 2.03,29.082 1.37,8.828 3.89,16.648 7.64,23.437 6.11,11.231 14.98,20.242 26.54,27.032 11.55,6.8 25.32,10.218 41.31,10.218 15.96,0 29.75,-3.418 41.31,-10.218 11.54,-6.79 20.39,-15.801 26.49,-27.032 3.75,-6.789 6.32,-14.609 7.67,-23.437 1.35,-8.821 2.05,-18.551 2.05,-29.082 v -85.168 c 0,-10.551 -0.7,-20.199 -2.05,-29.071 -1.35,-8.82 -3.92,-16.66 -7.67,-23.449 -6.1,-11.23 -14.95,-20.261 -26.49,-27.051 -11.56,-6.8 -25.35,-10.199 -41.31,-10.199 -15.99,0 -29.76,3.399 -41.31,10.199 -11.56,6.79 -20.43,15.821 -26.54,27.051 -3.75,6.789 -6.27,14.629 -7.64,23.449 -1.38,8.872 -2.03,18.52 -2.03,29.071 z"
         style="fill:none;stroke:#000000;stroke-width:10;stroke-linecap:butt;stroke-linejoin:miter;stroke-miterlimit:10;stroke-dasharray:none;stroke-opacity:1"
         id="path66"
         inkscape:connector-curvature="0" /><path
         d="m 6691.05,851.172 h 52.04 v -24.961 h 1.01 c 5.43,8.129 11.95,14.84 19.63,20.121 7.64,5.27 17.4,7.906 29.3,7.906 6.46,0 12.95,-1.117 19.39,-3.297 6.45,-2.23 12.25,-5.859 17.35,-10.98 5.09,-5.082 9.19,-11.641 12.24,-19.652 3.05,-8.008 4.57,-17.77 4.57,-29.329 V 592.582 h -52.01 v 179.02 c 0,9.527 -2.19,17.007 -6.64,22.418 -4.39,5.468 -10.7,8.191 -18.87,8.191 -9.84,0 -16.64,-3.07 -20.39,-9.16 -3.75,-6.141 -5.58,-14.981 -5.58,-26.571 V 592.582 h -52.04 z"
         style="fill:none;stroke:#000000;stroke-width:10;stroke-linecap:butt;stroke-linejoin:miter;stroke-miterlimit:10;stroke-dasharray:none;stroke-opacity:1"
         id="path68"
         inkscape:connector-curvature="0" /><path
         d="m 2864.08,263.051 h 51.04 v 29.609 c 0,9.84 -2.31,17.219 -6.92,22.16 -4.57,4.93 -10.78,7.391 -18.59,7.391 -7.83,0 -14.04,-2.461 -18.61,-7.391 -4.59,-4.941 -6.92,-12.32 -6.92,-22.16 z m 0,-40.801 v -35.18 c 0,-8.16 2.33,-14.488 6.92,-18.871 4.57,-4.429 10.78,-6.64 18.61,-6.64 9.86,0 16.41,2.89 19.61,8.671 3.26,5.79 5.19,11.571 5.9,17.352 h 51.99 c 0,-10.902 -1.78,-21.102 -5.35,-30.613 -3.58,-9.508 -8.73,-17.668 -15.53,-24.469 -6.82,-7.148 -15,-12.77 -24.49,-16.84 -9.55,-4.058 -20.26,-6.129 -32.13,-6.129 -15.98,0 -29.75,3.399 -41.33,10.199 -11.56,6.79 -20.41,15.821 -26.5,27.051 -3.75,6.789 -6.31,14.629 -7.68,23.449 -1.35,8.872 -2.03,18.52 -2.03,29.071 v 85.168 c 0,10.531 0.68,20.261 2.03,29.082 1.37,8.828 3.93,16.648 7.68,23.437 6.09,11.231 14.94,20.242 26.5,27.032 11.58,6.8 25.35,10.222 41.33,10.222 11.87,0 22.69,-2.051 32.36,-6.121 9.71,-4.101 17.87,-9.801 24.49,-17.101 6.63,-7.309 11.72,-15.899 15.3,-25.75 3.57,-9.86 5.35,-20.391 5.35,-31.641 V 222.25 Z"
         style="fill:none;stroke:#000000;stroke-width:10;stroke-linecap:butt;stroke-linejoin:miter;stroke-miterlimit:10;stroke-dasharray:none;stroke-opacity:1"
         id="path70"
         inkscape:connector-curvature="0" /><path
         d="m 3005.35,449.711 h 52.03 v -78.539 h 32.15 v -40.781 h -32.15 V 187.07 c 0,-6.129 0.59,-10.898 1.8,-14.3 1.19,-3.399 3.07,-5.93 5.59,-7.61 2.57,-1.719 5.89,-2.781 9.96,-3.09 4.1,-0.308 9.02,-0.511 14.8,-0.511 v -48.977 h -21.42 c -11.9,0 -21.86,1.867 -29.83,5.617 -8.03,3.75 -14.37,8.52 -19.16,14.301 -4.74,5.738 -8.22,12.301 -10.43,19.648 -2.23,7.282 -3.34,14.332 -3.34,21.133 v 157.11 h -25.97 v 40.781 h 25.97 z"
         style="fill:none;stroke:#000000;stroke-width:10;stroke-linecap:butt;stroke-linejoin:miter;stroke-miterlimit:10;stroke-dasharray:none;stroke-opacity:1"
         id="path72"
         inkscape:connector-curvature="0" /><path
         d="m 3302.7,223.789 c -5.79,1.012 -10.55,1.52 -14.28,1.52 -11.25,0 -20.86,-2.61 -28.83,-7.887 -7.99,-5.274 -11.97,-14.883 -11.97,-28.832 0,-9.84 2.36,-17.852 7.11,-23.981 4.76,-6.109 11.4,-9.16 19.92,-9.16 8.83,0 15.7,2.871 20.62,8.653 4.93,5.777 7.43,13.949 7.43,24.488 z m 0,-84.648 h -1.04 c -6.8,-9.571 -13.69,-16.84 -20.64,-21.95 -7,-5.101 -16.74,-7.66 -29.34,-7.66 -6.13,0 -12.42,0.938 -18.87,2.809 -6.44,1.879 -12.48,5.281 -18.1,10.199 -5.63,4.922 -10.2,11.91 -13.77,20.941 -3.58,8.981 -5.35,20.622 -5.35,34.918 0,14.614 1.19,27.442 3.55,38.473 2.38,11.098 6.72,20.258 13.01,27.539 6.31,7.352 14.73,12.781 25.23,16.371 10.55,3.559 23.99,5.309 40.32,5.309 3.75,0 7.46,-0.149 11.21,-0.481 3.73,-0.359 8.32,-0.687 13.79,-1.039 v 27.032 c 0,8.828 -1.88,16.168 -5.61,21.949 -3.75,5.75 -10.55,8.66 -20.41,8.66 -6.8,0 -13.01,-2.211 -18.61,-6.621 -5.63,-4.418 -9.26,-10.86 -10.96,-19.379 h -50.51 c 1.7,23.437 9.53,42.148 23.48,56.09 6.8,6.801 14.96,12.148 24.45,16.058 9.53,3.911 20.22,5.883 32.15,5.883 10.86,0 21.05,-1.742 30.61,-5.14 9.49,-3.403 17.75,-8.481 24.72,-15.27 6.97,-6.801 12.48,-15.312 16.58,-25.512 4.07,-10.199 6.1,-22.07 6.1,-35.66 V 112.582 h -51.99 z"
         style="fill:none;stroke:#000000;stroke-width:10;stroke-linecap:butt;stroke-linejoin:miter;stroke-miterlimit:10;stroke-dasharray:none;stroke-opacity:1"
         id="path74"
         inkscape:connector-curvature="0" /><path
         d="m 3496.48,287.031 c 0,10.551 -2.05,19.02 -6.13,25.469 -4.06,6.48 -10.55,9.711 -19.35,9.711 -7.86,0 -14.12,-2.949 -18.87,-8.93 -4.79,-5.941 -7.15,-13.672 -7.15,-23.199 V 189.609 c 0,-8.16 2.46,-14.839 7.38,-20.121 4.93,-5.269 11.14,-7.929 18.64,-7.929 9.84,0 16.58,3.05 20.13,9.179 3.56,6.133 5.35,13.282 5.35,21.41 z m -103.53,84.141 h 52.03 V 347.73 c 6.45,7.43 13.07,13.75 19.86,18.872 6.8,5.078 16.68,7.64 29.59,7.64 21.45,0 36.57,-8.191 45.41,-24.492 3.05,-5.77 5.28,-12.91 6.62,-21.43 1.35,-8.48 2.06,-19.879 2.06,-34.14 v -98.442 c 0,-18.707 -0.53,-32.457 -1.53,-41.328 -1.05,-8.82 -3.24,-15.969 -6.64,-21.398 -4.43,-6.84 -10.12,-12.422 -17.09,-16.84 -6.97,-4.41 -16.76,-6.641 -29.31,-6.641 -10.2,0 -19.32,2.309 -27.29,6.899 -7.99,4.59 -14.88,11.129 -20.68,19.66 h -1 V 8.05078 h -52.03 z"
         style="fill:none;stroke:#000000;stroke-width:10;stroke-linecap:butt;stroke-linejoin:miter;stroke-miterlimit:10;stroke-dasharray:none;stroke-opacity:1"
         id="path76"
         inkscape:connector-curvature="0" /><path
         d="m 3693.36,287.031 c 0,10.551 -2.05,19.02 -6.15,25.469 -4.05,6.48 -10.55,9.711 -19.36,9.711 -7.83,0 -14.1,-2.949 -18.87,-8.93 -4.78,-5.941 -7.12,-13.672 -7.12,-23.199 V 189.609 c 0,-8.16 2.46,-14.839 7.38,-20.121 4.92,-5.269 11.13,-7.929 18.61,-7.929 9.86,0 16.56,3.05 20.12,9.179 3.57,6.133 5.39,13.282 5.39,21.41 z m -103.54,84.141 h 52.04 V 347.73 c 6.44,7.43 13.06,13.75 19.86,18.872 6.8,5.078 16.64,7.64 29.59,7.64 21.42,0 36.54,-8.191 45.37,-24.492 3.09,-5.77 5.27,-12.91 6.66,-21.43 1.35,-8.48 2.01,-19.879 2.01,-34.14 v -98.442 c 0,-18.707 -0.49,-32.457 -1.52,-41.328 -1.02,-8.82 -3.24,-15.969 -6.64,-21.398 -4.4,-6.84 -10.12,-12.422 -17.05,-16.84 -6.98,-4.41 -16.76,-6.641 -29.36,-6.641 -10.19,0 -19.28,2.309 -27.26,6.899 -8.01,4.59 -14.87,11.129 -20.67,19.66 h -0.99 V 8.05078 h -52.04 z"
         style="fill:none;stroke:#000000;stroke-width:10;stroke-linecap:butt;stroke-linejoin:miter;stroke-miterlimit:10;stroke-dasharray:none;stroke-opacity:1"
         id="path78"
         inkscape:connector-curvature="0" /><path
         d="m 3785.64,371.172 h 52.04 v -27.543 c 10.52,9.512 20.87,16.992 31.07,22.422 10.23,5.469 22.77,8.191 37.77,8.191 v -55.101 c -5.09,2.031 -10.39,3.07 -15.82,3.07 -5.45,0 -11.31,-0.941 -17.61,-2.801 -6.29,-1.871 -12.07,-5.039 -17.35,-9.41 -5.27,-4.449 -9.61,-10.23 -12.97,-17.34 -3.43,-7.148 -5.09,-16.019 -5.09,-26.57 V 112.582 h -52.04 z"
         style="fill:none;stroke:#000000;stroke-width:10;stroke-linecap:butt;stroke-linejoin:miter;stroke-miterlimit:10;stroke-dasharray:none;stroke-opacity:1"
         id="path80"
         inkscape:connector-curvature="0" /><path
         d="m 3974.84,263.051 h 51.02 v 29.609 c 0,9.84 -2.32,17.219 -6.9,22.16 -4.58,4.93 -10.78,7.391 -18.63,7.391 -7.79,0 -14,-2.461 -18.61,-7.391 -4.59,-4.941 -6.88,-12.32 -6.88,-22.16 z m 0,-40.801 v -35.18 c 0,-8.16 2.29,-14.488 6.88,-18.871 4.61,-4.429 10.82,-6.64 18.61,-6.64 9.87,0 16.41,2.89 19.63,8.671 3.24,5.79 5.22,11.571 5.9,17.352 h 51.99 c 0,-10.902 -1.76,-21.102 -5.33,-30.613 -3.57,-9.508 -8.77,-17.668 -15.57,-24.469 -6.81,-7.148 -14.96,-12.77 -24.49,-16.84 -9.51,-4.058 -20.23,-6.129 -32.13,-6.129 -15.95,0 -29.74,3.399 -41.31,10.199 -11.54,6.79 -20.39,15.821 -26.52,27.051 -3.71,6.789 -6.29,14.629 -7.64,23.449 -1.34,8.872 -2.05,18.52 -2.05,29.071 v 85.168 c 0,10.531 0.71,20.261 2.05,29.082 1.35,8.828 3.93,16.648 7.64,23.437 6.13,11.231 14.98,20.242 26.52,27.032 11.57,6.8 25.36,10.222 41.31,10.222 11.9,0 22.72,-2.051 32.4,-6.121 9.67,-4.101 17.86,-9.801 24.5,-17.101 6.62,-7.309 11.72,-15.899 15.29,-25.75 3.57,-9.86 5.33,-20.391 5.33,-31.641 V 222.25 Z"
         style="fill:none;stroke:#000000;stroke-width:10;stroke-linecap:butt;stroke-linejoin:miter;stroke-miterlimit:10;stroke-dasharray:none;stroke-opacity:1"
         id="path82"
         inkscape:connector-curvature="0" /><path
         d="m 4116.11,371.172 h 52.03 v -24.961 h 1 c 5.45,8.129 12.01,14.84 19.65,20.121 7.66,5.27 17.44,7.91 29.34,7.91 6.44,0 12.89,-1.121 19.37,-3.301 6.46,-2.23 12.23,-5.859 17.34,-10.98 5.08,-5.082 9.16,-11.641 12.23,-19.652 3.09,-8.008 4.61,-17.77 4.61,-29.329 V 112.582 h -52.03 v 179.02 c 0,9.527 -2.23,17.007 -6.62,22.418 -4.46,5.468 -10.73,8.191 -18.87,8.191 -9.86,0 -16.66,-3.07 -20.41,-9.16 -3.73,-6.141 -5.61,-14.981 -5.61,-26.571 V 112.582 h -52.03 z"
         style="fill:none;stroke:#000000;stroke-width:10;stroke-linecap:butt;stroke-linejoin:miter;stroke-miterlimit:10;stroke-dasharray:none;stroke-opacity:1"
         id="path84"
         inkscape:connector-curvature="0" /><path
         d="m 4314.51,449.711 h 52.03 v -78.539 h 32.11 v -40.781 h -32.11 V 187.07 c 0,-6.129 0.59,-10.898 1.76,-14.3 1.17,-3.399 3.05,-5.93 5.63,-7.61 2.52,-1.719 5.86,-2.781 9.94,-3.09 4.06,-0.308 8.98,-0.511 14.78,-0.511 v -48.977 h -21.42 c -11.92,0 -21.84,1.867 -29.85,5.617 -7.97,3.75 -14.35,8.52 -19.1,14.301 -4.76,5.738 -8.26,12.301 -10.47,19.648 -2.22,7.282 -3.3,14.332 -3.3,21.133 v 157.11 h -26.01 v 40.781 h 26.01 z"
         style="fill:none;stroke:#000000;stroke-width:10;stroke-linecap:butt;stroke-linejoin:miter;stroke-miterlimit:10;stroke-dasharray:none;stroke-opacity:1"
         id="path86"
         inkscape:connector-curvature="0" /><path
         d="m 4418.52,371.172 h 52.03 v -258.59 h -52.03 z m 0,104.547 h 52.03 v -52.008 h -52.03 z"
         style="fill:none;stroke:#000000;stroke-width:10;stroke-linecap:butt;stroke-linejoin:miter;stroke-miterlimit:10;stroke-dasharray:none;stroke-opacity:1"
         id="path88"
         inkscape:connector-curvature="0" /><path
         d="m 4607.71,298.75 c -0.33,8.832 -3.14,15.469 -8.37,19.922 -5.28,4.379 -11.31,6.598 -18.11,6.598 -8.18,0 -14.47,-2.61 -18.87,-7.891 -4.45,-5.27 -6.66,-11.328 -6.66,-18.117 0,-4.774 1.21,-9.422 3.6,-14.032 2.36,-4.609 8.47,-8.75 18.36,-12.5 l 30.58,-12.218 c 19.4,-7.461 32.74,-17.66 40.02,-30.633 7.33,-12.91 11,-26.988 11,-42.297 0,-10.902 -1.97,-21.004 -5.9,-30.352 -3.91,-9.378 -9.26,-17.601 -16.06,-24.73 -6.79,-7.148 -14.94,-12.77 -24.49,-16.84 -9.49,-4.058 -19.86,-6.129 -31.09,-6.129 -10.22,0 -19.88,1.719 -29.08,5.117 -9.16,3.403 -17.23,8.321 -24.2,14.782 -6.98,6.468 -12.7,14.531 -17.11,24.242 -4.4,9.648 -6.8,20.976 -7.11,33.91 h 48.94 c 1.02,-7.152 3.48,-13.75 7.39,-19.922 3.92,-6.101 10.78,-9.16 20.68,-9.16 7.44,0 14.18,2.48 20.14,7.398 5.93,4.922 8.92,11.801 8.92,20.622 0,7.152 -1.87,13.32 -5.62,18.402 -3.75,5.117 -10.55,9.488 -20.39,13.238 l -24.98,9.219 c -16.33,6.101 -29.16,15.16 -38.54,27.23 -9.35,12.071 -14,26.801 -14,44.141 0,10.898 2.05,21 6.09,30.352 4.1,9.378 9.61,17.347 16.58,23.949 6.98,6.64 15.06,11.828 24.26,15.578 9.14,3.73 19.01,5.613 29.55,5.613 10.53,0 20.31,-1.972 29.34,-5.883 9.02,-3.91 16.76,-9.14 23.2,-15.8 6.45,-6.661 11.54,-14.629 15.29,-23.969 3.75,-9.328 5.63,-19.289 5.63,-29.84 z"
         style="fill:none;stroke:#000000;stroke-width:10;stroke-linecap:butt;stroke-linejoin:miter;stroke-miterlimit:10;stroke-dasharray:none;stroke-opacity:1"
         id="path90"
         inkscape:connector-curvature="0" /><path
         d="m 4782.68,298.75 c -0.36,8.832 -3.17,15.469 -8.44,19.922 -5.28,4.379 -11.31,6.598 -18.11,6.598 -8.14,0 -14.45,-2.61 -18.86,-7.891 -4.4,-5.27 -6.63,-11.328 -6.63,-18.117 0,-4.774 1.18,-9.422 3.58,-14.032 2.38,-4.609 8.49,-8.75 18.34,-12.5 l 30.6,-12.218 c 19.38,-7.461 32.74,-17.66 40.06,-30.633 7.29,-12.91 10.96,-26.988 10.96,-42.297 0,-10.902 -1.95,-21.004 -5.86,-30.352 -3.93,-9.378 -9.26,-17.601 -16.05,-24.73 -6.84,-7.148 -15,-12.77 -24.5,-16.84 -9.55,-4.058 -19.88,-6.129 -31.11,-6.129 -10.2,0 -19.9,1.719 -29.06,5.117 -9.2,3.403 -17.29,8.321 -24.26,14.782 -6.97,6.468 -12.66,14.531 -17.05,24.242 -4.45,9.648 -6.84,20.976 -7.15,33.91 h 48.95 c 1.03,-7.152 3.49,-13.75 7.42,-19.922 3.87,-6.101 10.78,-9.16 20.62,-9.16 7.5,0 14.22,2.48 20.16,7.398 5.94,4.922 8.91,11.801 8.91,20.622 0,7.152 -1.88,13.32 -5.59,18.402 -3.73,5.117 -10.53,9.488 -20.39,13.238 l -25,9.219 c -16.33,6.101 -29.18,15.16 -38.5,27.23 -9.37,12.071 -14.04,26.801 -14.04,44.141 0,10.898 2.03,21 6.13,30.352 4.07,9.378 9.61,17.347 16.58,23.949 6.94,6.64 15.02,11.828 24.2,15.578 9.2,3.73 19.05,5.613 29.59,5.613 10.55,0 20.34,-1.972 29.32,-5.883 9,-3.91 16.74,-9.14 23.2,-15.8 6.49,-6.661 11.59,-14.629 15.34,-23.969 3.73,-9.328 5.6,-19.289 5.6,-29.84 z"
         style="fill:none;stroke:#000000;stroke-width:10;stroke-linecap:butt;stroke-linejoin:miter;stroke-miterlimit:10;stroke-dasharray:none;stroke-opacity:1"
         id="path92"
         inkscape:connector-curvature="0" /><path
         d="m 4966.25,223.789 c -5.78,1.012 -10.55,1.52 -14.26,1.52 -11.23,0 -20.84,-2.61 -28.81,-7.887 -8.02,-5.274 -12.01,-14.883 -12.01,-28.832 0,-9.84 2.4,-17.852 7.15,-23.981 4.75,-6.109 11.37,-9.16 19.88,-9.16 8.83,0 15.75,2.871 20.67,8.653 4.92,5.777 7.38,13.949 7.38,24.488 z m 0,-84.648 h -1 c -6.79,-9.571 -13.71,-16.84 -20.68,-21.95 -6.97,-5.101 -16.72,-7.66 -29.3,-7.66 -6.15,0 -12.42,0.938 -18.86,2.809 -6.49,1.879 -12.5,5.281 -18.11,10.199 -5.62,4.922 -10.19,11.91 -13.77,20.941 -3.57,8.981 -5.39,20.622 -5.39,34.918 0,14.614 1.21,27.442 3.57,38.473 2.41,11.098 6.74,20.258 13.01,27.539 6.31,7.352 14.71,12.781 25.26,16.371 10.54,3.559 23.96,5.309 40.31,5.309 3.71,0 7.44,-0.149 11.19,-0.481 3.75,-0.359 8.32,-0.687 13.77,-1.039 v 27.032 c 0,8.828 -1.87,16.168 -5.59,21.949 -3.75,5.75 -10.54,8.66 -20.43,8.66 -6.79,0 -13,-2.211 -18.59,-6.621 -5.6,-4.418 -9.26,-10.86 -10.98,-19.379 h -50.46 c 1.69,23.437 9.49,42.148 23.43,56.09 6.8,6.801 14.96,12.148 24.5,16.058 9.49,3.911 20.21,5.883 32.1,5.883 10.9,0 21.1,-1.742 30.63,-5.14 9.51,-3.403 17.77,-8.481 24.75,-15.27 6.93,-6.801 12.48,-15.312 16.54,-25.512 4.08,-10.199 6.13,-22.07 6.13,-35.66 V 112.582 h -52.03 z"
         style="fill:none;stroke:#000000;stroke-width:10;stroke-linecap:butt;stroke-linejoin:miter;stroke-miterlimit:10;stroke-dasharray:none;stroke-opacity:1"
         id="path94"
         inkscape:connector-curvature="0" /><path
         d="m 5108.57,192.148 c 0,-8.128 1.76,-15.277 5.34,-21.41 3.57,-6.129 10.27,-9.179 20.15,-9.179 7.46,0 13.65,2.66 18.6,7.929 4.92,5.282 7.42,11.961 7.42,20.121 v 100.473 c 0,9.527 -2.4,17.258 -7.15,23.199 -4.77,5.981 -11.07,8.93 -18.87,8.93 -8.85,0 -15.29,-3.231 -19.39,-9.711 -4.08,-6.449 -6.1,-14.918 -6.1,-25.469 z m 0,-109.6089 c 0.3,-6.168 2.8,-11.918 7.39,-17.3399 4.57,-5.4687 11.31,-8.1875 20.15,-8.1875 8.46,0 14.59,2.6367 18.34,7.9102 3.75,5.2773 5.63,11.9883 5.63,20.1172 V 136.09 h -1.06 c -5.78,-8.531 -12.65,-15.07 -20.62,-19.66 -8.01,-4.59 -17.29,-6.899 -27.81,-6.899 -21.41,0 -36.57,8.168 -45.38,24.489 -3.06,5.781 -5.27,12.89 -6.62,21.429 -1.36,8.461 -2.05,19.903 -2.05,34.16 v 98.442 c 0,18.691 0.49,32.461 1.53,41.308 0.99,8.801 3.22,15.95 6.62,21.422 4.41,6.801 10.13,12.418 17.11,16.801 6.95,4.43 16.72,6.66 29.29,6.66 6.45,0 12.02,-0.691 16.59,-2.051 4.57,-1.371 8.73,-3.242 12.48,-5.589 3.75,-2.422 7.14,-5.231 10.19,-8.442 3.09,-3.238 6.33,-6.711 9.73,-10.43 v 23.442 h 51.99 V 80.9805 c 0,-8.8321 -1.43,-17.7617 -4.34,-26.7617 -2.89,-9.0196 -7.57,-17.1485 -14.02,-24.4883 -6.44,-7.3086 -14.59,-13.2696 -24.45,-17.8594 C 5159.38,7.30078 5147.66,5 5134.06,5 c -7.85,0 -15.99,1.26953 -24.49,3.83203 -8.5,2.53907 -16.41,6.78907 -23.73,12.72657 -7.29,5.9414 -13.59,13.8711 -18.87,23.7109 -5.27,9.8907 -8.73,22.2891 -10.43,37.2696 z"
         style="fill:none;stroke:#000000;stroke-width:10;stroke-linecap:butt;stroke-linejoin:miter;stroke-miterlimit:10;stroke-dasharray:none;stroke-opacity:1"
         id="path96"
         inkscape:connector-curvature="0" /><path
         d="m 5302.34,263.051 h 51.02 v 29.609 c 0,9.84 -2.32,17.219 -6.9,22.16 -4.58,4.93 -10.78,7.391 -18.63,7.391 -7.79,0 -14,-2.461 -18.61,-7.391 -4.59,-4.941 -6.88,-12.32 -6.88,-22.16 z m 0,-40.801 v -35.18 c 0,-8.16 2.29,-14.488 6.88,-18.871 4.61,-4.429 10.82,-6.64 18.61,-6.64 9.87,0 16.41,2.89 19.63,8.671 3.24,5.79 5.22,11.571 5.9,17.352 h 51.99 c 0,-10.902 -1.76,-21.102 -5.33,-30.613 -3.57,-9.508 -8.77,-17.668 -15.57,-24.469 -6.81,-7.148 -14.96,-12.77 -24.49,-16.84 -9.51,-4.058 -20.23,-6.129 -32.13,-6.129 -15.95,0 -29.74,3.399 -41.31,10.199 -11.54,6.79 -20.39,15.821 -26.52,27.051 -3.71,6.789 -6.29,14.629 -7.64,23.449 -1.34,8.872 -2.05,18.52 -2.05,29.071 v 85.168 c 0,10.531 0.71,20.261 2.05,29.082 1.35,8.828 3.93,16.648 7.64,23.437 6.13,11.231 14.98,20.242 26.52,27.032 11.57,6.8 25.36,10.222 41.31,10.222 11.9,0 22.72,-2.051 32.4,-6.121 9.67,-4.101 17.86,-9.801 24.5,-17.101 6.62,-7.309 11.72,-15.899 15.29,-25.75 3.57,-9.86 5.33,-20.391 5.33,-31.641 V 222.25 Z"
         style="fill:none;stroke:#000000;stroke-width:10;stroke-linecap:butt;stroke-linejoin:miter;stroke-miterlimit:10;stroke-dasharray:none;stroke-opacity:1"
         id="path98"
         inkscape:connector-curvature="0" /><path
         d="m 2157.46,103.199 c -138.05,0 -250.33,112.352 -250.33,250.41 0,138.032 112.28,250.301 250.33,250.301 138.03,0 250.31,-112.269 250.31,-250.301 0,-138.058 -112.28,-250.41 -250.31,-250.41 z M 1915.33,2765.92 c 0,138.03 112.29,250.33 250.31,250.33 138.05,0 250.32,-112.3 250.32,-250.33 0,-138.03 -112.27,-250.33 -250.32,-250.33 -138.02,0 -250.31,112.3 -250.31,250.33 z M 900.586,691.93 c -138.027,0 -250.352,112.289 -250.352,250.3 0,138.04 112.325,250.33 250.352,250.33 138.004,0 250.334,-112.29 250.334,-250.33 0,-138.011 -112.33,-250.3 -250.334,-250.3 z M 345.352,2147.11 C 207.324,2147.11 95,2259.41 95,2397.46 c 0,138.05 112.324,250.35 250.352,250.35 138.007,0 250.332,-112.3 250.332,-250.35 0,-138.05 -112.325,-250.35 -250.332,-250.35 z M 2158.71,693.832 1963.09,1209.88 c 103.71,82.23 170.45,209.1 170.45,351.76 0,141.17 -65.34,267.01 -167.23,349.3 l 200.57,514.69 c 187.08,0.66 339.08,153.04 339.08,340.29 0,187.63 -152.64,340.33 -340.32,340.33 -187.63,0 -340.31,-152.7 -340.31,-340.33 0,-102.09 45.37,-193.58 116.78,-256 l -196.35,-503.98 c -20.1,2.73 -40.43,4.65 -61.23,4.65 -123.63,0 -235.55,-49.98 -316.72,-130.79 l -692.927,434.11 c 6.797,26.75 10.801,54.64 10.801,83.55 0,187.66 -152.696,340.35 -340.332,340.35 C 157.695,2737.81 5,2585.12 5,2397.46 c 0,-187.69 152.695,-340.35 340.352,-340.35 71.25,0 137.382,22.11 192.109,59.69 l 711.949,-446.02 c -8.75,-35 -13.9,-71.44 -13.9,-109.14 0,-62.07 12.62,-121.25 35.41,-175.04 l -190.37,-156.05 c -52.27,32.77 -113.851,52.01 -179.964,52.01 -187.656,0 -340.352,-152.68 -340.352,-340.33 0,-187.621 152.696,-340.3 340.352,-340.3 187.634,0 340.334,152.679 340.334,340.3 0,33.899 -5.16,66.68 -14.44,97.61 l 194.09,159.14 c 74.12,-54.1 165.17,-86.36 263.96,-86.36 19.42,0 38.44,1.64 57.23,4.02 l 192.2,-507.031 c -71.42,-62.418 -116.83,-153.91 -116.83,-256 0,-187.711 152.67,-340.4098 340.33,-340.4098 187.66,0 340.31,152.6988 340.31,340.4098 0,187.25 -152.01,339.551 -339.06,340.223 z"
         style="fill:none;stroke:#000000;stroke-width:10;stroke-linecap:butt;stroke-linejoin:miter;stroke-miterlimit:10;stroke-dasharray:none;stroke-opacity:1"
         id="path100"
         inkscape:connector-curvature="0" /></g></g></svg>