<?xml version="1.0" encoding="UTF-8" standalone="no"?>
<!-- Created with Inkscape (http://www.inkscape.org/) -->

<svg
   xmlns:dc="http://purl.org/dc/elements/1.1/"
   xmlns:cc="http://creativecommons.org/ns#"
   xmlns:rdf="http://www.w3.org/1999/02/22-rdf-syntax-ns#"
   xmlns:svg="http://www.w3.org/2000/svg"
   xmlns="http://www.w3.org/2000/svg"
   xmlns:sodipodi="http://sodipodi.sourceforge.net/DTD/sodipodi-0.dtd"
   xmlns:inkscape="http://www.inkscape.org/namespaces/inkscape"
   version="1.1"
   id="svg2"
   xml:space="preserve"
   width="1006.1867"
   height="412.39999"
   viewBox="0 0 1006.1867 412.39999"
   sodipodi:docname="logo_tecfa_notext.svg"
   inkscape:version="0.92.3 (2405546, 2018-03-11)"><metadata
     id="metadata8"><rdf:RDF><cc:Work
         rdf:about=""><dc:format>image/svg+xml</dc:format><dc:type
           rdf:resource="http://purl.org/dc/dcmitype/StillImage" /><dc:title></dc:title></cc:Work></rdf:RDF></metadata><defs
     id="defs6" /><sodipodi:namedview
     pagecolor="#ffffff"
     bordercolor="#666666"
     borderopacity="1"
     objecttolerance="10"
     gridtolerance="10"
     guidetolerance="10"
     inkscape:pageopacity="0"
     inkscape:pageshadow="2"
     inkscape:window-width="640"
     inkscape:window-height="480"
     id="namedview4"
     showgrid="false"
     inkscape:zoom="0.35381107"
     inkscape:cx="503.09335"
     inkscape:cy="206.2"
     inkscape:window-x="0"
     inkscape:window-y="0"
     inkscape:window-maximized="0"
     inkscape:current-layer="g10" /><g
     id="g10"
     inkscape:groupmode="layer"
     inkscape:label="ink_ext_XXXXXX"
     transform="matrix(1.3333333,0,0,-1.3333333,0,412.4)"><g
       id="g12"
       transform="scale(0.1)"><path
         d="m 2422.34,340.391 c 0,-149.082 -120.82,-269.9613 -269.86,-269.9613 -149.06,0 -269.92,120.8793 -269.92,269.9613 0,149.027 120.86,269.871 269.92,269.871 149.04,0 269.86,-120.844 269.86,-269.871"
         style="fill:#d96c1c;fill-opacity:1;fill-rule:nonzero;stroke:none"
         id="path14"
         inkscape:connector-curvature="0" /><path
         d="m 1164.57,929.012 c 0,-148.602 -120.43,-268.953 -268.984,-268.953 -148.574,0 -268.984,120.351 -268.984,268.953 0,148.588 120.41,268.998 268.984,268.998 148.554,0 268.984,-120.41 268.984,-268.998"
         style="fill:#7965a7;fill-opacity:1;fill-rule:nonzero;stroke:none"
         id="path16"
         inkscape:connector-curvature="0" /><path
         d="m 608.516,2384.55 c 0,-148.53 -120.45,-269 -269.024,-269 -148.554,0 -269.0037,120.47 -269.0037,269 0,148.62 120.4497,269.05 269.0037,269.05 148.574,0 269.024,-120.43 269.024,-269.05"
         style="fill:#72cbf0;fill-opacity:1;fill-rule:nonzero;stroke:none"
         id="path18"
         inkscape:connector-curvature="0" /><path
         d="m 2429.32,2752.7 c 0,-148.36 -120.28,-268.67 -268.66,-268.67 -148.39,0 -268.67,120.31 -268.67,268.67 0,148.38 120.28,268.69 268.67,268.69 148.38,0 268.66,-120.31 268.66,-268.69"
         style="fill:#95c123;fill-opacity:1;fill-rule:nonzero;stroke:none"
         id="path20"
         inkscape:connector-curvature="0" /><path
         d="m 2775.24,2567.92 h 332.87 v -461.04 h 205.61 v -239.45 h -205.61 v -841.21 c 0,-35.9 3.77,-63.849 11.42,-83.79 7.61,-19.969 19.56,-34.942 35.91,-44.899 16.29,-10.019 37.54,-16 63.65,-17.992 26.08,-1.988 57.59,-2.949 94.63,-2.949 V 589.191 h -137.08 c -76.19,0 -139.81,10.93 -190.92,32.911 -51.15,21.976 -91.93,49.847 -122.37,83.839 -30.49,33.93 -52.8,72.289 -66.91,115.27 -14.17,42.848 -21.2,84.219 -21.2,124.187 v 922.032 h -166.43 v 239.45 h 166.43 v 461.04"
         style="fill:#1f5788;fill-opacity:1;fill-rule:nonzero;stroke:none"
         id="path22"
         inkscape:connector-curvature="0" /><path
         d="m 3777.1,1472.27 h 326.35 v 173.63 c 0,57.86 -14.64,101.25 -43.99,130.21 -29.41,28.91 -69.14,43.43 -119.14,43.43 -50.1,0 -89.73,-14.52 -119.16,-43.43 -29.34,-28.96 -44.06,-72.35 -44.06,-130.21 z m 0,-239.45 v -206.6 c 0,-47.861 14.72,-84.81 44.06,-110.759 29.43,-25.949 69.06,-38.871 119.16,-38.871 63.04,0 104.92,16.91 125.66,50.871 20.66,33.879 33.13,67.801 37.47,101.779 h 332.92 c 0,-63.92 -11.41,-123.81 -34.25,-179.638 -22.83,-55.891 -56.05,-103.774 -99.53,-143.661 -43.58,-41.882 -95.83,-74.839 -156.7,-98.812 -60.93,-23.899 -129.44,-35.918 -205.57,-35.918 -102.27,0 -190.38,19.918 -264.36,59.891 -73.97,39.886 -130.56,92.777 -169.72,158.617 -23.95,39.91 -40.26,85.851 -48.96,137.742 -8.69,51.859 -13.02,108.729 -13.02,170.609 v 499.94 c 0,61.83 4.33,118.69 13.02,170.6 8.7,51.89 25.01,97.79 48.96,137.74 39.16,65.86 95.75,118.68 169.72,158.65 73.98,39.9 162.09,59.85 264.36,59.85 76.13,0 145.19,-11.94 207.19,-35.91 62.06,-23.94 114.23,-57.38 156.7,-100.27 42.43,-42.94 75.08,-93.31 97.91,-151.18 22.84,-57.92 34.25,-119.76 34.25,-185.62 V 1232.82 H 3777.1"
         style="fill:#1f5788;fill-opacity:1;fill-rule:nonzero;stroke:none"
         id="path24"
         inkscape:connector-curvature="0" /><path
         d="m 4935.65,1026.22 c 0,-47.861 14.7,-84.81 44.07,-110.759 29.34,-25.949 69.06,-38.871 119.13,-38.871 63.04,0 104.92,16.91 125.66,50.871 20.59,33.879 33.15,67.801 37.48,101.779 h 332.92 c 0,-63.92 -11.41,-123.81 -34.25,-179.638 -22.92,-55.891 -56.11,-103.774 -99.61,-143.661 -43.5,-41.882 -95.73,-74.839 -156.62,-98.812 -60.93,-23.899 -129.43,-35.918 -205.58,-35.918 -102.34,0 -190.45,19.918 -264.35,59.891 -74.02,39.886 -130.54,92.777 -169.71,158.617 -23.95,39.91 -40.29,85.851 -48.96,137.742 -8.69,51.859 -13.03,108.729 -13.03,170.609 v 499.94 c 0,61.83 4.34,118.69 13.03,170.6 8.67,51.89 25.01,97.79 48.96,137.74 39.17,65.86 95.69,118.68 169.71,158.65 73.9,39.9 162.01,59.85 264.35,59.85 76.15,0 145.21,-11.94 207.19,-35.91 62.06,-23.94 114.25,-57.38 156.7,-100.27 42.38,-42.94 75,-94.32 97.92,-154.16 22.84,-59.87 34.25,-124.77 34.25,-194.59 h -332.92 c 0,61.8 -14.64,107.23 -44.06,136.19 -29.36,28.91 -69.07,43.43 -119.08,43.43 -50.07,0 -89.79,-14.52 -119.13,-43.43 -29.37,-28.96 -44.07,-72.35 -44.07,-130.21 v -619.68"
         style="fill:#1f5788;fill-opacity:1;fill-rule:nonzero;stroke:none"
         id="path26"
         inkscape:connector-curvature="0" /><path
         d="m 5868.99,1867.43 h -163.12 v 239.45 h 163.12 v 206.57 c 0,73.82 11.98,136.21 35.93,187.1 23.89,50.88 55.98,92.81 96.24,125.73 40.3,32.94 85.95,56.87 137.09,71.84 51.06,14.97 103.88,22.46 158.3,22.46 h 153.39 v -287.39 h -150.18 c -65.27,0 -97.85,-34.93 -97.85,-104.77 v -221.54 h 248.03 V 1867.43 H 6201.91 V 589.191 H 5868.99 V 1867.43"
         style="fill:#1f5788;fill-opacity:1;fill-rule:nonzero;stroke:none"
         id="path28"
         inkscape:connector-curvature="0" /><path
         d="m 7213.5,1241.76 c -37,5.99 -67.46,9 -91.33,9 -71.8,0 -133.29,-15.48 -184.43,-46.41 -51.12,-31 -76.7,-87.34 -76.7,-169.13 0,-57.88 15.2,-104.79 45.74,-140.708 30.41,-35.922 72.85,-53.903 127.27,-53.903 56.54,0 100.57,16.961 132.16,50.95 31.52,33.851 47.29,81.781 47.29,143.661 z m 0,-496.869 h -6.52 c -43.55,-55.911 -87.6,-98.832 -132.16,-128.762 -44.62,-29.949 -107.16,-44.918 -187.65,-44.918 -39.16,0 -79.45,5.508 -120.76,16.437 -41.32,11.012 -79.92,30.981 -115.86,59.883 -35.86,28.93 -65.28,69.86 -88.11,122.789 -22.83,52.809 -34.26,121.239 -34.26,205.02 0,85.78 7.57,161.15 22.84,226 15.2,64.83 42.94,118.71 83.21,161.66 40.28,42.89 94.08,74.85 161.52,95.8 67.45,20.95 153.4,31.42 257.84,31.42 23.95,0 47.85,-1.02 71.8,-2.98 23.95,-1.98 53.29,-4.02 88.11,-5.98 v 158.66 c 0,51.85 -11.97,94.75 -35.86,128.69 -23.95,33.93 -67.45,50.93 -130.57,50.93 -43.55,0 -83.2,-13.01 -119.14,-38.94 -35.86,-25.95 -59.27,-63.9 -70.12,-113.76 H 6534.7 c 10.86,137.73 60.87,247.43 150.11,329.28 43.5,39.9 95.75,71.36 156.69,94.32 60.86,22.92 129.37,34.41 205.57,34.41 69.63,0 134.92,-9.99 195.87,-29.92 60.85,-19.97 113.6,-49.92 158.21,-89.81 44.62,-39.93 79.99,-89.78 106.13,-149.66 26.06,-59.89 39.15,-129.77 39.15,-209.56 V 589.191 H 7213.5 v 155.7"
         style="fill:#1f5788;fill-opacity:1;fill-rule:nonzero;stroke:none"
         id="path30"
         inkscape:connector-curvature="0" /><path
         d="m 2152.48,90 c -138.05,0 -250.35,112.328 -250.35,250.391 0,138.027 112.3,250.3 250.35,250.3 138.01,0 250.31,-112.273 250.31,-250.3 C 2402.79,202.328 2290.49,90 2152.48,90 Z m -242.15,2662.7 c 0,138.05 112.31,250.35 250.33,250.35 138.03,0 250.32,-112.3 250.32,-250.35 0,-138.03 -112.29,-250.33 -250.32,-250.33 -138.02,0 -250.33,112.3 -250.33,250.33 z M 895.586,678.711 c -138.027,0 -250.332,112.309 -250.332,250.301 0,138.038 112.305,250.328 250.332,250.328 138.024,0 250.334,-112.29 250.334,-250.328 0,-137.992 -112.31,-250.301 -250.334,-250.301 z M 340.352,2133.91 C 202.324,2133.91 90,2246.21 90,2384.24 c 0,138.07 112.324,250.37 250.352,250.37 138.027,0 250.332,-112.3 250.332,-250.37 0,-138.03 -112.305,-250.33 -250.332,-250.33 z M 2153.71,680.629 1958.07,1196.66 c 103.73,82.25 170.47,209.12 170.47,351.78 0,141.17 -65.32,266.99 -167.23,349.3 l 200.55,514.69 c 187.1,0.66 339.12,153.02 339.12,340.27 0,187.68 -152.68,340.35 -340.32,340.35 -187.65,0 -340.33,-152.67 -340.33,-340.35 0,-102.07 45.39,-193.56 116.8,-255.98 l -196.37,-504 c -20.08,2.75 -40.41,4.67 -61.23,4.67 -123.61,0 -235.53,-50 -316.72,-130.79 l -692.927,434.11 c 6.797,26.77 10.801,54.67 10.801,83.53 0,187.68 -152.676,340.37 -340.332,340.37 C 152.676,2724.61 0,2571.92 0,2384.24 c 0,-187.65 152.676,-340.33 340.352,-340.33 71.25,0 137.402,22.09 192.128,59.67 l 711.93,-446.02 c -8.75,-34.98 -13.9,-71.42 -13.9,-109.12 0,-62.09 12.6,-121.27 35.41,-175.06 l -190.37,-156.03 c -52.29,32.75 -113.851,51.99 -179.964,51.99 -187.676,0 -340.332,-152.66 -340.332,-340.328 0,-187.621 152.656,-340.301 340.332,-340.301 187.654,0 340.334,152.68 340.334,340.301 0,33.918 -5.16,66.679 -14.44,97.608 l 194.09,159.14 c 74.14,-54.08 165.17,-86.36 263.96,-86.36 19.43,0 38.44,1.64 57.23,4.04 l 192.2,-507.03 C 1857.52,533.969 1812.13,442.5 1812.13,340.391 1812.13,152.699 1964.8,0 2152.48,0 c 187.64,0 340.31,152.699 340.31,340.391 0,187.25 -152.01,339.57 -339.08,340.238"
         style="fill:#1f5788;fill-opacity:1;fill-rule:nonzero;stroke:none"
         id="path32"
         inkscape:connector-curvature="0" /></g></g></svg>