<?xml version="1.0" encoding="UTF-8" standalone="no"?>
<!-- Created with Inkscape (http://www.inkscape.org/) -->

<svg
   xmlns:dc="http://purl.org/dc/elements/1.1/"
   xmlns:cc="http://creativecommons.org/ns#"
   xmlns:rdf="http://www.w3.org/1999/02/22-rdf-syntax-ns#"
   xmlns:svg="http://www.w3.org/2000/svg"
   xmlns="http://www.w3.org/2000/svg"
   xmlns:sodipodi="http://sodipodi.sourceforge.net/DTD/sodipodi-0.dtd"
   xmlns:inkscape="http://www.inkscape.org/namespaces/inkscape"
   version="1.1"
   id="svg2"
   xml:space="preserve"
   width="912.21332"
   height="413.50668"
   viewBox="0 0 912.21332 413.50668"
   sodipodi:docname="logo_tecfa.svg"
   inkscape:version="0.92.3 (2405546, 2018-03-11)"><metadata
     id="metadata8"><rdf:RDF><cc:Work
         rdf:about=""><dc:format>image/svg+xml</dc:format><dc:type
           rdf:resource="http://purl.org/dc/dcmitype/StillImage" /><dc:title></dc:title></cc:Work></rdf:RDF></metadata><defs
     id="defs6" /><sodipodi:namedview
     pagecolor="#ffffff"
     bordercolor="#666666"
     borderopacity="1"
     objecttolerance="10"
     gridtolerance="10"
     guidetolerance="10"
     inkscape:pageopacity="0"
     inkscape:pageshadow="2"
     inkscape:window-width="640"
     inkscape:window-height="480"
     id="namedview4"
     showgrid="false"
     inkscape:zoom="0.3902596"
     inkscape:cx="456.10666"
     inkscape:cy="206.75334"
     inkscape:window-x="0"
     inkscape:window-y="0"
     inkscape:window-maximized="0"
     inkscape:current-layer="g10" /><g
     id="g10"
     inkscape:groupmode="layer"
     inkscape:label="ink_ext_XXXXXX"
     transform="matrix(1.3333333,0,0,-1.3333333,0,413.50667)"><g
       id="g12"
       transform="scale(0.1)"><path
         d="m 2422.34,348.59 c 0,-149.078 -120.82,-269.9611 -269.86,-269.9611 -149.06,0 -269.92,120.8831 -269.92,269.9611 0,149.031 120.86,269.871 269.92,269.871 149.04,0 269.86,-120.84 269.86,-269.871"
         style="fill:#d96c1c;fill-opacity:1;fill-rule:nonzero;stroke:none"
         id="path14"
         inkscape:connector-curvature="0" /><path
         d="m 1164.57,937.211 c 0,-148.602 -120.43,-268.949 -268.984,-268.949 -148.574,0 -268.984,120.347 -268.984,268.949 0,148.589 120.41,268.999 268.984,268.999 148.554,0 268.984,-120.41 268.984,-268.999"
         style="fill:#7965a7;fill-opacity:1;fill-rule:nonzero;stroke:none"
         id="path16"
         inkscape:connector-curvature="0" /><path
         d="m 608.516,2392.75 c 0,-148.53 -120.45,-269 -269.024,-269 -148.554,0 -269.0037,120.47 -269.0037,269 0,148.62 120.4497,269.05 269.0037,269.05 148.574,0 269.024,-120.43 269.024,-269.05"
         style="fill:#72cbf0;fill-opacity:1;fill-rule:nonzero;stroke:none"
         id="path18"
         inkscape:connector-curvature="0" /><path
         d="m 2429.32,2760.9 c 0,-148.36 -120.28,-268.67 -268.66,-268.67 -148.39,0 -268.67,120.31 -268.67,268.67 0,148.38 120.28,268.69 268.67,268.69 148.38,0 268.66,-120.31 268.66,-268.69"
         style="fill:#95c123;fill-opacity:1;fill-rule:nonzero;stroke:none"
         id="path20"
         inkscape:connector-curvature="0" /><path
         d="m 2798.03,2948.52 h 278.45 v -420.45 h 172 v -218.38 h -172 v -767.15 c 0,-32.75 3.15,-58.24 9.56,-76.41 6.36,-18.22 16.36,-31.87 30.03,-40.95 13.64,-9.14 31.41,-14.59 53.25,-16.41 21.81,-1.82 48.18,-2.7 79.16,-2.7 v -262.09 h -114.67 c -63.73,0 -116.95,9.97 -159.71,30 -42.79,20.04 -76.89,45.47 -102.36,76.47 -25.51,30.94 -44.16,65.92 -55.98,105.12 -11.85,39.08 -17.73,76.81 -17.73,113.26 v 840.86 h -139.22 v 218.38 h 139.22 v 420.45"
         style="fill:#1f5788;fill-opacity:1;fill-rule:nonzero;stroke:none"
         id="path22"
         inkscape:connector-curvature="0" /><path
         d="m 3636.11,1949.32 h 272.99 v 158.34 c 0,52.77 -12.24,92.34 -36.8,118.75 -24.6,26.36 -57.83,39.61 -99.66,39.61 -41.9,0 -75.06,-13.25 -99.67,-39.61 -24.55,-26.41 -36.86,-65.98 -36.86,-118.75 z m 0,-218.38 v -188.4 c 0,-43.65 12.31,-77.34 36.86,-101.02 24.61,-23.67 57.77,-35.45 99.67,-35.45 52.73,0 87.77,15.41 105.11,46.41 17.29,30.88 27.72,61.82 31.35,92.81 h 278.5 c 0,-58.3 -9.55,-112.91 -28.65,-163.83 -19.11,-50.97 -46.88,-94.62 -83.27,-131.01 -36.44,-38.2 -80.15,-68.26 -131.07,-90.12 -50.98,-21.79 -108.28,-32.75 -171.97,-32.75 -85.55,0 -159.26,18.16 -221.14,54.61 -61.87,36.38 -109.21,84.61 -141.97,144.67 -20.04,36.38 -33.69,78.28 -40.96,125.62 -7.26,47.29 -10.89,99.14 -10.89,155.57 v 455.93 c 0,56.39 3.63,108.25 10.89,155.59 7.27,47.32 20.92,89.18 40.96,125.61 32.76,60.05 80.1,108.24 141.97,144.68 61.88,36.39 135.59,54.59 221.14,54.59 63.69,0 121.46,-10.9 173.32,-32.75 51.91,-21.84 95.56,-52.32 131.07,-91.45 35.51,-39.16 62.81,-85.09 81.92,-137.87 19.1,-52.81 28.65,-109.22 28.65,-169.27 v -382.17 h -551.49"
         style="fill:#1f5788;fill-opacity:1;fill-rule:nonzero;stroke:none"
         id="path24"
         inkscape:connector-curvature="0" /><path
         d="m 4605.25,1542.54 c 0,-43.65 12.31,-77.34 36.86,-101.02 24.55,-23.67 57.77,-35.45 99.67,-35.45 52.73,0 87.77,15.41 105.11,46.41 17.23,30.88 27.72,61.82 31.35,92.81 h 278.5 c 0,-58.3 -9.55,-112.91 -28.65,-163.83 -19.16,-50.97 -46.94,-94.62 -83.32,-131.01 -36.39,-38.2 -80.1,-68.26 -131.02,-90.12 -50.98,-21.79 -108.28,-32.75 -171.97,-32.75 -85.61,0 -159.32,18.16 -221.14,54.61 -61.93,36.38 -109.21,84.61 -141.97,144.67 -20.04,36.38 -33.69,78.28 -40.96,125.62 -7.26,47.29 -10.89,99.14 -10.89,155.57 v 455.93 c 0,56.39 3.63,108.25 10.89,155.59 7.27,47.32 20.92,89.18 40.96,125.61 32.76,60.05 80.04,108.24 141.97,144.68 61.82,36.39 135.53,54.59 221.14,54.59 63.69,0 121.46,-10.9 173.32,-32.75 51.91,-21.84 95.56,-52.32 131.07,-91.45 35.45,-39.16 62.76,-86.01 81.92,-140.58 19.1,-54.61 28.65,-113.79 28.65,-177.46 h -278.5 c 0,56.36 -12.24,97.79 -36.85,124.2 -24.55,26.36 -57.78,39.61 -99.61,39.61 -41.9,0 -75.12,-13.25 -99.67,-39.61 -24.55,-26.41 -36.86,-65.98 -36.86,-118.75 v -565.12"
         style="fill:#1f5788;fill-opacity:1;fill-rule:nonzero;stroke:none"
         id="path26"
         inkscape:connector-curvature="0" /><path
         d="m 5386.02,2309.69 h -136.47 v 218.38 h 136.47 v 188.38 c 0,67.32 10.02,124.21 30.05,170.62 19.98,46.41 46.82,84.65 80.51,114.67 33.69,30.04 71.9,51.85 114.67,65.51 42.71,13.65 86.89,20.48 132.42,20.48 h 128.32 v -262.09 h -125.62 c -54.61,0 -81.86,-31.85 -81.86,-95.54 v -202.03 h 207.48 V 2309.69 H 5664.51 V 1143.98 h -278.49 v 1165.71"
         style="fill:#1f5788;fill-opacity:1;fill-rule:nonzero;stroke:none"
         id="path28"
         inkscape:connector-curvature="0" /><path
         d="m 6510.72,1739.1 c -30.93,5.45 -56.42,8.2 -76.4,8.2 -60.06,0 -111.51,-14.12 -154.28,-42.32 -42.77,-28.26 -64.16,-79.65 -64.16,-154.24 0,-52.79 12.71,-95.56 38.26,-128.32 25.43,-32.75 60.94,-49.16 106.47,-49.16 47.28,0 84.14,15.47 110.56,46.47 26.37,30.88 39.55,74.59 39.55,131.01 z m 0,-453.14 h -5.45 c -36.44,-50.98 -73.3,-90.12 -110.56,-117.42 -37.33,-27.31 -89.65,-40.96 -156.98,-40.96 -32.75,0 -66.44,5.04 -101.01,15 -34.57,10.02 -66.86,28.24 -96.92,54.61 -30,26.36 -54.6,63.69 -73.71,111.97 -19.1,48.16 -28.65,110.57 -28.65,186.97 0,78.23 6.33,146.96 19.1,206.12 12.72,59.12 35.92,108.26 69.61,147.42 33.69,39.12 78.69,68.26 135.12,87.36 56.43,19.1 128.32,28.65 215.68,28.65 20.04,0 40.02,-0.93 60.06,-2.71 20.04,-1.82 44.59,-3.67 73.71,-5.45 v 144.69 c 0,47.28 -10.02,86.4 -30,117.36 -20.04,30.94 -56.42,46.45 -109.22,46.45 -36.44,0 -69.61,-11.88 -99.66,-35.51 -30,-23.67 -49.57,-58.28 -58.66,-103.75 h -270.29 c 9.08,125.6 50.92,225.64 125.57,300.29 36.38,36.39 80.09,65.08 131.07,86.02 50.92,20.89 108.22,31.38 171.97,31.38 58.25,0 112.86,-9.12 163.83,-27.28 50.92,-18.22 95.04,-45.53 132.37,-81.92 37.32,-36.4 66.91,-81.87 88.76,-136.48 21.8,-54.61 32.76,-118.34 32.76,-191.11 v -963.68 h -278.5 v 141.98"
         style="fill:#1f5788;fill-opacity:1;fill-rule:nonzero;stroke:none"
         id="path30"
         inkscape:connector-curvature="0" /><path
         d="m 2848.91,901.762 h -60.18 v 48.937 h 172.36 v -48.937 h -60.17 v -314.18 h -52.01 v 314.18"
         style="fill:#656263;fill-opacity:1;fill-rule:nonzero;stroke:none"
         id="path32"
         inkscape:connector-curvature="0" /><path
         d="m 2996.8,738.051 h 50.99 v 29.59 c 0,9.839 -2.28,17.218 -6.87,22.16 -4.61,4.929 -10.8,7.39 -18.62,7.39 -7.83,0 -14.02,-2.461 -18.61,-7.39 -4.59,-4.942 -6.89,-12.321 -6.89,-22.16 z m 0,-40.821 v -35.179 c 0,-8.141 2.3,-14.469 6.89,-18.871 4.59,-4.43 10.78,-6.621 18.61,-6.621 9.87,0 16.41,2.871 19.63,8.671 3.25,5.79 5.18,11.551 5.86,17.352 h 52.03 c 0,-10.902 -1.79,-21.102 -5.37,-30.633 -3.55,-9.508 -8.73,-17.648 -15.52,-24.449 -6.82,-7.148 -14.98,-12.77 -24.5,-16.84 -9.53,-4.078 -20.23,-6.129 -32.13,-6.129 -15.99,0 -29.74,3.399 -41.3,10.199 -11.57,6.79 -20.41,15.821 -26.53,27.032 -3.75,6.789 -6.29,14.629 -7.65,23.468 -1.37,8.852 -2.03,18.52 -2.03,29.071 v 85.148 c 0,10.531 0.66,20.262 2.03,29.102 1.36,8.828 3.9,16.648 7.65,23.437 6.12,11.211 14.96,20.223 26.53,27.012 11.56,6.801 25.31,10.219 41.3,10.219 11.9,0 22.68,-2.028 32.39,-6.11 9.69,-4.109 17.83,-9.789 24.47,-17.109 6.64,-7.289 11.74,-15.879 15.29,-25.73 3.58,-9.879 5.37,-20.391 5.37,-31.641 V 697.23 H 2996.8"
         style="fill:#656263;fill-opacity:1;fill-rule:nonzero;stroke:none"
         id="path34"
         inkscape:connector-curvature="0" /><path
         d="m 3185.49,662.051 c 0,-8.141 2.3,-14.469 6.89,-18.871 4.59,-4.43 10.8,-6.621 18.62,-6.621 9.86,0 16.4,2.871 19.64,8.671 3.23,5.79 5.18,11.551 5.86,17.352 h 52.02 c 0,-10.902 -1.78,-21.102 -5.34,-30.633 -3.59,-9.508 -8.77,-17.648 -15.56,-24.449 -6.82,-7.148 -14.98,-12.77 -24.48,-16.84 -9.53,-4.078 -20.25,-6.129 -32.14,-6.129 -15.98,0 -29.75,3.399 -41.31,10.199 -11.55,6.79 -20.41,15.821 -26.51,27.032 -3.75,6.789 -6.3,14.629 -7.65,23.468 -1.37,8.852 -2.05,18.52 -2.05,29.071 v 85.148 c 0,10.531 0.68,20.262 2.05,29.102 1.35,8.828 3.9,16.648 7.65,23.437 6.1,11.211 14.96,20.223 26.51,27.012 11.56,6.801 25.33,10.219 41.31,10.219 11.89,0 22.71,-2.028 32.38,-6.11 9.71,-4.109 17.87,-9.789 24.49,-17.109 6.64,-7.289 11.72,-16.059 15.31,-26.25 3.56,-10.199 5.34,-21.23 5.34,-33.168 h -52.02 c 0,10.547 -2.3,18.277 -6.87,23.219 -4.59,4.929 -10.8,7.39 -18.63,7.39 -7.82,0 -14.03,-2.461 -18.62,-7.39 -4.59,-4.942 -6.89,-12.321 -6.89,-22.16 v -105.59"
         style="fill:#656263;fill-opacity:1;fill-rule:nonzero;stroke:none"
         id="path36"
         inkscape:connector-curvature="0" /><path
         d="m 3313.03,950.699 h 52.03 V 821.191 h 0.99 c 5.45,8.149 11.96,14.86 19.63,20.141 7.68,5.27 17.41,7.887 29.3,7.887 6.5,0 12.95,-1.098 19.4,-3.297 6.44,-2.231 12.24,-5.863 17.34,-10.961 5.1,-5.102 9.2,-11.66 12.24,-19.652 3.05,-8.008 4.58,-17.789 4.58,-29.329 V 587.582 h -51.98 v 179 c 0,9.547 -2.22,17.008 -6.68,22.438 -4.39,5.449 -10.66,8.171 -18.86,8.171 -9.85,0 -16.64,-3.07 -20.39,-9.16 -3.75,-6.121 -5.57,-14.98 -5.57,-26.551 V 587.582 h -52.03 v 363.117"
         style="fill:#656263;fill-opacity:1;fill-rule:nonzero;stroke:none"
         id="path38"
         inkscape:connector-curvature="0" /><path
         d="m 3508.85,846.148 h 52.03 v -24.957 h 1 c 5.44,8.149 12.01,14.86 19.62,20.141 7.68,5.27 17.46,7.887 29.36,7.887 6.44,0 12.89,-1.098 19.34,-3.297 6.5,-2.231 12.24,-5.863 17.34,-10.961 5.1,-5.102 9.2,-11.66 12.25,-19.652 3.1,-8.008 4.62,-17.789 4.62,-29.329 V 587.582 h -52.03 v 179 c 0,9.547 -2.22,17.008 -6.62,22.438 -4.45,5.449 -10.72,8.171 -18.87,8.171 -9.9,0 -16.69,-3.07 -20.44,-9.16 -3.7,-6.121 -5.57,-14.98 -5.57,-26.551 V 587.582 h -52.03 v 258.566"
         style="fill:#656263;fill-opacity:1;fill-rule:nonzero;stroke:none"
         id="path40"
         inkscape:connector-curvature="0" /><path
         d="m 3752.13,666.148 c 0,-9.898 2.28,-17.277 6.85,-22.199 4.63,-4.929 10.79,-7.39 18.64,-7.39 7.79,0 14,2.461 18.63,7.39 4.57,4.922 6.86,12.301 6.86,22.199 v 101.493 c 0,9.839 -2.29,17.218 -6.86,22.16 -4.63,4.929 -10.84,7.39 -18.63,7.39 -7.85,0 -14.01,-2.461 -18.64,-7.39 -4.57,-4.942 -6.85,-12.321 -6.85,-22.16 z m -52.03,93.301 c 0,10.531 0.64,20.262 2.05,29.102 1.35,8.828 3.87,16.648 7.62,23.437 6.15,11.211 15,20.223 26.54,27.012 11.54,6.801 25.31,10.219 41.31,10.219 15.99,0 29.76,-3.418 41.31,-10.219 11.54,-6.789 20.39,-15.801 26.48,-27.012 3.75,-6.789 6.33,-14.609 7.68,-23.437 1.34,-8.84 2.05,-18.571 2.05,-29.102 v -85.148 c 0,-10.551 -0.71,-20.219 -2.05,-29.071 -1.35,-8.839 -3.93,-16.679 -7.68,-23.468 -6.09,-11.211 -14.94,-20.242 -26.48,-27.032 -11.55,-6.8 -25.32,-10.199 -41.31,-10.199 -16,0 -29.77,3.399 -41.31,10.199 -11.54,6.79 -20.39,15.821 -26.54,27.032 -3.75,6.789 -6.27,14.629 -7.62,23.468 -1.41,8.852 -2.05,18.52 -2.05,29.071 v 85.148"
         style="fill:#656263;fill-opacity:1;fill-rule:nonzero;stroke:none"
         id="path42"
         inkscape:connector-curvature="0" /><path
         d="m 3887.77,950.699 h 52.03 V 660.531 c 0,-9.871 1.76,-16.582 5.34,-20.16 3.57,-3.57 10.31,-5.859 20.15,-6.891 v -48.949 c -11.89,0 -22.67,0.938 -32.4,2.809 -9.67,1.879 -17.81,5.449 -24.49,10.73 -6.62,5.25 -11.72,12.649 -15.29,22.141 -3.58,9.559 -5.34,21.777 -5.34,36.738 v 293.75"
         style="fill:#656263;fill-opacity:1;fill-rule:nonzero;stroke:none"
         id="path44"
         inkscape:connector-curvature="0" /><path
         d="m 4033.09,666.148 c 0,-9.898 2.34,-17.277 6.91,-22.199 4.57,-4.929 10.78,-7.39 18.63,-7.39 7.8,0 14.01,2.461 18.58,7.39 4.63,4.922 6.91,12.301 6.91,22.199 v 101.493 c 0,9.839 -2.28,17.218 -6.91,22.16 -4.57,4.929 -10.78,7.39 -18.58,7.39 -7.85,0 -14.06,-2.461 -18.63,-7.39 -4.57,-4.942 -6.91,-12.321 -6.91,-22.16 z m -51.98,93.301 c 0,10.531 0.65,20.262 2,29.102 1.4,8.828 3.92,16.648 7.67,23.437 6.1,11.211 14.94,20.223 26.54,27.012 11.55,6.801 25.32,10.219 41.31,10.219 15.94,0 29.71,-3.418 41.31,-10.219 11.54,-6.789 20.39,-15.801 26.49,-27.012 3.75,-6.789 6.32,-14.609 7.67,-23.437 1.35,-8.84 2.05,-18.571 2.05,-29.102 v -85.148 c 0,-10.551 -0.7,-20.219 -2.05,-29.071 -1.35,-8.839 -3.92,-16.679 -7.67,-23.468 -6.1,-11.211 -14.95,-20.242 -26.49,-27.032 -11.6,-6.8 -25.37,-10.199 -41.31,-10.199 -15.99,0 -29.76,3.399 -41.31,10.199 -11.6,6.79 -20.44,15.821 -26.54,27.032 -3.75,6.789 -6.27,14.629 -7.67,23.468 -1.35,8.852 -2,18.52 -2,29.071 v 85.148"
         style="fill:#656263;fill-opacity:1;fill-rule:nonzero;stroke:none"
         id="path46"
         inkscape:connector-curvature="0" /><path
         d="m 4226.39,667.148 c 0,-8.148 1.81,-15.289 5.39,-21.41 3.57,-6.129 10.25,-9.179 20.1,-9.179 7.5,0 13.71,2.64 18.63,7.91 4.92,5.281 7.38,11.961 7.38,20.14 v 100.45 c 0,9.55 -2.34,17.281 -7.15,23.203 -4.74,5.976 -11.01,8.929 -18.86,8.929 -8.85,0 -15.3,-3.211 -19.34,-9.691 -4.1,-6.449 -6.15,-14.941 -6.15,-25.488 z m 0,-109.628 c 0.35,-6.149 2.81,-11.899 7.38,-17.34 4.63,-5.45 11.31,-8.192 20.16,-8.192 8.49,0 14.64,2.66 18.39,7.934 3.7,5.277 5.57,11.969 5.57,20.117 v 51.031 h -1 c -5.8,-8.531 -12.65,-15.05 -20.68,-19.66 -7.97,-4.59 -17.23,-6.879 -27.77,-6.879 -21.45,0 -36.56,8.149 -45.41,24.489 -3.05,5.781 -5.28,12.89 -6.62,21.41 -1.35,8.48 -2.05,19.902 -2.05,34.179 v 98.442 c 0,18.668 0.52,32.461 1.58,41.289 0.99,8.82 3.22,15.969 6.62,21.422 4.39,6.797 10.08,12.418 17.05,16.82 6.97,4.406 16.76,6.637 29.35,6.637 6.45,0 11.96,-0.668 16.59,-2.028 4.57,-1.39 8.73,-3.261 12.48,-5.609 3.75,-2.402 7.15,-5.211 10.19,-8.441 3.05,-3.219 6.27,-6.692 9.67,-10.43 v 23.437 h 52.03 V 555.98 c 0,-8.832 -1.46,-17.781 -4.33,-26.761 -2.88,-9.02 -7.56,-17.168 -14.01,-24.489 -6.44,-7.332 -14.65,-13.281 -24.49,-17.871 -9.84,-4.57 -21.62,-6.859 -35.21,-6.859 -7.8,0 -15.94,1.25 -24.44,3.809 -8.49,2.562 -16.4,6.8 -23.73,12.75 -7.32,5.941 -13.59,13.851 -18.87,23.691 -5.27,9.91 -8.79,22.289 -10.48,37.27 h 52.03"
         style="fill:#656263;fill-opacity:1;fill-rule:nonzero;stroke:none"
         id="path48"
         inkscape:connector-curvature="0" /><path
         d="m 4372.75,846.148 h 52.04 V 587.582 h -52.04 z m 0,104.551 h 52.04 v -51.988 h -52.04 v 51.988"
         style="fill:#656263;fill-opacity:1;fill-rule:nonzero;stroke:none"
         id="path50"
         inkscape:connector-curvature="0" /><path
         d="m 4512.5,738.051 h 50.98 v 29.59 c 0,9.839 -2.29,17.218 -6.86,22.16 -4.63,4.929 -10.84,7.39 -18.63,7.39 -7.85,0 -14.01,-2.461 -18.63,-7.39 -4.57,-4.942 -6.86,-12.321 -6.86,-22.16 z m 0,-40.821 v -35.179 c 0,-8.141 2.29,-14.469 6.86,-18.871 4.62,-4.43 10.78,-6.621 18.63,-6.621 9.84,0 16.4,2.871 19.63,8.671 3.22,5.79 5.15,11.551 5.86,17.352 h 52.03 c 0,-10.902 -1.82,-21.102 -5.39,-30.633 -3.52,-9.508 -8.73,-17.648 -15.53,-24.449 -6.8,-7.148 -14.94,-12.77 -24.49,-16.84 -9.49,-4.078 -20.22,-6.129 -32.11,-6.129 -16,0 -29.77,3.399 -41.31,10.199 -11.54,6.79 -20.39,15.821 -26.54,27.032 -3.75,6.789 -6.27,14.629 -7.62,23.468 -1.41,8.852 -2.05,18.52 -2.05,29.071 v 85.148 c 0,10.531 0.64,20.262 2.05,29.102 1.35,8.828 3.87,16.648 7.62,23.437 6.15,11.211 15,20.223 26.54,27.012 11.54,6.801 25.31,10.219 41.31,10.219 11.89,0 22.67,-2.028 32.4,-6.11 9.67,-4.109 17.81,-9.789 24.43,-17.109 6.68,-7.289 11.78,-15.879 15.3,-25.73 3.57,-9.879 5.39,-20.391 5.39,-31.641 V 697.23 H 4512.5"
         style="fill:#656263;fill-opacity:1;fill-rule:nonzero;stroke:none"
         id="path52"
         inkscape:connector-curvature="0" /><path
         d="m 4740.43,773.73 c -0.29,8.852 -3.11,15.469 -8.38,19.918 -5.27,4.403 -11.31,6.622 -18.1,6.622 -8.15,0 -14.48,-2.629 -18.87,-7.911 -4.45,-5.269 -6.62,-11.308 -6.62,-18.097 0,-4.774 1.17,-9.442 3.57,-14.032 2.35,-4.609 8.5,-8.769 18.34,-12.519 l 30.59,-12.199 c 19.39,-7.481 32.75,-17.68 40.02,-30.633 7.32,-12.93 11.01,-27.008 11.01,-42.297 0,-10.902 -1.99,-21.023 -5.92,-30.352 -3.86,-9.378 -9.25,-17.621 -16.05,-24.73 -6.8,-7.148 -14.94,-12.77 -24.49,-16.84 -9.49,-4.078 -19.87,-6.129 -31.06,-6.129 -10.25,0 -19.92,1.699 -29.12,5.098 -9.14,3.402 -17.22,8.32 -24.2,14.781 -6.97,6.488 -12.65,14.539 -17.11,24.238 -4.39,9.672 -6.79,20.981 -7.09,33.934 h 48.93 c 1.05,-7.152 3.51,-13.773 7.38,-19.922 3.93,-6.101 10.78,-9.18 20.69,-9.18 7.44,0 14.18,2.5 20.15,7.418 5.92,4.922 8.91,11.782 8.91,20.622 0,7.152 -1.88,13.3 -5.63,18.402 -3.75,5.098 -10.54,9.488 -20.39,13.238 l -24.96,9.199 c -16.35,6.102 -29.18,15.18 -38.55,27.25 -9.32,12.071 -14.01,26.782 -14.01,44.121 0,10.899 2.05,21 6.1,30.352 4.1,9.379 9.61,17.348 16.58,23.969 6.97,6.621 15.06,11.828 24.26,15.578 9.14,3.711 19.04,5.59 29.59,5.59 10.48,0 20.27,-1.949 29.29,-5.879 9.03,-3.891 16.76,-9.141 23.21,-15.801 6.44,-6.641 11.54,-14.609 15.29,-23.949 3.75,-9.352 5.62,-19.309 5.62,-29.86 h -48.98"
         style="fill:#656263;fill-opacity:1;fill-rule:nonzero;stroke:none"
         id="path54"
         inkscape:connector-curvature="0" /><path
         d="m 4962.32,671.762 c 0,-10.551 2,-19.082 6.1,-25.532 4.1,-6.441 10.54,-9.671 19.39,-9.671 7.8,0 14.07,2.972 18.87,8.91 4.75,5.941 7.15,13.711 7.15,23.203 V 769.16 c 0,8.141 -2.52,14.879 -7.44,20.16 -4.93,5.25 -11.14,7.871 -18.58,7.871 -9.9,0 -16.58,-3.07 -20.15,-9.16 -3.58,-6.121 -5.34,-13.261 -5.34,-21.449 z m 51.51,-60.692 c -3.4,-3.75 -6.68,-7.261 -9.73,-10.48 -3.05,-3.231 -6.44,-6.039 -10.19,-8.399 -3.75,-2.39 -7.97,-4.261 -12.72,-5.609 -4.8,-1.352 -10.43,-2.051 -16.87,-2.051 -21.39,0 -36.57,8.149 -45.36,24.489 -3.1,5.781 -5.27,12.89 -6.62,21.41 -1.4,8.48 -2.05,19.902 -2.05,34.179 v 98.442 c 0,18.668 0.47,32.461 1.53,41.289 0.99,8.82 3.22,15.969 6.62,21.422 4.39,6.797 10.13,12.418 17.11,16.82 6.91,4.406 16.7,6.637 29.29,6.637 10.2,0 19.28,-2.309 27.31,-6.879 7.97,-4.61 14.82,-11.129 20.62,-19.629 h 1.06 v 127.988 h 51.97 V 587.582 h -51.97 v 23.488"
         style="fill:#656263;fill-opacity:1;fill-rule:nonzero;stroke:none"
         id="path56"
         inkscape:connector-curvature="0" /><path
         d="m 5153.52,738.051 h 51.03 v 29.59 c 0,9.839 -2.28,17.218 -6.91,22.16 -4.57,4.929 -10.78,7.39 -18.58,7.39 -7.85,0 -14.06,-2.461 -18.63,-7.39 -4.57,-4.942 -6.91,-12.321 -6.91,-22.16 z m 0,-40.821 v -35.179 c 0,-8.141 2.34,-14.469 6.91,-18.871 4.57,-4.43 10.78,-6.621 18.63,-6.621 9.85,0 16.41,2.871 19.63,8.671 3.22,5.79 5.16,11.551 5.86,17.352 h 52.03 c 0,-10.902 -1.81,-21.102 -5.39,-30.633 -3.57,-9.508 -8.73,-17.648 -15.53,-24.449 -6.79,-7.148 -15,-12.77 -24.49,-16.84 -9.55,-4.078 -20.21,-6.129 -32.11,-6.129 -15.99,0 -29.76,3.399 -41.31,10.199 -11.6,6.79 -20.45,15.821 -26.54,27.032 -3.75,6.789 -6.27,14.629 -7.67,23.468 -1.35,8.852 -2,18.52 -2,29.071 v 85.148 c 0,10.531 0.65,20.262 2,29.102 1.4,8.828 3.92,16.648 7.67,23.437 6.09,11.211 14.94,20.223 26.54,27.012 11.55,6.801 25.32,10.219 41.31,10.219 11.9,0 22.68,-2.028 32.35,-6.11 9.72,-4.109 17.87,-9.789 24.49,-17.109 6.62,-7.289 11.72,-15.879 15.29,-25.73 3.58,-9.879 5.39,-20.391 5.39,-31.641 V 697.23 h -103.06"
         style="fill:#656263;fill-opacity:1;fill-rule:nonzero;stroke:none"
         id="path58"
         inkscape:connector-curvature="0" /><path
         d="m 5380.98,805.371 h -25.49 v 40.777 h 25.49 v 35.223 c 0,12.539 1.87,23.199 5.62,31.867 3.75,8.672 8.73,15.782 15.06,21.391 6.27,5.621 13.42,9.73 21.39,12.242 7.97,2.578 16.23,3.828 24.72,3.828 h 23.97 v -48.937 h -23.44 c -10.19,0 -15.29,-5.981 -15.29,-17.871 v -37.743 h 38.73 v -40.777 h -38.73 V 587.582 h -52.03 v 217.789"
         style="fill:#656263;fill-opacity:1;fill-rule:nonzero;stroke:none"
         id="path60"
         inkscape:connector-curvature="0" /><path
         d="m 5532.44,666.148 c 0,-9.898 2.29,-17.277 6.92,-22.199 4.57,-4.929 10.78,-7.39 18.57,-7.39 7.85,0 14.06,2.461 18.63,7.39 4.57,4.922 6.92,12.301 6.92,22.199 v 101.493 c 0,9.839 -2.35,17.218 -6.92,22.16 -4.57,4.929 -10.78,7.39 -18.63,7.39 -7.79,0 -14,-2.461 -18.57,-7.39 -4.63,-4.942 -6.92,-12.321 -6.92,-22.16 z m -52.03,93.301 c 0,10.531 0.7,20.262 2.05,29.102 1.35,8.828 3.93,16.648 7.68,23.437 6.09,11.211 14.94,20.223 26.48,27.012 11.6,6.801 25.37,10.219 41.31,10.219 16,0 29.77,-3.418 41.31,-10.219 11.6,-6.789 20.45,-15.801 26.54,-27.012 3.75,-6.789 6.27,-14.609 7.68,-23.437 1.34,-8.84 1.99,-18.571 1.99,-29.102 v -85.148 c 0,-10.551 -0.65,-20.219 -1.99,-29.071 -1.41,-8.839 -3.93,-16.679 -7.68,-23.468 -6.09,-11.211 -14.94,-20.242 -26.54,-27.032 -11.54,-6.8 -25.31,-10.199 -41.31,-10.199 -15.94,0 -29.71,3.399 -41.31,10.199 -11.54,6.79 -20.39,15.821 -26.48,27.032 -3.75,6.789 -6.33,14.629 -7.68,23.468 -1.35,8.852 -2.05,18.52 -2.05,29.071 v 85.148"
         style="fill:#656263;fill-opacity:1;fill-rule:nonzero;stroke:none"
         id="path62"
         inkscape:connector-curvature="0" /><path
         d="m 5668.61,846.148 h 52.03 v -27.539 c 10.55,9.512 20.92,17 31.12,22.442 10.19,5.449 22.79,8.168 37.73,8.168 v -55.098 c -5.1,2.051 -10.37,3.07 -15.82,3.07 -5.45,0 -11.31,-0.941 -17.58,-2.781 -6.32,-1.871 -12.07,-5.039 -17.34,-9.43 -5.27,-4.449 -9.61,-10.21 -13.01,-17.339 -3.4,-7.153 -5.1,-16 -5.1,-26.551 V 587.582 h -52.03 v 258.566"
         style="fill:#656263;fill-opacity:1;fill-rule:nonzero;stroke:none"
         id="path64"
         inkscape:connector-curvature="0" /><path
         d="m 5810.41,846.148 h 52.03 v -24.957 h 1 c 5.45,8.149 12.01,14.86 19.63,20.141 7.67,5.27 17.46,7.887 29.35,7.887 11.19,0 20.57,-2.719 28.01,-8.168 7.5,-5.442 13.59,-11.36 18.4,-17.852 6.44,7.133 13.59,13.281 21.38,18.383 7.86,5.098 18.7,7.637 32.64,7.637 6.51,0 13.13,-1.098 19.92,-3.297 6.8,-2.231 12.89,-5.863 18.34,-10.961 5.45,-5.102 9.85,-11.66 13.3,-19.652 3.34,-8.008 5.1,-17.789 5.1,-29.329 V 587.582 h -52.03 v 179 c 0,9.547 -2.23,17.008 -6.62,22.438 -4.45,5.449 -10.72,8.171 -18.87,8.171 -9.9,0 -16.7,-3.07 -20.45,-9.16 -3.75,-6.121 -5.56,-14.98 -5.56,-26.551 V 587.582 h -52.03 v 179 c 0,9.547 -2.23,17.008 -6.63,22.438 -4.45,5.449 -10.72,8.171 -18.86,8.171 -9.91,0 -16.7,-3.07 -20.45,-9.16 -3.69,-6.121 -5.57,-14.98 -5.57,-26.551 V 587.582 h -52.03 v 258.566"
         style="fill:#656263;fill-opacity:1;fill-rule:nonzero;stroke:none"
         id="path66"
         inkscape:connector-curvature="0" /><path
         d="m 6210.78,698.789 c -5.8,1 -10.55,1.52 -14.3,1.52 -11.25,0 -20.85,-2.629 -28.82,-7.911 -7.97,-5.269 -11.96,-14.878 -11.96,-28.828 0,-9.84 2.35,-17.832 7.09,-23.961 4.81,-6.129 11.43,-9.179 19.92,-9.179 8.85,0 15.71,2.89 20.63,8.652 4.92,5.797 7.44,13.949 7.44,24.488 z m 0,-84.668 h -1.05 c -6.8,-9.551 -13.66,-16.82 -20.63,-21.93 -6.97,-5.121 -16.76,-7.66 -29.35,-7.66 -6.1,0 -12.43,0.938 -18.87,2.809 -6.45,1.879 -12.48,5.281 -18.11,10.199 -5.62,4.922 -10.19,11.891 -13.77,20.922 -3.57,9 -5.33,20.621 -5.33,34.918 0,14.633 1.17,27.441 3.58,38.492 2.34,11.078 6.68,20.238 13,27.539 6.27,7.328 14.71,12.781 25.2,16.352 10.55,3.578 24.02,5.328 40.31,5.328 3.75,0 7.5,-0.168 11.25,-0.5 3.69,-0.36 8.32,-0.668 13.77,-1.02 v 27.012 c 0,8.848 -1.87,16.168 -5.62,21.969 -3.75,5.75 -10.55,8.64 -20.39,8.64 -6.8,0 -13.01,-2.191 -18.64,-6.601 -5.62,-4.442 -9.25,-10.879 -10.95,-19.379 h -50.51 c 1.7,23.437 9.55,42.129 23.49,56.078 6.8,6.793 14.95,12.16 24.44,16.051 9.55,3.93 20.21,5.879 32.17,5.879 10.84,0 21.03,-1.719 30.58,-5.117 9.49,-3.403 17.76,-8.493 24.73,-15.293 6.97,-6.797 12.48,-15.289 16.58,-25.489 4.1,-10.199 6.09,-22.09 6.09,-35.679 V 587.582 h -51.97 v 26.539"
         style="fill:#656263;fill-opacity:1;fill-rule:nonzero;stroke:none"
         id="path68"
         inkscape:connector-curvature="0" /><path
         d="m 6301.02,924.691 h 52.03 v -78.543 h 32.11 v -40.777 h -32.11 v -143.32 c 0,-6.11 0.58,-10.903 1.75,-14.301 1.24,-3.391 3.11,-5.91 5.63,-7.609 2.58,-1.7 5.86,-2.762 9.96,-3.071 4.1,-0.332 9.02,-0.511 14.77,-0.511 v -48.977 h -21.39 c -11.89,0 -21.86,1.867 -29.82,5.617 -8.03,3.75 -14.42,8.5 -19.16,14.301 -4.75,5.738 -8.27,12.301 -10.43,19.629 -2.23,7.281 -3.34,14.351 -3.34,21.152 v 157.09 H 6275 v 40.777 h 26.02 v 78.543"
         style="fill:#656263;fill-opacity:1;fill-rule:nonzero;stroke:none"
         id="path70"
         inkscape:connector-curvature="0" /><path
         d="m 6407.6,846.148 h 52.03 V 587.582 h -52.03 z m 0,104.551 h 52.03 v -51.988 h -52.03 v 51.988"
         style="fill:#656263;fill-opacity:1;fill-rule:nonzero;stroke:none"
         id="path72"
         inkscape:connector-curvature="0" /><path
         d="m 6544.77,666.148 c 0,-9.898 2.34,-17.277 6.91,-22.199 4.57,-4.929 10.78,-7.39 18.63,-7.39 7.8,0 14.01,2.461 18.58,7.39 4.63,4.922 6.91,12.301 6.91,22.199 v 101.493 c 0,9.839 -2.28,17.218 -6.91,22.16 -4.57,4.929 -10.78,7.39 -18.58,7.39 -7.85,0 -14.06,-2.461 -18.63,-7.39 -4.57,-4.942 -6.91,-12.321 -6.91,-22.16 z m -51.98,93.301 c 0,10.531 0.65,20.262 2,29.102 1.4,8.828 3.92,16.648 7.67,23.437 6.09,11.211 14.94,20.223 26.54,27.012 11.55,6.801 25.32,10.219 41.31,10.219 15.94,0 29.71,-3.418 41.31,-10.219 11.54,-6.789 20.39,-15.801 26.49,-27.012 3.75,-6.789 6.32,-14.609 7.67,-23.437 1.35,-8.84 2.05,-18.571 2.05,-29.102 v -85.148 c 0,-10.551 -0.7,-20.219 -2.05,-29.071 -1.35,-8.839 -3.92,-16.679 -7.67,-23.468 -6.1,-11.211 -14.95,-20.242 -26.49,-27.032 -11.6,-6.8 -25.37,-10.199 -41.31,-10.199 -15.99,0 -29.76,3.399 -41.31,10.199 -11.6,6.79 -20.45,15.821 -26.54,27.032 -3.75,6.789 -6.27,14.629 -7.67,23.468 -1.35,8.852 -2,18.52 -2,29.071 v 85.148"
         style="fill:#656263;fill-opacity:1;fill-rule:nonzero;stroke:none"
         id="path74"
         inkscape:connector-curvature="0" /><path
         d="m 6686.04,846.148 h 52.03 v -24.957 h 1.05 c 5.39,8.149 11.95,14.86 19.63,20.141 7.62,5.27 17.4,7.887 29.3,7.887 6.44,0 12.95,-1.098 19.39,-3.297 6.45,-2.231 12.25,-5.863 17.35,-10.961 5.09,-5.102 9.19,-11.66 12.24,-19.652 3.05,-8.008 4.57,-17.789 4.57,-29.329 V 587.582 h -52.03 v 179 c 0,9.547 -2.17,17.008 -6.62,22.438 -4.4,5.449 -10.72,8.171 -18.87,8.171 -9.84,0 -16.64,-3.07 -20.39,-9.16 -3.75,-6.121 -5.62,-14.98 -5.62,-26.551 V 587.582 h -52.03 v 258.566"
         style="fill:#656263;fill-opacity:1;fill-rule:nonzero;stroke:none"
         id="path76"
         inkscape:connector-curvature="0" /><path
         d="m 2859.1,258.051 h 51 v 29.59 c 0,9.839 -2.29,17.218 -6.88,22.16 -4.61,4.929 -10.8,7.39 -18.61,7.39 -7.83,0 -14.02,-2.461 -18.61,-7.39 -4.59,-4.942 -6.9,-12.321 -6.9,-22.16 z m 0,-40.821 v -35.179 c 0,-8.141 2.31,-14.469 6.9,-18.871 4.59,-4.43 10.78,-6.621 18.61,-6.621 9.86,0 16.41,2.871 19.63,8.671 3.24,5.79 5.17,11.551 5.86,17.352 h 52.03 c 0,-10.902 -1.8,-21.102 -5.37,-30.633 -3.56,-9.508 -8.73,-17.648 -15.53,-24.449 -6.82,-7.148 -14.98,-12.77 -24.49,-16.84 -9.53,-4.082 -20.24,-6.129 -32.13,-6.129 -16,0 -29.75,3.399 -41.31,10.199 -11.56,6.79 -20.41,15.821 -26.52,27.032 -3.75,6.789 -6.29,14.629 -7.66,23.468 -1.37,8.848 -2.03,18.52 -2.03,29.071 v 85.148 c 0,10.531 0.66,20.262 2.03,29.102 1.37,8.828 3.91,16.648 7.66,23.437 6.11,11.211 14.96,20.223 26.52,27.012 11.56,6.801 25.31,10.219 41.31,10.219 11.89,0 22.68,-2.028 32.38,-6.11 9.69,-4.109 17.83,-9.789 24.47,-17.109 6.65,-7.289 11.74,-15.879 15.3,-25.73 3.57,-9.879 5.37,-20.391 5.37,-31.641 V 217.23 H 2859.1"
         style="fill:#656263;fill-opacity:1;fill-rule:nonzero;stroke:none"
         id="path78"
         inkscape:connector-curvature="0" /><path
         d="m 3000.37,444.691 h 52.03 v -78.543 h 32.13 v -40.777 h -32.13 v -143.32 c 0,-6.11 0.59,-10.903 1.78,-14.301 1.19,-3.391 3.07,-5.91 5.61,-7.609 2.53,-1.7 5.87,-2.762 9.94,-3.071 4.08,-0.328 9,-0.511 14.8,-0.511 v -48.977 h -21.42 c -11.92,0 -21.86,1.867 -29.85,5.617 -7.99,3.75 -14.35,8.5 -19.12,14.301 -4.76,5.738 -8.24,12.301 -10.45,19.629 -2.23,7.281 -3.32,14.351 -3.32,21.152 v 157.09 h -25.99 v 40.777 h 25.99 v 78.543"
         style="fill:#656263;fill-opacity:1;fill-rule:nonzero;stroke:none"
         id="path80"
         inkscape:connector-curvature="0" /><path
         d="m 3297.7,218.789 c -5.79,1 -10.55,1.52 -14.28,1.52 -11.23,0 -20.84,-2.629 -28.83,-7.911 -7.99,-5.269 -11.97,-14.878 -11.97,-28.828 0,-9.84 2.36,-17.832 7.13,-23.961 4.76,-6.129 11.38,-9.179 19.88,-9.179 8.85,0 15.72,2.89 20.64,8.648 4.93,5.801 7.43,13.953 7.43,24.492 z m 0,-84.668 h -1.04 c -6.8,-9.551 -13.67,-16.82 -20.64,-21.93 -6.98,-5.121 -16.74,-7.66 -29.34,-7.66 -6.11,0 -12.4,0.938 -18.87,2.809 -6.46,1.879 -12.48,5.281 -18.1,10.199 -5.61,4.922 -10.2,11.891 -13.77,20.922 -3.58,9 -5.35,20.617 -5.35,34.918 0,14.633 1.19,27.441 3.57,38.492 2.36,11.078 6.7,20.238 13.01,27.539 6.29,7.332 14.71,12.781 25.23,16.352 10.53,3.578 23.99,5.328 40.3,5.328 3.73,0 7.48,-0.168 11.23,-0.5 3.73,-0.36 8.32,-0.668 13.77,-1.02 v 27.008 c 0,8.852 -1.88,16.172 -5.61,21.973 -3.75,5.75 -10.55,8.64 -20.41,8.64 -6.8,0 -13.01,-2.191 -18.61,-6.601 -5.63,-4.442 -9.26,-10.879 -10.98,-19.379 h -50.49 c 1.7,23.437 9.53,42.129 23.48,56.078 6.8,6.789 14.94,12.16 24.47,16.051 9.51,3.93 20.22,5.879 32.13,5.879 10.88,0 21.05,-1.719 30.61,-5.117 9.51,-3.403 17.77,-8.493 24.74,-15.293 6.97,-6.797 12.48,-15.289 16.58,-25.489 4.05,-10.199 6.1,-22.09 6.1,-35.679 V 107.582 h -52.01 v 26.539"
         style="fill:#656263;fill-opacity:1;fill-rule:nonzero;stroke:none"
         id="path82"
         inkscape:connector-curvature="0" /><path
         d="m 3491.5,282.012 c 0,10.547 -2.05,19.039 -6.15,25.488 -4.04,6.48 -10.55,9.691 -19.33,9.691 -7.86,0 -14.13,-2.949 -18.87,-8.929 -4.81,-5.922 -7.15,-13.653 -7.15,-23.203 v -100.45 c 0,-8.179 2.46,-14.859 7.38,-20.14 4.92,-5.27 11.14,-7.91 18.64,-7.91 9.84,0 16.58,3.05 20.09,9.179 3.58,6.121 5.39,13.262 5.39,21.41 z m -103.53,84.136 H 3440 v -23.437 c 6.45,7.449 13.07,13.769 19.86,18.867 6.8,5.102 16.64,7.641 29.59,7.641 21.45,0 36.57,-8.168 45.41,-24.489 3.05,-5.769 5.28,-12.91 6.62,-21.41 1.35,-8.5 2.06,-19.879 2.06,-34.16 v -98.441 c 0,-18.688 -0.53,-32.457 -1.53,-41.309 -1.05,-8.84 -3.28,-15.988 -6.68,-21.398 -4.39,-6.84 -10.08,-12.422 -17.05,-16.864 -6.97,-4.386 -16.76,-6.617 -29.35,-6.617 -10.2,0 -19.28,2.289 -27.25,6.879 -8.03,4.61 -14.88,11.129 -20.68,19.66 h -1 V 3.05078 h -52.03 V 366.148"
         style="fill:#656263;fill-opacity:1;fill-rule:nonzero;stroke:none"
         id="path84"
         inkscape:connector-curvature="0" /><path
         d="m 3688.38,282.012 c 0,10.547 -2.05,19.039 -6.15,25.488 -4.05,6.48 -10.55,9.691 -19.4,9.691 -7.79,0 -14.06,-2.949 -18.87,-8.929 -4.74,-5.922 -7.08,-13.653 -7.08,-23.203 v -100.45 c 0,-8.179 2.46,-14.859 7.38,-20.14 4.92,-5.27 11.13,-7.91 18.57,-7.91 9.9,0 16.58,3.05 20.16,9.179 3.57,6.121 5.39,13.262 5.39,21.41 z m -103.54,84.136 h 52.04 v -23.437 c 6.44,7.449 13.06,13.769 19.86,18.867 6.8,5.102 16.64,7.641 29.59,7.641 21.38,0 36.5,-8.168 45.35,-24.489 3.11,-5.769 5.27,-12.91 6.68,-21.41 1.35,-8.5 1.99,-19.879 1.99,-34.16 v -98.441 c 0,-18.688 -0.47,-32.457 -1.52,-41.309 -1,-8.84 -3.22,-15.988 -6.62,-21.398 -4.4,-6.84 -10.14,-12.422 -17.05,-16.864 -6.98,-4.386 -16.76,-6.617 -29.36,-6.617 -10.19,0 -19.28,2.289 -27.3,6.879 -7.97,4.61 -14.83,11.129 -20.63,19.66 h -0.99 V 3.05078 h -52.04 V 366.148"
         style="fill:#656263;fill-opacity:1;fill-rule:nonzero;stroke:none"
         id="path86"
         inkscape:connector-curvature="0" /><path
         d="m 3780.66,366.148 h 52.04 v -27.539 c 10.48,9.512 20.85,17 31.05,22.442 10.25,5.449 22.79,8.168 37.79,8.168 v -55.098 c -5.09,2.051 -10.43,3.07 -15.82,3.07 -5.45,0 -11.31,-0.941 -17.63,-2.781 -6.27,-1.871 -12.07,-5.039 -17.35,-9.43 -5.27,-4.449 -9.61,-10.21 -12.95,-17.339 -3.45,-7.149 -5.09,-16 -5.09,-26.551 V 107.582 h -52.04 v 258.566"
         style="fill:#656263;fill-opacity:1;fill-rule:nonzero;stroke:none"
         id="path88"
         inkscape:connector-curvature="0" /><path
         d="m 3969.86,258.051 h 50.98 v 29.59 c 0,9.839 -2.29,17.218 -6.86,22.16 -4.62,4.929 -10.78,7.39 -18.63,7.39 -7.79,0 -14,-2.461 -18.63,-7.39 -4.57,-4.942 -6.86,-12.321 -6.86,-22.16 z m 0,-40.821 v -35.179 c 0,-8.141 2.29,-14.469 6.86,-18.871 4.63,-4.43 10.84,-6.621 18.63,-6.621 9.85,0 16.41,2.871 19.63,8.671 3.22,5.79 5.22,11.551 5.86,17.352 h 52.03 c 0,-10.902 -1.76,-21.102 -5.33,-30.633 -3.58,-9.508 -8.79,-17.648 -15.59,-24.449 -6.79,-7.148 -14.94,-12.77 -24.49,-16.84 -9.49,-4.082 -20.21,-6.129 -32.11,-6.129 -15.99,0 -29.76,3.399 -41.31,10.199 -11.54,6.79 -20.39,15.821 -26.54,27.032 -3.69,6.789 -6.27,14.629 -7.62,23.468 -1.34,8.848 -2.05,18.52 -2.05,29.071 v 85.148 c 0,10.531 0.71,20.262 2.05,29.102 1.35,8.828 3.93,16.648 7.62,23.437 6.15,11.211 15,20.223 26.54,27.012 11.55,6.801 25.32,10.219 41.31,10.219 11.9,0 22.68,-2.028 32.4,-6.11 9.67,-4.109 17.82,-9.789 24.5,-17.109 6.62,-7.289 11.71,-15.879 15.29,-25.73 3.57,-9.879 5.33,-20.391 5.33,-31.641 V 217.23 h -103.01"
         style="fill:#656263;fill-opacity:1;fill-rule:nonzero;stroke:none"
         id="path90"
         inkscape:connector-curvature="0" /><path
         d="m 4111.13,366.148 h 52.03 v -24.957 h 1 c 5.45,8.149 12.01,14.86 19.63,20.141 7.67,5.27 17.46,7.887 29.35,7.887 6.45,0 12.9,-1.098 19.34,-3.297 6.5,-2.231 12.25,-5.863 17.34,-10.961 5.1,-5.102 9.2,-11.66 12.25,-19.652 3.11,-8.008 4.63,-17.789 4.63,-29.329 V 107.582 h -52.03 v 178.996 c 0,9.551 -2.23,17.012 -6.62,22.442 -4.46,5.449 -10.73,8.171 -18.87,8.171 -9.9,0 -16.7,-3.07 -20.45,-9.16 -3.69,-6.121 -5.57,-14.98 -5.57,-26.551 V 107.582 h -52.03 v 258.566"
         style="fill:#656263;fill-opacity:1;fill-rule:nonzero;stroke:none"
         id="path92"
         inkscape:connector-curvature="0" /><path
         d="m 4309.53,444.691 h 52.03 v -78.543 h 32.11 v -40.777 h -32.11 v -143.32 c 0,-6.11 0.59,-10.903 1.76,-14.301 1.17,-3.391 3.05,-5.91 5.63,-7.609 2.51,-1.7 5.85,-2.762 9.9,-3.071 4.1,-0.328 9.02,-0.511 14.82,-0.511 v -48.977 h -21.44 c -11.9,0 -21.86,1.867 -29.83,5.617 -7.97,3.75 -14.35,8.5 -19.1,14.301 -4.8,5.738 -8.26,12.301 -10.49,19.629 -2.22,7.281 -3.28,14.351 -3.28,21.152 v 157.09 h -26.01 v 40.777 h 26.01 v 78.543"
         style="fill:#656263;fill-opacity:1;fill-rule:nonzero;stroke:none"
         id="path94"
         inkscape:connector-curvature="0" /><path
         d="m 4413.54,366.148 h 52.03 V 107.582 h -52.03 z m 0,104.551 h 52.03 v -51.988 h -52.03 v 51.988"
         style="fill:#656263;fill-opacity:1;fill-rule:nonzero;stroke:none"
         id="path96"
         inkscape:connector-curvature="0" /><path
         d="m 4602.73,293.73 c -0.35,8.852 -3.16,15.469 -8.37,19.918 -5.28,4.403 -11.31,6.622 -18.11,6.622 -8.2,0 -14.47,-2.629 -18.87,-7.911 -4.45,-5.269 -6.68,-11.308 -6.68,-18.097 0,-4.774 1.23,-9.442 3.58,-14.032 2.4,-4.609 8.49,-8.769 18.4,-12.519 l 30.58,-12.199 c 19.4,-7.481 32.7,-17.684 40.02,-30.633 7.33,-12.93 10.96,-27.008 10.96,-42.297 0,-10.902 -1.94,-21.023 -5.86,-30.352 -3.93,-9.378 -9.26,-17.621 -16.06,-24.73 -6.79,-7.148 -14.94,-12.77 -24.49,-16.84 -9.49,-4.082 -19.86,-6.129 -31.11,-6.129 -10.2,0 -19.86,1.699 -29.06,5.098 -9.2,3.402 -17.23,8.32 -24.2,14.781 -6.98,6.488 -12.72,14.539 -17.11,24.238 -4.4,9.672 -6.8,20.981 -7.15,33.934 h 48.98 c 1,-7.152 3.46,-13.773 7.39,-19.922 3.92,-6.101 10.78,-9.18 20.68,-9.18 7.44,0 14.18,2.5 20.1,7.418 5.97,4.922 8.96,11.782 8.96,20.622 0,7.152 -1.87,13.3 -5.62,18.402 -3.75,5.098 -10.55,9.488 -20.39,13.238 l -25.02,9.199 c -16.29,6.102 -29.12,15.18 -38.5,27.25 -9.37,12.071 -14,26.782 -14,44.121 0,10.899 2.05,21 6.09,30.348 4.1,9.383 9.61,17.352 16.58,23.973 6.98,6.621 15.06,11.828 24.26,15.578 9.14,3.711 18.99,5.59 29.53,5.59 10.55,0 20.33,-1.949 29.36,-5.879 9.02,-3.891 16.76,-9.141 23.2,-15.801 6.45,-6.641 11.54,-14.609 15.29,-23.949 3.75,-9.348 5.63,-19.309 5.63,-29.86 h -48.99"
         style="fill:#656263;fill-opacity:1;fill-rule:nonzero;stroke:none"
         id="path98"
         inkscape:connector-curvature="0" /><path
         d="m 4777.7,293.73 c -0.36,8.852 -3.17,15.469 -8.44,19.918 -5.28,4.403 -11.31,6.622 -18.11,6.622 -8.14,0 -14.47,-2.629 -18.86,-7.911 -4.4,-5.269 -6.63,-11.308 -6.63,-18.097 0,-4.774 1.18,-9.442 3.58,-14.032 2.34,-4.609 8.49,-8.769 18.34,-12.519 l 30.58,-12.199 c 19.4,-7.481 32.76,-17.684 40.08,-30.633 7.27,-12.93 10.96,-27.008 10.96,-42.297 0,-10.902 -1.99,-21.023 -5.86,-30.352 -3.93,-9.378 -9.26,-17.621 -16.05,-24.73 -6.86,-7.148 -15,-12.77 -24.5,-16.84 -9.55,-4.082 -19.92,-6.129 -31.11,-6.129 -10.2,0 -19.92,1.699 -29.06,5.098 -9.2,3.402 -17.29,8.32 -24.26,14.781 -6.97,6.488 -12.66,14.539 -17.05,24.238 -4.45,9.672 -6.86,20.981 -7.15,33.934 h 48.93 c 1.05,-7.152 3.51,-13.773 7.44,-19.922 3.86,-6.101 10.78,-9.18 20.62,-9.18 7.5,0 14.18,2.5 20.16,7.418 5.92,4.922 8.9,11.782 8.9,20.622 0,7.152 -1.87,13.3 -5.62,18.402 -3.69,5.098 -10.49,9.488 -20.39,13.238 l -24.96,9.199 c -16.35,6.102 -29.18,15.18 -38.5,27.25 -9.37,12.071 -14.06,26.782 -14.06,44.121 0,10.899 2.05,21 6.15,30.348 4.05,9.383 9.61,17.352 16.58,23.973 6.92,6.621 15,11.828 24.2,15.578 9.2,3.711 19.05,5.59 29.59,5.59 10.55,0 20.34,-1.949 29.3,-5.879 9.02,-3.891 16.76,-9.141 23.2,-15.801 6.51,-6.641 11.6,-14.609 15.35,-23.949 3.7,-9.348 5.57,-19.309 5.57,-29.86 h -48.92"
         style="fill:#656263;fill-opacity:1;fill-rule:nonzero;stroke:none"
         id="path100"
         inkscape:connector-curvature="0" /><path
         d="m 4961.27,218.789 c -5.8,1 -10.55,1.52 -14.3,1.52 -11.19,0 -20.8,-2.629 -28.77,-7.911 -8.02,-5.269 -12.01,-14.878 -12.01,-28.828 0,-9.84 2.4,-17.832 7.15,-23.961 4.75,-6.129 11.37,-9.179 19.86,-9.179 8.85,0 15.76,2.89 20.69,8.648 4.92,5.801 7.38,13.953 7.38,24.492 z m 0,-84.668 h -1 c -6.79,-9.551 -13.71,-16.82 -20.68,-21.93 -6.97,-5.121 -16.76,-7.66 -29.3,-7.66 -6.15,0 -12.42,0.938 -18.86,2.809 -6.51,1.879 -12.54,5.281 -18.11,10.199 -5.62,4.922 -10.19,11.891 -13.77,20.922 -3.57,9 -5.39,20.617 -5.39,34.918 0,14.633 1.17,27.441 3.57,38.492 2.41,11.078 6.74,20.238 13.01,27.539 6.27,7.332 14.71,12.781 25.26,16.352 10.54,3.578 23.96,5.328 40.31,5.328 3.69,0 7.44,-0.168 11.19,-0.5 3.75,-0.36 8.32,-0.668 13.77,-1.02 v 27.008 c 0,8.852 -1.88,16.172 -5.63,21.973 -3.75,5.75 -10.54,8.64 -20.39,8.64 -6.79,0 -13,-2.191 -18.63,-6.601 -5.57,-4.442 -9.26,-10.879 -10.96,-19.379 h -50.45 c 1.7,23.437 9.5,42.129 23.44,56.078 6.8,6.789 14.94,12.16 24.49,16.051 9.5,3.93 20.22,5.879 32.11,5.879 10.9,0 21.1,-1.719 30.59,-5.117 9.55,-3.403 17.81,-8.493 24.79,-15.293 6.91,-6.797 12.48,-15.289 16.52,-25.489 4.1,-10.199 6.15,-22.09 6.15,-35.679 V 107.582 h -52.03 v 26.539"
         style="fill:#656263;fill-opacity:1;fill-rule:nonzero;stroke:none"
         id="path102"
         inkscape:connector-curvature="0" /><path
         d="m 5103.59,187.148 c 0,-8.148 1.76,-15.289 5.34,-21.41 3.57,-6.129 10.25,-9.179 20.15,-9.179 7.44,0 13.65,2.64 18.58,7.91 4.92,5.281 7.44,11.961 7.44,20.14 v 100.45 c 0,9.55 -2.4,17.281 -7.15,23.203 -4.81,5.98 -11.07,8.929 -18.87,8.929 -8.85,0 -15.29,-3.211 -19.39,-9.691 -4.1,-6.449 -6.1,-14.941 -6.1,-25.488 z m 0,-109.6285 c 0.3,-6.1484 2.76,-11.8984 7.39,-17.3398 4.57,-5.4492 11.31,-8.1914 20.15,-8.1914 8.44,0 14.59,2.6601 18.34,7.9336 3.75,5.2773 5.63,11.9687 5.63,20.1172 V 131.07 h -1.06 c -5.8,-8.531 -12.65,-15.05 -20.62,-19.66 -8.03,-4.59 -17.29,-6.879 -27.83,-6.879 -21.39,0 -36.57,8.149 -45.36,24.489 -3.1,5.781 -5.27,12.89 -6.62,21.41 -1.4,8.48 -2.05,19.898 -2.05,34.179 v 98.442 c 0,18.668 0.47,32.461 1.53,41.289 0.99,8.82 3.22,15.969 6.62,21.422 4.39,6.797 10.13,12.418 17.11,16.82 6.91,4.406 16.7,6.637 29.29,6.637 6.45,0 12.02,-0.668 16.59,-2.028 4.57,-1.39 8.73,-3.261 12.48,-5.613 3.75,-2.398 7.14,-5.207 10.19,-8.437 3.05,-3.219 6.33,-6.692 9.73,-10.43 v 23.437 h 51.97 V 75.9805 c 0,-8.8321 -1.41,-17.7813 -4.34,-26.7617 -2.87,-9.0196 -7.55,-17.168 -14,-24.4883 -6.44,-7.3321 -14.59,-13.2813 -24.49,-17.87112 C 5154.39,2.28906 5142.68,0 5129.08,0 c -7.85,0 -15.99,1.25 -24.49,3.80859 -8.5,2.5625 -16.41,6.80081 -23.73,12.75001 -7.32,5.9414 -13.59,13.8516 -18.87,23.6914 -5.27,9.9102 -8.73,22.2891 -10.43,37.2695 h 52.03"
         style="fill:#656263;fill-opacity:1;fill-rule:nonzero;stroke:none"
         id="path104"
         inkscape:connector-curvature="0" /><path
         d="m 5297.36,258.051 h 50.98 v 29.59 c 0,9.839 -2.29,17.218 -6.86,22.16 -4.62,4.929 -10.78,7.39 -18.63,7.39 -7.79,0 -14,-2.461 -18.63,-7.39 -4.57,-4.942 -6.86,-12.321 -6.86,-22.16 z m 0,-40.821 v -35.179 c 0,-8.141 2.29,-14.469 6.86,-18.871 4.63,-4.43 10.84,-6.621 18.63,-6.621 9.85,0 16.41,2.871 19.63,8.671 3.22,5.79 5.22,11.551 5.86,17.352 h 52.03 c 0,-10.902 -1.76,-21.102 -5.33,-30.633 -3.58,-9.508 -8.79,-17.648 -15.59,-24.449 -6.79,-7.148 -14.94,-12.77 -24.49,-16.84 -9.49,-4.082 -20.21,-6.129 -32.11,-6.129 -15.99,0 -29.76,3.399 -41.31,10.199 -11.54,6.79 -20.39,15.821 -26.54,27.032 -3.69,6.789 -6.27,14.629 -7.62,23.468 -1.34,8.848 -2.05,18.52 -2.05,29.071 v 85.148 c 0,10.531 0.71,20.262 2.05,29.102 1.35,8.828 3.93,16.648 7.62,23.437 6.15,11.211 15,20.223 26.54,27.012 11.55,6.801 25.32,10.219 41.31,10.219 11.9,0 22.68,-2.028 32.4,-6.11 9.67,-4.109 17.82,-9.789 24.5,-17.109 6.62,-7.289 11.71,-15.879 15.29,-25.73 3.57,-9.879 5.33,-20.391 5.33,-31.641 V 217.23 h -103.01"
         style="fill:#656263;fill-opacity:1;fill-rule:nonzero;stroke:none"
         id="path106"
         inkscape:connector-curvature="0" /><path
         d="m 2152.48,98.1992 c -138.05,0 -250.35,112.3318 -250.35,250.3908 0,138.031 112.3,250.301 250.35,250.301 138.01,0 250.31,-112.27 250.31,-250.301 0,-138.059 -112.3,-250.3908 -250.31,-250.3908 z M 1910.33,2760.9 c 0,138.05 112.31,250.35 250.33,250.35 138.03,0 250.32,-112.3 250.32,-250.35 0,-138.03 -112.29,-250.33 -250.32,-250.33 -138.02,0 -250.33,112.3 -250.33,250.33 z M 895.586,686.91 c -138.027,0 -250.332,112.309 -250.332,250.301 0,138.039 112.305,250.329 250.332,250.329 138.024,0 250.334,-112.29 250.334,-250.329 0,-137.992 -112.31,-250.301 -250.334,-250.301 z M 340.352,2142.11 C 202.324,2142.11 90,2254.41 90,2392.44 c 0,138.07 112.324,250.37 250.352,250.37 138.027,0 250.332,-112.3 250.332,-250.37 0,-138.03 -112.305,-250.33 -250.332,-250.33 z M 2153.71,688.832 1958.07,1204.86 c 103.73,82.25 170.47,209.12 170.47,351.78 0,141.17 -65.32,266.99 -167.23,349.3 l 200.55,514.69 c 187.1,0.66 339.12,153.02 339.12,340.27 0,187.67 -152.68,340.35 -340.32,340.35 -187.65,0 -340.33,-152.68 -340.33,-340.35 0,-102.07 45.39,-193.56 116.8,-255.98 l -196.37,-504 c -20.08,2.75 -40.41,4.67 -61.23,4.67 -123.61,0 -235.53,-50 -316.72,-130.79 l -692.927,434.11 c 6.797,26.77 10.801,54.66 10.801,83.53 0,187.68 -152.676,340.37 -340.332,340.37 C 152.676,2732.81 0,2580.12 0,2392.44 c 0,-187.65 152.676,-340.33 340.352,-340.33 71.25,0 137.402,22.09 192.128,59.67 l 711.93,-446.02 c -8.75,-34.98 -13.9,-71.42 -13.9,-109.12 0,-62.09 12.6,-121.27 35.41,-175.06 l -190.37,-156.03 c -52.29,32.75 -113.851,51.99 -179.964,51.99 -187.676,0 -340.332,-152.66 -340.332,-340.329 0,-187.621 152.656,-340.301 340.332,-340.301 187.654,0 340.334,152.68 340.334,340.301 0,33.918 -5.16,66.679 -14.44,97.609 l 194.09,159.14 c 74.14,-54.08 165.17,-86.36 263.96,-86.36 19.43,0 38.44,1.64 57.23,4.04 l 192.2,-507.031 c -71.44,-62.437 -116.83,-153.91 -116.83,-256.019 0,-187.692 152.67,-340.39078 340.35,-340.39078 187.64,0 340.31,152.69878 340.31,340.39078 0,187.25 -152.01,339.57 -339.08,340.242"
         style="fill:#1f5788;fill-opacity:1;fill-rule:nonzero;stroke:none"
         id="path108"
         inkscape:connector-curvature="0" /></g></g></svg>